<svg width="169" height="272" viewBox="0 0 169 272" fill="none" xmlns="http://www.w3.org/2000/svg">
<path d="M90.9858 4.59735e-06C90.0586 0.00959853 90.4858 18.9998 90.9858 19.9998C91.4858 20.9998 93.9858 22.9998 95.4858 22.9998C96.9858 22.9998 102.486 16.9999 107.986 14.9999C109.486 14.9998 91.913 -0.00958933 90.9858 4.59735e-06Z" fill="#9E5252"/>
<path fill-rule="evenodd" clip-rule="evenodd" d="M135.486 19.9997C116.933 15.7732 109.381 18.6411 98.4858 28.4997C89.3615 29.0837 70.0888 13.4244 65.4858 14.9997C60.8827 16.5751 72.9858 43.9998 84.9858 56.9997C85.815 69.6073 85.6742 77.4357 84.9858 83.9997C84.2973 90.5637 69.9858 113 54.9858 122.5C39.9858 132 25.2025 153.446 20.9858 167C14.3994 186.292 14.014 194.908 15.9858 208.5C8.09958 212.865 5.48706 216 2.48578 224.5C-0.515507 233 -0.514477 237.5 0.985775 243C2.48603 248.5 10.7191 258.297 23.4858 264C39.154 270.455 49.1458 272.119 68.9858 272C96.7036 268.579 111.187 262.739 121.986 260C132.784 257.261 144.986 260 144.986 260C146.572 259.022 142.108 252.303 137 246C136.962 245.997 136.963 245.997 137 246C134.489 242.901 131.667 239.824 129.712 237.773C129.207 237.335 128.67 236.791 127.986 236C123.988 232 114.984 184.5 117.486 181.5C119.988 178.5 130.5 230.5 130.5 230.5C131.991 235.138 139 244.5 135 241.5C132.112 239.334 131.022 238.912 129.712 237.773C131.667 239.824 134.489 242.901 137 246C137.784 246.063 154.715 247.463 157.5 247C160.416 246.515 154.777 235.936 151.5 235.5C148.223 235.064 147.793 234.832 143 235C141.5 232.5 136.5 203.5 135 191C133.5 178.5 132 167.5 135 156.5C138 145.5 145.5 138.5 144.986 121C144.471 103.5 145.5 110 143.986 101.5C142.471 92.9994 140.524 74.14 143.986 65.9997C147.448 57.8594 153.539 49.4996 158.486 42.9997C163.433 36.4998 163.977 36.4538 167.986 26.4997C168.252 23.4362 168.363 21.5764 167.986 15.9997C167.791 15.1627 167.458 14.0321 166.486 10.9997C165.538 8.80877 164.781 8.09591 162.486 8.99972L141.986 19.9997C140.18 20.3675 138.659 20.3165 135.486 19.9997ZM118.984 255.5C115.34 256.143 111.911 257.304 108.105 258.592C103.035 260.309 97.2952 262.252 89.4858 263.5C81.1528 249.873 88.4957 229.995 92.9858 228C100.143 225.954 130.257 238.136 136.484 255L136.091 254.958C130.421 254.362 127.292 254.034 118.984 255.5ZM136.986 141C130.98 156.1 118.484 174 117.486 174C116.895 174 116.828 164.531 116.768 156.081C116.727 150.262 116.689 144.927 116.486 143.5C116.433 143.128 116.354 142.581 116.255 141.892C115.422 136.094 113.138 120.203 112.486 113.5C111.756 106 111.993 82.9997 112.486 82.9997C114.007 73.6691 115.318 70.4098 117.986 65.9997C125.924 53.3919 136.488 45.4995 141.986 41.4997C145.163 39.1883 151.348 32.3685 156.195 27.0228C159.737 23.1179 162.564 19.9997 162.986 19.9997C163.984 19.9998 163.484 25.9999 162.486 28.4997C162.215 29.1772 160.328 31.7286 157.711 35.2664C150.672 44.7822 138.352 61.439 137.986 67.9997C137.484 76.9999 138.486 94.9997 138.486 94.9997C142.003 119.544 141.047 128.617 136.986 141ZM68.9839 176.038C80.1263 176.701 95.5047 190.691 88.9839 216.538C74.5545 215.348 70.4839 214.5 56.4858 219C42.4877 223.5 26.9839 220.5 24.4839 222C21.9839 223.5 24.9698 228.061 27.9839 228.5C30.998 228.939 39.9839 229 44.9839 228C49.9839 227 57.4376 223.476 65.9839 222.5C75.8554 220.985 80.7615 221.154 89.4858 221.5C98.8699 222.43 111.988 228 112.486 228C112.984 228 102.067 195.497 101.986 196C101.905 196.503 99.1965 200.21 95.9858 201.5C95.4368 178.531 76.2136 171.112 69.4858 171C62.758 170.888 57.8415 175.374 68.9839 176.038Z" fill="#9E5252"/>
</svg>
