<svg width="1067" height="2374" viewBox="0 0 1067 2374" fill="none" xmlns="http://www.w3.org/2000/svg">
<path d="M635 2334V2233.4C635 2178.17 590.229 2133.4 535 2133.4H137.948C83.8527 2133.4 40 2089.54 40 2035.45C40 1981.35 83.8527 1937.5 137.948 1937.5H845.936C916.779 1937.5 965.735 1865.69 943.415 1798.46C892.278 1644.41 840.585 1434.47 994 1569.5C1195.66 1747 397.454 1612.56 200.826 1577.34C173.353 1572.41 149.527 1556.13 136.726 1531.32C98.9598 1458.15 31.1583 1297.67 109 1210C191.585 1116.99 634.825 1165.42 807.284 1188.27C848.793 1193.77 889.563 1173.77 905.895 1135.21C949.268 1032.82 1010.68 832.09 876 740C747.474 652.116 450.985 686.344 281.945 715.431C218.316 726.38 158 678.053 158 613.489V519.638C158 497.369 165.409 475.811 178.753 457.982C244.812 369.714 430.365 109.661 158 321.5C-110.718 530.503 525.452 392.821 750.365 339.754C794.884 329.249 825.5 289.478 825.5 243.737V40" stroke="#9E5252" stroke-width="80" stroke-linecap="round"/>
<path d="M635 2334V2233.4C635 2178.17 590.228 2133.4 535 2133.4H137.948C83.8527 2133.4 40 2089.54 40 2035.45C40 1981.35 83.8527 1937.5 137.948 1937.5H848.415C918.588 1937.5 967.443 1866.97 945.906 1800.19C894.44 1640.6 839.427 1417.6 994 1571.5C1195.3 1771.92 389.481 1618.44 197.99 1579.75C172.075 1574.51 149.822 1559.14 137.182 1535.92C93.5184 1455.7 7.4126 1262.29 147 1192.5C285.79 1123.11 651.35 1165.88 805.667 1188.09C847.86 1194.16 889.847 1173.97 906.206 1134.61C948.822 1032.06 1007.67 833.689 876 740C749.519 650.004 452.07 685.094 282.367 714.876C218.611 726.066 158 677.693 158 612.962V519.134C158 497.174 165.213 475.887 178.219 458.193C242.924 370.165 425.527 109.815 158 323.5C-105.653 534.091 525.35 395.481 748.73 341.952C793.072 331.327 823.5 291.643 823.5 246.045V38" stroke="#F7F1E6" stroke-width="10" stroke-linecap="round" stroke-dasharray="30 30"/>
</svg>
