<svg width="1034" height="1588" viewBox="0 0 1034 1588" fill="none" xmlns="http://www.w3.org/2000/svg">
<path d="M481 40V102.5C481 157.728 436.228 202.5 381 202.5H258C202.772 202.5 158 247.272 158 302.5V345C158 400.228 202.772 445 258 445H776C831.228 445 876 489.772 876 545V582.5C876 637.728 831.228 682.5 776 682.5H377.5C322.272 682.5 277.5 727.272 277.5 782.5V820.5C277.5 875.728 322.272 920.5 377.5 920.5H894C949.228 920.5 994 965.272 994 1020.5V1059.5C994 1114.73 949.228 1159.5 894 1159.5H140C84.7715 1159.5 40 1204.27 40 1259.5V1302C40 1357.23 84.7715 1402 140 1402H535C590.228 1402 635 1446.77 635 1502V1548" stroke="#9E5252" stroke-width="80" stroke-linecap="round"/>
<path d="M481 40V102.5C481 157.728 436.228 202.5 381 202.5H258C202.772 202.5 158 247.272 158 302.5V345C158 400.228 202.772 445 258 445H776C831.228 445 876 489.772 876 545V582.5C876 637.728 831.228 682.5 776 682.5H377.5C322.272 682.5 277.5 727.272 277.5 782.5V820.5C277.5 875.728 322.272 920.5 377.5 920.5H894C949.228 920.5 994 965.272 994 1020.5V1059.5C994 1114.73 949.228 1159.5 894 1159.5H140C84.7715 1159.5 40 1204.27 40 1259.5V1302C40 1357.23 84.7715 1402 140 1402H535C590.228 1402 635 1446.77 635 1502V1548" stroke="#F7F1E6" stroke-width="10" stroke-linecap="round" stroke-dasharray="30 30"/>
</svg>
