<svg width="218" height="547" viewBox="0 0 218 547" fill="none" xmlns="http://www.w3.org/2000/svg">
<path d="M73.9512 519.863C73.9512 520.363 75.4512 521.863 75.9512 521.863C76.4512 521.863 77.9512 516.363 77.4512 516.863C76.9512 517.363 73.9512 519.363 73.9512 519.863Z" fill="#D9C7AB"/>
<path d="M52.4512 521.863C55.5585 525.41 55.9733 528.416 55.9512 534.363C59.3774 540 59.0188 542.269 55.9512 545.363C51.9193 547.272 49.7665 546.927 45.9512 543.863C45.2877 542.636 44.5803 541.788 42.4512 539.863C39.7227 538.226 38.1885 537.809 35.4512 537.363C30.9837 536.297 28.9513 531.863 29.9512 528.863C30.9512 525.863 37.2829 525.379 37.9512 524.863C38.6196 524.346 47.6037 519.977 50.9512 520.863C51.6949 521.097 51.9955 521.344 52.4512 521.863Z" fill="#D9C7AB"/>
<path d="M62.4512 533.863C60.4512 532.363 61.4557 527.063 64.4512 524.863C66.7504 522.39 71.5895 521.141 73.4512 522.363C75.3129 523.585 74.186 528.079 71.9512 531.363C69.7515 534.837 64.4512 535.363 62.4512 533.863Z" fill="#D9C7AB"/>
<path d="M62.7088 518.128C60.3014 517.367 59.5026 512.032 61.6332 508.97C63.0083 505.88 67.2149 503.112 69.3981 503.655C71.5813 504.199 71.9958 508.814 70.9512 512.649C70.0032 516.653 65.1162 518.889 62.7088 518.128Z" fill="#D9C7AB"/>
<path d="M50.4512 511.863C48.0438 511.102 47.245 505.766 49.3755 502.705C50.7507 499.614 54.9572 496.846 57.1404 497.39C59.3236 497.933 59.7382 502.548 58.6935 506.384C57.7455 510.387 52.8586 512.623 50.4512 511.863Z" fill="#D9C7AB"/>
<path d="M37.2552 519.37C34.7328 519.261 32.5741 514.317 33.8353 510.806C34.3595 507.465 37.7017 503.698 39.9512 503.655C42.2006 503.613 43.8008 507.961 43.7894 511.936C43.915 516.048 39.7775 519.478 37.2552 519.37Z" fill="#D9C7AB"/>
<path d="M39.9512 501.363C40.6775 501.646 40.9512 501.363 41.9512 501.863C42.9512 502.363 43.9512 496.363 43.4512 496.863L43.4375 496.876C42.887 497.427 39.2311 501.082 39.9512 501.363Z" fill="#D9C7AB"/>
<path d="M57.8718 494.363C58.6935 494.646 59.8834 494.829 60.4173 495.596C60.9512 496.363 64.4512 490.146 63.4512 490.646C62.4512 491.146 57.05 494.08 57.8718 494.363Z" fill="#D9C7AB"/>
<path d="M70.1294 500.345C70.2935 500.817 72.2027 501.742 72.675 501.578C73.1473 501.414 72.7594 495.726 72.4512 496.363C72.1429 496.999 69.9653 499.873 70.1294 500.345Z" fill="#D9C7AB"/>
<path d="M133.865 498.314C133.952 498.806 135.69 500.023 136.182 499.936C136.674 499.849 137.197 494.172 136.791 494.752C136.385 495.331 133.778 497.821 133.865 498.314Z" fill="#D9C7AB"/>
<path d="M113.039 504.017C116.715 506.971 117.646 509.859 118.657 515.719C123.01 520.676 123.05 522.973 120.567 526.552C116.928 529.133 114.748 529.167 110.458 526.811C109.592 525.719 108.748 525.006 106.317 523.48C103.345 522.342 101.762 522.198 98.989 522.233C94.4042 521.959 91.6327 517.946 92.0965 514.818C92.5603 511.689 98.7118 510.114 99.2804 509.489C99.8489 508.865 107.938 503.001 111.388 503.292C112.161 503.394 112.5 503.585 113.039 504.017Z" fill="#D9C7AB"/>
<path d="M124.971 514.098C122.741 512.968 122.81 507.575 125.378 504.887C127.213 502.053 131.761 499.982 133.807 500.863C135.853 501.743 135.523 506.364 133.893 509.986C132.33 513.79 127.201 515.228 124.971 514.098Z" fill="#D9C7AB"/>
<path d="M122.492 498.558C119.989 498.227 118.276 493.111 119.843 489.726C120.66 486.443 124.322 482.987 126.567 483.143C128.811 483.299 130.021 487.772 129.658 491.731C129.42 495.838 124.995 498.889 122.492 498.558Z" fill="#D9C7AB"/>
<path d="M109.333 494.516C106.83 494.185 105.117 489.069 106.683 485.684C107.501 482.402 111.163 478.945 113.407 479.102C115.652 479.258 116.861 483.73 116.499 487.689C116.26 491.797 111.836 494.847 109.333 494.516Z" fill="#D9C7AB"/>
<path d="M97.641 504.2C95.1381 504.532 92.1536 500.037 92.7861 496.361C92.7221 492.979 95.3595 488.689 97.5673 488.257C99.7752 487.824 102.106 491.828 102.785 495.745C103.623 499.773 100.144 503.869 97.641 504.2Z" fill="#D9C7AB"/>
<path d="M97.1692 485.999C97.9336 486.152 98.154 485.825 99.2256 486.144C100.297 486.463 100.24 480.38 99.8346 480.96L99.8235 480.975C99.377 481.613 96.4114 485.848 97.1692 485.999Z" fill="#D9C7AB"/>
<path d="M113.602 475.993C114.46 476.13 115.664 476.103 116.323 476.766C116.982 477.428 119.349 470.698 118.451 471.364C117.553 472.03 112.744 475.857 113.602 475.993Z" fill="#D9C7AB"/>
<path d="M126.712 479.756C126.956 480.193 128.997 480.772 129.433 480.528C129.87 480.285 128.5 474.751 128.307 475.431C128.114 476.111 126.469 479.32 126.712 479.756Z" fill="#D9C7AB"/>
<path d="M115.068 425.979C115.134 426.474 116.819 427.763 117.315 427.697C117.811 427.63 118.57 421.981 118.141 422.542C117.711 423.104 115.002 425.483 115.068 425.979Z" fill="#D9C7AB"/>
<path d="M94.0213 430.803C97.5702 433.909 98.3788 436.833 99.143 442.731C103.284 447.866 103.229 450.162 100.597 453.634C96.853 456.06 94.6734 456.003 90.4866 453.469C89.6667 452.341 88.8535 451.594 86.4885 449.967C83.5676 448.705 81.9917 448.495 79.2195 448.414C74.6502 447.948 72.0495 443.822 72.6441 440.716C73.2387 437.61 79.4508 436.294 80.0451 435.694C80.6394 435.094 88.967 429.575 92.4023 430.01C93.1704 430.144 93.501 430.349 94.0213 430.803Z" fill="#D9C7AB"/>
<path d="M105.52 441.376C103.339 440.153 103.634 434.768 106.312 432.19C108.265 429.435 112.896 427.557 114.903 428.523C116.91 429.488 116.387 434.091 114.606 437.642C112.885 441.376 107.701 442.598 105.52 441.376Z" fill="#D9C7AB"/>
<path d="M103.695 425.745C101.208 425.31 99.7112 420.126 101.418 416.81C102.373 413.565 106.177 410.265 108.413 410.515C110.648 410.766 111.669 415.285 111.141 419.225C110.73 423.319 106.182 426.181 103.695 425.745Z" fill="#D9C7AB"/>
<path d="M90.7169 421.155C88.23 420.72 86.7329 415.536 88.44 412.22C89.3946 408.975 93.1983 405.675 95.4342 405.925C97.6701 406.175 98.691 410.695 98.1626 414.635C97.7522 418.729 93.2037 421.591 90.7169 421.155Z" fill="#D9C7AB"/>
<path d="M78.629 430.341C76.1144 430.567 73.321 425.951 74.1072 422.305C74.185 418.923 77 414.748 79.224 414.408C81.4481 414.068 83.609 418.167 84.1232 422.109C84.7914 426.168 81.1436 430.115 78.629 430.341Z" fill="#D9C7AB"/>
<path d="M78.921 412.135C79.6783 412.32 79.9122 412.003 80.9695 412.367C82.0268 412.73 82.2249 406.651 81.7954 407.212L81.7836 407.228C81.3108 407.846 78.1702 411.952 78.921 412.135Z" fill="#D9C7AB"/>
<path d="M95.759 402.828C96.6109 403 97.8146 403.024 98.4452 403.714C99.0757 404.403 101.723 397.778 100.798 398.406C99.8729 399.034 94.907 402.656 95.759 402.828Z" fill="#D9C7AB"/>
<path d="M108.7 407.137C108.925 407.584 110.94 408.248 111.386 408.023C111.833 407.798 110.696 402.211 110.475 402.883C110.253 403.555 108.475 406.691 108.7 407.137Z" fill="#D9C7AB"/>
<path d="M170.673 394.722C170.824 395.198 172.708 396.175 173.184 396.024C173.661 395.872 173.428 390.176 173.103 390.804C172.777 391.432 170.522 394.245 170.673 394.722Z" fill="#D9C7AB"/>
<path d="M150.784 403.128C154.818 405.57 156.122 408.31 157.899 413.985C162.869 418.323 163.213 420.594 161.224 424.47C157.958 427.509 155.802 427.831 151.239 426.063C150.236 425.095 149.305 424.5 146.693 423.309C143.598 422.573 142.009 422.64 139.265 423.042C134.684 423.376 131.407 419.764 131.453 416.602C131.499 413.44 137.388 411.065 137.869 410.371C138.35 409.677 145.593 402.796 149.052 402.628C149.832 402.627 150.193 402.771 150.784 403.128Z" fill="#D9C7AB"/>
<path d="M163.944 411.543C161.584 410.718 160.939 405.363 163.129 402.36C164.573 399.307 168.808 396.654 170.952 397.256C173.097 397.858 173.381 402.482 172.243 406.288C171.197 410.265 166.304 412.368 163.944 411.543Z" fill="#D9C7AB"/>
<path d="M159.433 396.467C156.908 396.47 154.533 391.625 155.639 388.063C156.015 384.701 159.188 380.791 161.434 380.649C163.679 380.507 165.469 384.781 165.633 388.753C165.94 392.856 161.957 396.464 159.433 396.467Z" fill="#D9C7AB"/>
<path d="M145.854 394.2C143.33 394.203 140.955 389.358 142.061 385.796C142.437 382.434 145.61 378.524 147.855 378.382C150.101 378.241 151.891 382.514 152.055 386.486C152.361 390.589 148.379 394.198 145.854 394.2Z" fill="#D9C7AB"/>
<path d="M135.545 405.345C133.108 406.004 129.556 401.944 129.697 398.217C129.186 394.873 131.233 390.272 133.365 389.551C135.496 388.83 138.336 392.491 139.526 396.284C140.889 400.166 137.982 404.686 135.545 405.345Z" fill="#D9C7AB"/>
<path d="M132.671 387.366C133.449 387.416 133.625 387.064 134.729 387.238C135.833 387.412 134.973 381.391 134.647 382.018L134.638 382.036C134.28 382.727 131.9 387.316 132.671 387.366Z" fill="#D9C7AB"/>
<path d="M147.637 375.276C148.506 375.297 149.696 375.112 150.437 375.682C151.177 376.251 152.634 369.267 151.832 370.046C151.03 370.825 146.768 375.254 147.637 375.276Z" fill="#D9C7AB"/>
<path d="M161.13 377.273C161.429 377.673 163.529 377.978 163.929 377.678C164.33 377.379 162.241 372.075 162.139 372.775C162.038 373.475 160.831 376.872 161.13 377.273Z" fill="#D9C7AB"/>
<path d="M145.165 330.637C145.29 331.121 147.117 332.198 147.602 332.074C148.086 331.949 148.164 326.248 147.805 326.857C147.445 327.466 145.04 330.153 145.165 330.637Z" fill="#D9C7AB"/>
<path d="M124.847 337.946C128.742 340.604 129.895 343.411 131.36 349.175C136.086 353.777 136.306 356.064 134.109 359.826C130.682 362.682 128.511 362.886 124.051 360.872C123.102 359.85 122.205 359.206 119.662 357.874C116.611 356.971 115.022 356.951 112.26 357.202C107.668 357.286 104.592 353.501 104.81 350.346C105.029 347.192 111.039 345.141 111.557 344.474C112.075 343.807 119.682 337.331 123.145 337.352C123.924 337.394 124.276 337.558 124.847 337.946Z" fill="#D9C7AB"/>
<path d="M137.529 347.066C135.217 346.114 134.865 340.731 137.216 337.852C138.824 334.883 143.198 332.464 145.306 333.182C147.414 333.901 147.446 338.533 146.102 342.272C144.841 346.185 139.84 348.019 137.529 347.066Z" fill="#D9C7AB"/>
<path d="M133.846 331.767C131.325 331.632 129.218 326.665 130.516 323.168C131.075 319.832 134.457 316.101 136.707 316.081C138.956 316.062 140.511 320.427 140.458 324.402C140.54 328.515 136.367 331.902 133.846 331.767Z" fill="#D9C7AB"/>
<path d="M120.412 328.763C117.891 328.628 115.784 323.661 117.082 320.164C117.641 316.828 121.022 313.097 123.272 313.078C125.522 313.059 127.076 317.423 127.023 321.398C127.106 325.512 122.933 328.898 120.412 328.763Z" fill="#D9C7AB"/>
<path d="M109.51 339.329C107.041 339.855 103.715 335.606 104.059 331.892C103.732 328.525 106.026 324.043 108.194 323.44C110.361 322.836 112.997 326.647 113.98 330.499C115.129 334.449 111.98 338.804 109.51 339.329Z" fill="#D9C7AB"/>
<path d="M107.621 321.22C108.395 321.313 108.589 320.97 109.682 321.204C110.776 321.439 110.245 315.379 109.885 315.988L109.876 316.005C109.48 316.675 106.854 321.128 107.621 321.22Z" fill="#D9C7AB"/>
<path d="M123.224 309.964C124.09 310.033 125.288 309.912 125.997 310.522C126.705 311.131 128.541 304.237 127.697 304.971C126.854 305.705 122.357 309.895 123.224 309.964Z" fill="#D9C7AB"/>
<path d="M136.588 312.693C136.864 313.11 138.944 313.528 139.36 313.251C139.777 312.974 137.98 307.564 137.84 308.257C137.701 308.95 136.311 312.277 136.588 312.693Z" fill="#D9C7AB"/>
<path d="M198.668 287.642C198.958 288.05 201.05 288.401 201.458 288.111C201.865 287.82 199.895 282.471 199.778 283.168C199.661 283.865 198.378 287.235 198.668 287.642Z" fill="#D9C7AB"/>
<path d="M182.319 301.747C186.908 302.833 188.99 305.041 192.423 309.896C198.484 312.5 199.509 314.555 198.806 318.855C196.63 322.75 194.677 323.718 189.791 323.436C188.539 322.822 187.471 322.542 184.62 322.209C181.448 322.46 179.956 323.011 177.468 324.235C173.211 325.959 168.983 323.528 168.056 320.504C167.13 317.481 172.006 313.413 172.251 312.604C172.495 311.796 177.277 303.024 180.517 301.803C181.259 301.563 181.647 301.589 182.319 301.747Z" fill="#D9C7AB"/>
<path d="M197.426 305.717C194.927 305.656 192.67 300.757 193.833 297.227C194.27 293.879 197.486 290.053 199.712 289.968C201.937 289.884 203.627 294.197 203.713 298.169C203.937 302.275 199.926 305.778 197.426 305.717Z" fill="#D9C7AB"/>
<path d="M188.506 292.753C186.104 293.531 182.357 289.649 182.316 285.919C181.642 282.604 183.462 277.909 185.555 277.085C187.649 276.261 190.664 279.778 192.039 283.508C193.59 287.319 190.908 291.976 188.506 292.753Z" fill="#D9C7AB"/>
<path d="M174.887 294.763C172.485 295.541 168.738 291.659 168.697 287.929C168.024 284.614 169.843 279.919 171.937 279.095C174.03 278.271 177.046 281.788 178.421 285.518C179.972 289.329 177.289 293.986 174.887 294.763Z" fill="#D9C7AB"/>
<path d="M168.496 308.535C166.379 309.91 161.752 307.136 160.742 303.545C159.23 300.519 159.766 295.512 161.573 294.172C163.38 292.832 167.207 295.445 169.504 298.689C171.993 301.965 170.613 307.159 168.496 308.535Z" fill="#D9C7AB"/>
<path d="M160.243 292.305C160.999 292.114 161.057 291.725 162.162 291.552C163.266 291.379 160.599 285.912 160.482 286.609L160.479 286.628C160.35 287.396 159.494 292.494 160.243 292.305Z" fill="#D9C7AB"/>
<path d="M170.776 276.205C171.609 275.959 172.684 275.417 173.564 275.732C174.444 276.047 173.687 268.953 173.163 269.94C172.639 270.928 169.942 276.451 170.776 276.205Z" fill="#D9C7AB"/>
<path d="M184.23 273.964C184.638 274.254 186.729 273.899 187.019 273.491C187.308 273.084 183.692 268.677 183.81 269.374C183.928 270.071 183.822 273.675 184.23 273.964Z" fill="#D9C7AB"/>
<path d="M147.499 229.344C147.813 229.733 149.923 229.956 150.312 229.642C150.7 229.328 148.409 224.107 148.335 224.811C148.26 225.514 147.184 228.955 147.499 229.344Z" fill="#D9C7AB"/>
<path d="M132.037 244.416C136.683 245.221 138.896 247.298 142.617 251.936C148.826 254.167 149.973 256.156 149.532 260.491C147.598 264.51 145.706 265.596 140.813 265.611C139.526 265.074 138.443 264.859 135.576 264.701C132.425 265.143 130.97 265.784 128.561 267.157C124.417 269.137 120.048 266.967 118.94 264.005C117.832 261.043 122.451 256.686 122.647 255.865C122.842 255.043 127.081 245.997 130.241 244.581C130.967 244.296 131.356 244.299 132.037 244.416Z" fill="#D9C7AB"/>
<path d="M147.357 247.461C144.859 247.552 142.308 242.799 143.254 239.205C143.488 235.836 146.466 231.822 148.682 231.602C150.898 231.382 152.847 235.585 153.173 239.544C153.647 243.629 149.856 247.37 147.357 247.461Z" fill="#D9C7AB"/>
<path d="M137.666 235.063C135.315 235.985 131.34 232.338 131.072 228.617C130.198 225.349 131.729 220.552 133.769 219.603C135.808 218.653 139.032 221.981 140.631 225.62C142.411 229.33 140.016 234.141 137.666 235.063Z" fill="#D9C7AB"/>
<path d="M124.194 237.897C121.844 238.819 117.868 235.172 117.6 231.451C116.727 228.183 118.258 223.386 120.297 222.436C122.337 221.487 125.561 224.815 127.16 228.454C128.939 232.164 126.545 236.975 124.194 237.897Z" fill="#D9C7AB"/>
<path d="M118.652 252.031C116.622 253.532 111.835 251.044 110.609 247.521C108.915 244.593 109.147 239.563 110.869 238.115C112.591 236.668 116.569 239.043 119.06 242.142C121.743 245.261 120.682 250.529 118.652 252.031Z" fill="#D9C7AB"/>
<path d="M109.428 236.333C110.171 236.096 110.205 235.704 111.297 235.464C112.389 235.224 109.395 229.93 109.32 230.633L109.318 230.652C109.236 231.426 108.691 236.567 109.428 236.333Z" fill="#D9C7AB"/>
<path d="M118.963 219.623C119.78 219.326 120.82 218.72 121.718 218.981C122.615 219.242 121.429 212.207 120.965 213.224C120.502 214.242 118.146 219.919 118.963 219.623Z" fill="#D9C7AB"/>
<path d="M132.256 216.569C132.681 216.833 134.747 216.352 135.011 215.927C135.275 215.502 131.398 211.323 131.558 212.012C131.719 212.701 131.832 216.304 132.256 216.569Z" fill="#D9C7AB"/>
<path d="M180.544 174.919C180.921 175.248 183.038 175.101 183.366 174.724C183.694 174.347 180.531 169.604 180.58 170.31C180.629 171.015 180.167 174.591 180.544 174.919Z" fill="#D9C7AB"/>
<path d="M167.934 192.447C172.65 192.433 175.189 194.095 179.66 198.016C186.161 199.134 187.637 200.895 187.956 205.24C186.748 209.534 185.074 210.931 180.257 211.796C178.897 211.491 177.793 211.468 174.942 211.809C171.916 212.792 170.594 213.676 168.46 215.447C164.723 218.116 160.044 216.737 158.438 214.013C156.832 211.289 160.625 206.196 160.675 205.353C160.724 204.51 163.329 194.865 166.195 192.922C166.86 192.515 167.244 192.451 167.934 192.447Z" fill="#D9C7AB"/>
<path d="M183.551 192.786C181.106 193.309 177.769 189.071 178.077 185.367C177.721 182.009 179.957 177.54 182.101 176.938C184.246 176.337 186.895 180.137 187.904 183.979C189.08 187.92 185.996 192.262 183.551 192.786Z" fill="#D9C7AB"/>
<path d="M171.854 182.259C169.699 183.575 165.15 180.674 164.24 177.056C162.813 173.99 163.488 169 165.331 167.71C167.175 166.421 170.927 169.138 173.134 172.445C175.531 175.789 174.008 180.943 171.854 182.259Z" fill="#D9C7AB"/>
<path d="M159.079 187.389C156.924 188.705 152.376 185.804 151.466 182.186C150.038 179.12 150.713 174.13 152.557 172.84C154.4 171.551 158.153 174.268 160.359 177.575C162.756 180.919 161.234 186.073 159.079 187.389Z" fill="#D9C7AB"/>
<path d="M156.075 202.271C154.337 204.102 149.19 202.483 147.371 199.227C145.195 196.637 144.549 191.643 145.994 189.918C147.439 188.194 151.769 189.842 154.76 192.461C157.944 195.067 157.813 200.44 156.075 202.271Z" fill="#D9C7AB"/>
<path d="M144.265 188.413C144.956 188.051 144.922 187.659 145.956 187.233C146.989 186.807 143.121 182.113 143.17 182.818L143.171 182.837C143.225 183.614 143.581 188.772 144.265 188.413Z" fill="#D9C7AB"/>
<path d="M150.754 170.301C151.507 169.867 152.426 169.09 153.355 169.191C154.284 169.292 151.894 162.57 151.615 163.652C151.335 164.735 150.001 170.735 150.754 170.301Z" fill="#D9C7AB"/>
<path d="M163.315 164.985C163.779 165.171 165.73 164.339 165.916 163.875C166.103 163.411 161.559 159.968 161.836 160.619C162.114 161.269 162.851 164.798 163.315 164.985Z" fill="#D9C7AB"/>
<path d="M109.753 142.436C110.199 142.661 112.214 141.998 112.44 141.552C112.665 141.106 108.432 137.288 108.653 137.959C108.873 138.631 109.306 142.21 109.753 142.436Z" fill="#D9C7AB"/>
<path d="M101.847 162.529C106.414 161.355 109.285 162.339 114.583 165.039C121.16 164.522 123.023 165.865 124.402 169.998C124.289 174.457 123.011 176.224 118.555 178.248C117.162 178.287 116.086 178.537 113.407 179.569C110.716 181.267 109.653 182.449 108.02 184.691C105.055 188.198 100.181 188.014 97.9537 185.769C95.7265 183.524 98.1486 177.654 97.9891 176.825C97.8296 175.996 97.9786 166.006 100.278 163.417C100.823 162.859 101.179 162.702 101.847 162.529Z" fill="#D9C7AB"/>
<path d="M117.066 159.012C114.826 160.121 110.548 156.835 109.934 153.17C108.763 150.003 109.829 145.12 111.759 144.009C113.689 142.898 117.193 145.929 119.117 149.405C121.227 152.934 119.307 157.903 117.066 159.012Z" fill="#D9C7AB"/>
<path d="M103.137 151.689C101.373 153.496 96.2498 151.803 94.4773 148.522C92.3383 145.901 91.7637 140.898 93.233 139.195C94.7023 137.491 99.0084 139.201 101.961 141.862C105.108 144.513 104.901 149.883 103.137 151.689Z" fill="#D9C7AB"/>
<path d="M92.019 159.807C90.2549 161.613 85.1318 159.921 83.3593 156.639C81.2203 154.019 80.6457 149.016 82.115 147.312C83.5843 145.609 87.8904 147.319 90.8435 149.98C93.99 152.631 93.7832 158.001 92.019 159.807Z" fill="#D9C7AB"/>
<path d="M92.772 174.97C91.5382 177.173 86.1514 176.871 83.5865 174.163C80.8397 172.189 78.9841 167.508 79.9598 165.48C80.9356 163.453 85.5382 163.985 89.0817 165.787C92.8093 167.528 94.0059 172.768 92.772 174.97Z" fill="#D9C7AB"/>
<path d="M77.9133 164.447C78.4934 163.926 78.3641 163.554 79.2612 162.887C80.1582 162.22 75.2531 158.623 75.474 159.294L75.4801 159.313C75.7232 160.052 77.3383 164.963 77.9133 164.447Z" fill="#D9C7AB"/>
<path d="M79.7425 145.295C80.3657 144.689 81.0651 143.709 81.9905 143.578C82.9158 143.448 78.944 137.521 78.9395 138.639C78.9351 139.757 79.1193 145.901 79.7425 145.295Z" fill="#D9C7AB"/>
<path d="M90.6077 137.05C91.1033 137.116 92.7893 135.829 92.8557 135.333C92.9221 134.838 87.6702 132.62 88.0994 133.182C88.5285 133.744 90.1121 136.983 90.6077 137.05Z" fill="#D9C7AB"/>
<path d="M115.364 78.8952C115.843 79.0396 117.712 78.0369 117.857 77.5582C118.001 77.0795 113.169 74.0546 113.503 74.6777C113.838 75.3008 114.886 78.7507 115.364 78.8952Z" fill="#D9C7AB"/>
<path d="M111.068 100.056C115.362 98.1062 118.359 98.5775 124.046 100.317C130.433 98.6652 132.501 99.6639 134.577 103.494C135.24 107.906 134.288 109.867 130.252 112.635C128.886 112.916 127.87 113.348 125.411 114.83C123.056 116.969 122.214 118.318 120.996 120.809C118.685 124.778 113.852 125.443 111.269 123.619C108.686 121.795 110.052 115.594 109.751 114.805C109.45 114.016 107.862 104.152 109.677 101.203C110.117 100.559 110.44 100.343 111.068 100.056Z" fill="#D9C7AB"/>
<path d="M125.445 93.9493C123.431 95.4307 118.648 92.938 117.407 89.4346C115.703 86.519 115.905 81.5253 117.613 80.0961C119.321 78.6668 123.298 81.0439 125.796 84.1322C128.487 87.2417 127.459 92.468 125.445 93.9493Z" fill="#D9C7AB"/>
<path d="M110.456 89.1571C109.032 91.2421 103.693 90.4653 101.378 87.5412C98.8161 85.3318 97.3816 80.505 98.5327 78.5719C99.6838 76.6388 104.221 77.5751 107.592 79.6833C111.151 81.7475 111.88 87.0721 110.456 89.1571Z" fill="#D9C7AB"/>
<path d="M100.916 99.082C99.4927 101.167 94.1537 100.39 91.8382 97.4661C89.2767 95.2568 87.8421 90.4299 88.9932 88.4969C90.1443 86.5638 94.682 87.5001 98.0523 89.6083C101.611 91.6725 102.34 96.997 100.916 99.082Z" fill="#D9C7AB"/>
<path d="M104.291 113.884C103.458 116.268 98.1011 116.906 95.1049 114.684C92.057 113.217 89.4167 108.929 90.0256 106.763C90.6345 104.597 95.2595 104.322 99.0621 105.481C103.035 106.549 105.124 111.501 104.291 113.884Z" fill="#D9C7AB"/>
<path d="M87.8308 106.101C88.3116 105.487 88.1197 105.144 88.8872 104.331C89.6548 103.518 84.1995 100.827 84.5338 101.45L84.5429 101.467C84.9108 102.153 87.3541 106.709 87.8308 106.101Z" fill="#D9C7AB"/>
<path d="M86.3064 86.9222C86.8149 86.2173 87.3336 85.1309 88.2222 84.8414C89.1107 84.5519 84.1701 79.4051 84.3599 80.5069C84.5497 81.6087 85.7979 87.6271 86.3064 86.9222Z" fill="#D9C7AB"/>
<path d="M95.5748 76.9154C96.0744 76.8948 97.5112 75.3342 97.4905 74.8346C97.4699 74.335 91.9128 73.0632 92.433 73.5422C92.9531 74.0211 95.0752 76.9361 95.5748 76.9154Z" fill="#D9C7AB"/>
<path d="M41.304 79.0282C41.7803 79.18 43.665 78.2065 43.8169 77.7301C43.9688 77.2537 39.1842 74.1541 39.5088 74.7823C39.8333 75.4106 40.8276 78.8763 41.304 79.0282Z" fill="#D9C7AB"/>
<path d="M36.6793 100.12C41.0028 98.2369 43.9929 98.7547 49.6518 100.582C56.0638 99.0299 58.1161 100.061 60.1321 103.923C60.7269 108.344 59.7444 110.291 55.6657 112.995C54.2956 113.255 53.2728 113.671 50.7916 115.115C48.4034 117.217 47.5404 118.552 46.2836 121.025C43.911 124.957 39.0692 125.547 36.5146 123.683C33.96 121.819 35.4223 115.64 35.1334 114.846C34.8446 114.052 33.4102 104.166 35.2709 101.245C35.7203 100.608 36.0467 100.397 36.6793 100.12Z" fill="#D9C7AB"/>
<path d="M51.1497 94.2371C49.1131 95.687 44.3689 93.1203 43.1823 89.598C41.5244 86.6563 41.8041 81.6664 43.534 80.2639C45.2639 78.8613 49.203 81.2998 51.6532 84.4266C54.2952 87.5776 53.1862 92.7872 51.1497 94.2371Z" fill="#D9C7AB"/>
<path d="M36.2367 89.2126C34.7808 91.2752 29.4545 90.4156 27.1847 87.4559C24.6578 85.207 23.2983 80.3585 24.4793 78.4435C25.6604 76.5285 30.1829 77.5352 33.52 79.6955C37.0466 81.8148 37.6926 87.15 36.2367 89.2126Z" fill="#D9C7AB"/>
<path d="M26.5442 98.9882C25.0883 101.051 19.762 100.191 17.4922 97.2314C14.9653 94.9826 13.6059 90.134 14.7869 88.2191C15.9679 86.3041 20.4904 87.3108 23.8276 89.4711C27.3541 91.5903 28.0001 96.9255 26.5442 98.9882Z" fill="#D9C7AB"/>
<path d="M29.6885 113.841C28.819 116.211 23.4524 116.766 20.4911 114.498C17.4663 112.984 14.893 108.655 15.5354 106.499C16.1779 104.343 20.8066 104.139 24.5907 105.357C28.547 106.487 30.558 111.471 29.6885 113.841Z" fill="#D9C7AB"/>
<path d="M13.3511 105.803C13.8414 105.197 13.6548 104.85 14.435 104.049C15.2151 103.248 9.80224 100.473 10.1268 101.102L10.1356 101.119C10.4928 101.81 12.8651 106.404 13.3511 105.803Z" fill="#D9C7AB"/>
<path d="M12.1248 86.6029C12.6442 85.9059 13.1797 84.8277 14.0727 84.552C14.9657 84.2764 10.1056 79.0535 10.2782 80.1581C10.4509 81.2627 11.6055 87.2998 12.1248 86.6029Z" fill="#D9C7AB"/>
<path d="M21.5475 76.7413C22.0474 76.7284 23.5083 75.1903 23.4954 74.6905C23.4825 74.1906 17.9458 72.8327 18.4585 73.3196C18.9712 73.8066 21.0477 76.7541 21.5475 76.7413Z" fill="#D9C7AB"/>
<path d="M54.5992 7.47764C55.0947 7.54448 56.7817 6.25844 56.8485 5.76293C56.9154 5.26741 51.6653 3.04569 52.094 3.60804C52.5226 4.17038 54.1036 7.4108 54.5992 7.47764Z" fill="#D9C7AB"/>
<path d="M53.7073 29.052C57.6381 26.4468 60.6727 26.4375 66.5629 27.2543C72.608 24.6125 74.8082 25.2711 77.4642 28.7247C78.8177 32.9757 78.1881 35.0631 74.641 38.4344C73.3367 38.9281 72.4018 39.5157 70.209 41.3683C68.2222 43.8535 67.6041 45.3184 66.7957 47.9713C65.1421 52.2563 60.4763 53.6778 57.6368 52.2858C54.7974 50.8938 55.1643 44.5543 54.7421 43.8229C54.3199 43.0915 51.1904 33.6039 52.5157 30.4049C52.8476 29.6992 53.1324 29.4343 53.7073 29.052Z" fill="#D9C7AB"/>
<path d="M66.9363 20.7458C65.1824 22.5274 60.0646 20.8235 58.2844 17.5607C56.1408 14.9516 55.5498 9.98899 57.0099 8.30733C58.47 6.62568 62.7727 8.34315 65.7286 10.9969C68.8776 13.6412 68.6902 18.9643 66.9363 20.7458Z" fill="#D9C7AB"/>
<path d="M51.3774 18.3873C50.3018 20.6714 44.9071 20.7497 42.1579 18.2291C39.2788 16.4532 37.0981 11.9144 37.9286 9.82342C38.7592 7.73247 43.3878 7.9385 47.0494 9.48648C50.8904 10.9612 52.453 16.1031 51.3774 18.3873Z" fill="#D9C7AB"/>
<path d="M43.5297 29.6974C42.4541 31.9815 37.0594 32.0599 34.3101 29.5392C31.4311 27.7633 29.2504 23.2245 30.0809 21.1336C30.9114 19.0426 35.5401 19.2486 39.2017 20.7966C43.0427 22.2713 44.6053 27.4133 43.5297 29.6974Z" fill="#D9C7AB"/>
<path d="M49.2053 43.7785C48.7606 46.2637 43.5719 47.7421 40.2618 46.023C37.02 45.0567 33.7341 41.2411 33.9924 39.0061C34.2507 36.7711 38.7737 35.7665 42.7119 36.3092C46.8042 36.7344 49.6501 41.2932 49.2053 43.7785Z" fill="#D9C7AB"/>
<path d="M31.7204 38.6996C32.098 38.0177 31.8541 37.7086 32.4832 36.7844C33.1124 35.8602 27.2999 34.0672 27.7286 34.6295L27.7404 34.6449C28.2122 35.264 31.346 39.3757 31.7204 38.6996Z" fill="#D9C7AB"/>
<path d="M27.1787 20.0041C27.5691 19.2276 27.9093 18.0728 28.7408 17.6463C29.5724 17.2197 23.8791 12.9201 24.241 13.978C24.6028 15.0358 26.7882 20.7807 27.1787 20.0041Z" fill="#D9C7AB"/>
<path d="M34.7458 8.65615C35.2358 8.55669 36.4074 6.78827 36.3079 6.29827C36.2085 5.80826 30.52 5.43235 31.1095 5.8229C31.699 6.21344 34.2558 8.75562 34.7458 8.65615Z" fill="#D9C7AB"/>
</svg>
