<svg width="430" height="402" viewBox="0 0 430 402" fill="none" xmlns="http://www.w3.org/2000/svg">
<path d="M206.337 273.769L214.212 274.556C219.959 275.599 225.528 277.454 230.752 280.063L252.098 290.724C252.561 290.956 253.072 291.076 253.59 291.076C254.089 291.076 254.562 291.298 254.882 291.681L259.83 297.612C261.414 299.511 263.495 300.93 265.841 301.711C266.598 301.963 267.375 302.147 268.164 302.259L269.734 302.483C271.568 302.745 273.375 303.171 275.133 303.756L277.216 304.45L282.729 306.023L288.242 308.384L289.893 309.374C291.415 310.286 292.864 311.314 294.228 312.449L295.015 313.104C296.272 314.15 297.42 315.32 298.442 316.596C299.514 317.935 300.442 319.384 301.21 320.918L301.739 321.976C302.191 322.878 302.578 323.811 302.897 324.768L303.837 327.585C303.94 327.894 303.993 328.217 303.993 328.542V329.437C303.993 330.034 303.655 330.579 303.121 330.846L302.789 331.012C302.555 331.129 302.28 331.129 302.046 331.012C301.493 330.736 300.842 331.138 300.842 331.756V332.184C300.842 332.551 301.026 332.893 301.331 333.096L304.831 335.427C305.321 335.753 305.778 336.127 306.194 336.544L309.505 339.851L313.443 344.571L316.593 348.505L319.744 352.438L322.894 357.159L326.044 362.665L329.194 368.172L331.557 373.679L333.132 379.186L334.707 385.479C335.229 389.132 335.229 392.84 334.707 396.493L334.055 399.098C333.965 399.458 333.836 399.807 333.669 400.139L333.199 401.079C333.155 401.167 333.132 401.265 333.132 401.364C333.132 401.715 333.417 402 333.768 402H334.406C334.604 402 334.799 401.954 334.976 401.866L341.007 398.853L344.583 397.067C346.396 396.162 348.123 395.095 349.745 393.881C352.307 391.961 354.584 389.687 356.506 387.126L358.333 384.693L363.846 377.613L366.08 374.042C367.204 372.246 367.939 370.236 368.239 368.14L368.319 367.578C368.486 366.408 368.472 365.219 368.278 364.053C367.954 362.111 367.138 360.285 365.908 358.749L358.333 349.292L352.821 340.638L352.481 339.96C351.181 337.362 348.946 335.351 346.225 334.332C344.859 333.82 343.603 333.054 342.523 332.074L339.175 329.033C336.734 326.816 334.617 324.266 332.887 321.458L329.194 315.464L319.126 297.505C318.492 296.373 318.039 295.149 317.784 293.876L317.243 291.176C316.833 289.128 315.5 287.384 313.631 286.45L313.535 286.402C312.446 285.858 311.535 285.015 310.909 283.972L308.969 280.743C308.002 279.133 305.839 278.745 304.372 279.917C303.635 280.506 302.669 280.728 301.748 280.519L285.879 276.916L279.507 275.501C279.034 275.396 278.584 275.205 278.181 274.936C277.086 274.207 276.429 272.979 276.429 271.664V270.659C276.429 269.605 276.715 268.572 277.258 267.669L278.065 266.325C278.547 265.522 279.127 264.781 279.79 264.118L282.248 261.662C284.659 259.254 287.37 257.167 290.313 255.451L295.33 252.528C296.901 251.482 298.566 250.581 300.302 249.838L303.205 248.595L306.355 247.022L312.656 244.661C314.696 244.152 316.848 244.348 318.762 245.217L321.785 246.59C323.533 247.383 324.998 248.689 325.987 250.335C326.546 251.266 326.94 252.286 327.154 253.351L327.619 255.675L329.194 260.395L329.361 261.06C329.767 262.684 330.607 264.167 331.792 265.35C332.676 266.233 333.73 266.928 334.891 267.392L335.995 267.833C336.71 268.119 337.449 268.338 338.204 268.489C340.049 268.858 341.789 269.635 343.295 270.763L343.406 270.846C343.906 271.221 344.38 271.631 344.822 272.073L346.52 273.769L347.53 274.778C347.902 275.149 348.355 275.429 348.853 275.595C349.863 275.931 350.656 276.723 350.993 277.732C351.159 278.23 351.439 278.682 351.81 279.053L352.821 280.063L355.405 282.128C356.302 282.845 357.083 283.695 357.72 284.65L358.095 285.212C358.254 285.45 358.435 285.671 358.637 285.873L359.199 286.435C359.653 286.888 359.908 287.503 359.908 288.145C359.908 288.521 359.996 288.891 360.164 289.227L360.386 289.671C360.591 290.081 360.861 290.455 361.185 290.778C361.384 290.977 361.601 291.155 361.834 291.31L363.071 292.134C363.579 292.472 363.99 292.937 364.263 293.482L364.378 293.712C364.546 294.048 364.634 294.419 364.634 294.794C364.634 295.436 364.889 296.051 365.343 296.505L366.209 297.37L366.996 298.157L367.784 298.943L368.571 299.73C369.006 300.164 369.006 300.869 368.571 301.303L368.341 301.533C368.136 301.739 368.281 302.09 368.571 302.09H369.359C369.793 302.09 370.147 301.738 370.147 301.303C370.147 300.782 370.062 300.265 369.898 299.77L369.488 298.543C369.402 298.286 369.298 298.035 369.177 297.793L368.623 296.686C368.589 296.618 368.571 296.544 368.571 296.469C368.571 296.138 368.895 295.904 369.209 296.009L370.591 296.469C370.816 296.544 371.022 296.671 371.19 296.839L372.509 298.157L372.74 298.387C373.096 298.743 373.58 298.943 374.084 298.943H374.316C374.672 298.943 375.013 298.802 375.265 298.55L375.436 298.38C375.579 298.237 375.659 298.043 375.659 297.841C375.659 297.552 375.496 297.288 375.238 297.159L374.084 296.583L371.722 295.01L369.543 293.922C367.868 293.085 366.411 291.87 365.287 290.373L365.217 290.28C364.829 289.763 364.488 289.212 364.199 288.633L363.521 287.281C363.217 286.673 363.059 286.002 363.059 285.322C363.059 284.458 362.802 283.612 362.322 282.893L361.871 282.217C361.613 281.831 361.318 281.471 360.989 281.142L359.908 280.063L358.791 278.946C357.966 278.122 357.28 277.171 356.758 276.129L356.469 275.552C356.139 274.892 355.705 274.29 355.183 273.769L355.018 273.605C354.606 273.192 354.13 272.85 353.608 272.589C353.086 272.328 352.61 271.986 352.198 271.574L351.245 270.622L350.621 269.999C350.517 269.894 350.458 269.753 350.458 269.605C350.458 269.298 350.707 269.049 351.014 269.049H351.245H351.985C353.063 269.049 354.137 269.181 355.183 269.442L356.096 269.67C356.536 269.78 356.988 269.836 357.441 269.836C358.536 269.836 359.607 269.512 360.519 268.905L360.624 268.835C361.193 268.456 361.823 268.178 362.486 268.012L363.325 267.802C364.194 267.585 365.087 267.476 365.982 267.476H368.571H369.961C371.637 267.476 373.289 267.865 374.788 268.614C375.368 268.903 375.92 269.244 376.439 269.633L376.936 270.006C378.18 270.937 379.54 271.701 380.983 272.277L386.685 274.556L388.145 275.042C388.744 275.241 389.314 275.52 389.839 275.87L390.501 276.311C391.097 276.707 391.579 277.252 391.899 277.892L392.058 278.209C392.15 278.395 392.273 278.564 392.419 278.711L392.822 279.113C392.927 279.217 392.985 279.359 392.985 279.506C392.985 279.814 393.234 280.063 393.542 280.063H394.56C394.995 280.063 395.348 279.71 395.348 279.276C395.348 278.269 394.948 277.303 394.235 276.591L392.985 275.342L392.198 274.556L392.081 274.439C391.68 274.039 391.581 273.428 391.835 272.921C392.057 272.477 392.512 272.196 393.009 272.196H394.693C395.127 272.196 395.558 272.266 395.969 272.403L396.244 272.494C397.205 272.814 398.233 272.878 399.226 272.68L401.44 272.237C401.578 272.21 401.72 272.196 401.861 272.196H402.899C403.513 272.196 404.011 271.698 404.011 271.083C404.011 270.788 404.128 270.505 404.337 270.296L404.513 270.121C404.701 269.933 404.93 269.792 405.182 269.708L406.953 269.118C407.091 269.072 407.235 269.049 407.381 269.049H407.464C408.166 269.049 408.736 268.479 408.736 267.776C408.736 267.578 408.69 267.383 408.602 267.207L408.575 267.154C408.221 266.446 407.384 266.128 406.649 266.422L404.011 267.476L403.176 267.892C401.653 268.653 399.975 269.049 398.273 269.049H397.946C397.267 269.049 396.59 268.966 395.931 268.801L395.813 268.772C394.476 268.438 393.076 268.461 391.751 268.839L390.99 269.057C389.258 269.551 387.396 269.26 385.897 268.262C383.806 266.696 381.518 265.411 379.092 264.442L378.81 264.329L374.505 262.895C374.226 262.803 373.935 262.755 373.641 262.755H373.065C372.709 262.755 372.368 262.614 372.116 262.362C371.863 262.11 371.722 261.768 371.722 261.412V261.337C371.722 260.76 372.048 260.232 372.564 259.974L375.142 258.687C376 258.258 376.946 258.035 377.905 258.035H380.429C380.922 258.035 381.414 257.975 381.893 257.855C383.449 257.467 384.786 256.477 385.611 255.102L385.934 254.565C386.43 253.739 387.081 253.018 387.852 252.441C389.139 251.476 390.705 250.955 392.314 250.955H393.773H394.709C395.129 250.955 395.544 250.857 395.92 250.669L396.029 250.615C396.602 250.329 397.264 250.282 397.871 250.484L398.799 250.793C399.097 250.892 399.426 250.815 399.649 250.592C399.902 250.339 399.965 249.952 399.805 249.632L399.617 249.257C399.409 248.842 399.012 248.556 398.553 248.49L393.773 247.808L393.249 247.704C391.052 247.265 388.771 247.66 386.849 248.811C386.217 249.19 385.634 249.645 385.113 250.166L384.772 250.506C384.473 250.804 384.204 251.132 383.969 251.484L383.872 251.629C383.143 252.722 382.071 253.54 380.824 253.955C380.532 254.053 380.232 254.127 379.928 254.178L376.436 254.759C375.919 254.845 375.396 254.888 374.872 254.888C372.317 254.888 369.829 255.717 367.784 257.249C364.657 259.331 361.209 260.936 357.51 261.592C356.263 261.813 355.123 261.969 354.396 261.969C352.033 261.969 352.821 261.969 352.033 261.182C351.245 260.395 347.308 261.182 346.52 260.395C344.966 258.843 342.306 259.264 340.14 258.904C339.835 258.853 339.585 258.822 339.432 258.822C338.802 258.822 338.645 257.773 338.645 257.249V254.102C338.645 253.315 337.857 252.528 337.857 251.742C337.857 251.436 337.733 250.871 337.576 250.28C337.274 249.148 336.806 248.069 336.282 247.022L334.707 243.875L333.661 241.786C332.818 240.101 332.036 236.795 333.919 236.795C334.707 236.795 338.645 236.008 340.22 235.221C341.795 234.434 343.37 235.221 344.158 234.434C344.945 233.648 348.883 233.648 348.883 232.861C348.883 232.567 349.568 232.262 350.46 231.994C352.502 231.379 354.547 230.725 356.377 229.628C357.155 229.162 357.966 228.753 358.82 228.447C360.255 227.934 362.122 227.354 363.059 227.354C363.591 227.354 364.236 227.261 364.863 227.133C366.296 226.84 367.593 226.12 368.763 225.244C369.682 224.556 370.51 223.754 371.227 222.858L373.937 219.475C375.59 217.41 379.597 216.626 379.597 213.98C379.597 213.351 381.697 212.145 382.747 211.62C384.06 211.096 386.842 209.89 387.473 209.26C388.103 208.631 390.36 207.949 391.41 207.687L395.18 207.149C396.335 206.984 397.455 206.635 398.498 206.113C399.541 205.592 400.662 205.243 401.816 205.078L404.49 204.697C405.216 204.593 405.954 204.601 406.678 204.722L409.703 205.226C410.085 205.289 410.474 205.165 410.747 204.891C410.972 204.666 411.099 204.358 411.099 204.039C411.099 203.429 410.65 202.903 410.045 202.816L405.934 202.23C405.708 202.197 405.499 202.093 405.337 201.932C405.016 201.61 404.936 201.119 405.139 200.712L405.374 200.243C405.513 199.966 405.722 199.73 405.98 199.558L407.949 198.247L411.886 195.886L416.612 193.526C417.662 193.002 420.234 191.796 422.125 191.166C424.487 190.38 424.487 190.38 426.062 189.593C427.592 188.829 427.499 186.369 428.525 185.001L429.004 184.364C429.141 184.181 429.232 183.969 429.27 183.744L429.704 181.139C429.796 180.586 429.212 180.379 429.212 180.939C429.212 181.726 428.425 181.726 427.637 182.513C426.85 183.299 426.85 184.086 426.062 184.873L423.7 187.233C422.912 188.02 421.337 188.02 419.762 188.806C418.187 189.593 418.974 188.806 417.399 188.806C415.727 188.806 414.21 189.868 412.623 190.396L411.811 190.667C410.814 190.999 409.857 191.439 408.956 191.979L406.374 193.526L401.648 195.886C399.072 197.431 396.124 198.247 393.12 198.247H392.985H392.523C391.908 198.247 391.41 197.749 391.41 197.134C391.41 196.839 391.529 196.557 391.72 196.332C392.052 195.943 392.532 195.314 392.985 194.537C393.773 193.188 392.985 191.166 392.985 190.38V186.446V182.513C392.985 180.153 392.198 180.939 391.41 179.366L389.835 176.219L388.595 173.328C387.853 171.6 386.739 170.034 385.897 168.352C385.11 166.779 385.11 164.419 385.897 162.845C386.685 161.272 387.473 160.485 388.26 160.485C389.048 160.485 391.41 158.125 392.985 156.38C393.933 155.329 394.346 154.408 394.493 153.841C394.566 153.557 394.597 153.261 394.668 152.976L394.677 152.938C395.072 151.363 396.487 150.258 398.11 150.258H399.103C400.509 150.258 401.648 149.119 401.648 147.713C401.648 147.317 401.741 146.927 401.918 146.574L402.302 145.806C402.9 144.611 403.87 143.642 405.066 143.045L405.533 142.811C406.09 142.533 406.598 142.167 407.038 141.728L407.673 141.094C408.354 140.413 408.736 139.491 408.736 138.528C408.736 137.965 408.605 137.409 408.353 136.905L407.123 134.449C406.625 133.453 406.246 132.404 405.928 131.336C405.609 130.261 405.193 129.02 404.799 128.231C403.832 126.3 403.56 124.067 402.873 122.021C402.62 121.268 402.436 120.628 402.436 120.364C402.436 119.577 400.861 117.217 400.861 116.431C400.861 114.277 400.073 112.186 400.073 110.033V105.417C400.073 104.63 399.916 102.984 399.286 102.695C398.498 102.334 399.286 99.1233 399.286 97.5499C399.286 95.9765 400.073 95.1898 400.073 93.6164C400.073 92.0431 400.861 92.0431 400.861 91.2564C400.861 90.4697 400.073 86.5362 400.073 84.9628C400.073 84.2244 399.002 83.3552 398.712 82.6761C398.414 81.977 398.055 81.2484 397.711 80.8083C397.554 80.6076 397.459 80.43 397.408 80.2749C397.228 79.7183 397.711 79.078 397.711 78.493V78.4392C397.711 78.0828 397.852 77.7411 398.104 77.4892C398.357 77.2374 398.498 76.8957 398.498 76.5393V76.5215C398.498 75.925 398.116 75.3954 397.55 75.2069L396.997 75.0227C396.445 74.839 395.846 74.8891 395.307 75.1066C394.774 75.3218 394.163 75.5225 393.773 75.5225C393.143 75.5225 392.985 77.0959 392.985 77.8826V89.1613C392.985 90.2252 391.687 90.4697 390.623 90.4697C390.378 90.4697 390.124 90.2315 389.891 89.8941C389.151 88.8235 388.568 87.6307 387.647 86.7109C387.01 86.0741 386.479 85.3388 386.076 84.5331L385.897 84.1761L385.32 83.3115C384.657 82.317 383.535 81.4383 383.535 80.2427V77.8826C383.535 77.0959 384.322 75.5225 384.322 74.7358C384.322 73.9491 385.897 72.3757 385.897 71.589C385.897 70.8023 387.473 70.0157 387.473 69.229C387.473 68.4423 388.26 67.6556 389.048 66.8689C389.188 66.7292 389.33 66.5351 389.47 66.3092C390.461 64.7081 391.152 62.9284 392.198 61.362L393.166 59.911C393.564 59.3153 394.11 58.8336 394.751 58.5136C395.146 58.316 395.512 58.0597 395.804 57.7275C396.323 57.1361 396.923 56.3309 396.923 55.8552C396.923 55.0412 398.072 54.8278 398.75 54.3766L399.61 53.8036C399.918 53.5984 400.205 53.3633 400.467 53.1018C400.729 52.8402 401.016 52.6051 401.324 52.3999L402.67 51.5037C403.031 51.2633 403.455 51.135 403.889 51.135H404.543C404.707 51.135 404.864 51.0701 404.979 50.9544C405.278 50.6564 405.195 50.156 404.804 49.9965C404.26 49.7743 403.625 49.5616 403.223 49.5616H402.436H400.073C399.605 49.5616 399.108 50.1404 398.776 50.653C398.575 50.9625 398.365 51.2679 398.104 51.5285C397.844 51.7889 397.543 52.0057 397.213 52.1703L396.136 52.7084L394.816 53.3674C394.648 53.4514 394.463 53.4951 394.275 53.4951H394.099C393.89 53.4951 393.69 53.578 393.542 53.7256C393.235 54.0329 392.736 54.0329 392.429 53.7256L392.198 53.4951C391.694 52.9914 391.41 52.308 391.41 51.5953V51.578C391.41 51.2846 391.458 50.9931 391.55 50.7148L391.958 49.4936C392.118 49.0151 392.311 48.5486 392.537 48.0975L393.773 45.6282L397.711 38.5479L398.498 36.9746L398.581 36.8081C399.045 35.8829 399.286 34.8625 399.286 33.8278V31.4677V31.289C399.286 30.4343 399.769 29.653 400.533 29.2711C400.75 29.1628 400.948 29.0203 401.12 28.849L401.648 28.3209C402.036 27.9341 401.93 27.2814 401.44 27.0369L401.222 26.9281C400.991 26.8125 400.723 26.7935 400.477 26.8752L399.68 27.1407C398.923 27.3927 398.298 27.9349 397.941 28.6482L397.154 30.2198C397 30.5269 396.869 30.8445 396.76 31.1702L395.348 35.4012L394.859 37.8431C394.662 38.8279 394.274 39.7645 393.716 40.5999C393.232 41.3245 392.626 41.9639 391.929 42.4862C390.574 43.5009 389.583 44.9356 389.118 46.5626L388.26 49.5616C387.736 52.1784 386.973 54.7417 385.981 57.2192L385.897 57.4286L385.537 58.8685C385.253 60.003 384.846 61.103 384.322 62.1487L383.675 63.4417C383.582 63.6274 383.46 63.7969 383.313 63.9437L383.304 63.9522C382.948 64.3086 382.464 64.5088 381.96 64.5088C381.477 64.5088 381.036 64.2362 380.82 63.8046L380.466 63.0979C380.412 62.9897 380.365 62.8778 380.327 62.7631L379.597 60.5753L379.033 58.3214C378.885 57.7284 378.81 57.1195 378.81 56.5082C378.81 55.5572 378.628 54.6148 378.274 53.7319L377.787 52.515C377.42 51.5975 376.958 50.7206 376.409 49.8986L375.659 48.7749L373.297 45.6282L370.147 41.6947L369.46 40.7808C368.357 39.3109 367.597 37.6124 367.236 35.8101C367.077 35.015 366.996 34.2061 366.996 33.3952V31.4677C366.996 29.9157 366.635 28.385 365.94 26.9972L365.921 26.9596C365.589 26.2958 365.33 25.5964 365.15 24.8762C364.81 23.5176 364.753 22.1011 364.983 20.7196L365.212 19.3464C365.351 18.5128 365.421 17.6692 365.421 16.8242C365.421 16.0982 365.37 15.3732 365.267 14.6545L365.035 13.0358C364.771 11.1868 364.095 9.42055 363.059 7.86693L362.271 6.29354L361.739 5.23099C361.571 4.89506 361.484 4.52457 361.484 4.14891C361.484 3.50729 361.739 2.89199 362.193 2.43854L362.271 2.36008L362.835 1.79652C362.978 1.65366 363.059 1.4598 363.059 1.25765C363.059 0.969038 362.895 0.705216 362.637 0.576255L362.187 0.351515C361.744 0.130206 361.223 0.130206 360.78 0.351515L360.539 0.471811C360.13 0.676204 359.798 1.00781 359.593 1.41687L359.133 2.33486C358.621 3.35835 358.537 4.54353 358.899 5.62922L358.911 5.66324C359.05 6.08071 359.121 6.51792 359.121 6.95801V7.23537C359.121 8.14341 359.482 9.0142 360.124 9.65593C360.5 10.0315 360.784 10.4894 360.952 10.9935L361.163 11.6253C361.375 12.2623 361.484 12.9294 361.484 13.601V15.7339V20.1275C361.484 20.8402 361.2 21.5237 360.696 22.0274C360.261 22.462 359.556 22.462 359.121 22.0274L358.333 21.2407C357.294 20.2026 356.477 18.9642 355.931 17.6006L354.534 14.1121C353.947 12.646 352.744 11.5126 351.245 11.0137L347.011 9.60391C346.7 9.50006 346.358 9.53754 346.076 9.70653L344.609 10.5858C344.04 10.9268 344.282 11.8004 344.945 11.8004H345.944C346.847 11.8004 347.745 11.9459 348.602 12.2313L348.915 12.3355C349.416 12.5025 349.893 12.7355 350.333 13.0285C351.435 13.7621 352.26 14.8422 352.679 16.0977L353.608 18.8806L353.946 20.5675C354.234 22.0059 355.082 23.2709 356.303 24.0841C356.606 24.2858 356.888 24.5171 357.146 24.7743L357.46 25.0887C358.04 25.6679 358.547 26.3162 358.969 27.0188L360.696 29.8943L360.961 30.2914C361.815 31.5713 362.271 33.0756 362.271 34.6145V36.9746C362.271 37.409 361.918 37.7613 361.484 37.7613C360.456 37.7613 359.452 37.4575 358.597 36.8882L356.537 35.5162C355.639 34.9177 354.664 34.4416 353.64 34.1005L353.09 33.9174C352.91 33.8577 352.736 33.7854 352.567 33.701C351.714 33.2751 350.737 33.168 349.813 33.3989L348.095 33.8278C347.661 33.9725 347.765 34.6145 348.223 34.6145H348.883H349.301C350.062 34.6145 350.812 34.7915 351.493 35.1314C351.852 35.3106 352.187 35.533 352.492 35.7938L357.546 40.1213L359.54 41.4494C359.78 41.6094 360.062 41.6947 360.351 41.6947C360.578 41.6947 360.802 41.7475 361.005 41.8489L361.732 42.2121C362.089 42.3905 362.415 42.6252 362.697 42.9073C362.937 43.1467 363.143 43.4178 363.309 43.7129L370.147 55.8552L372.509 60.5753L373.754 63.4757C374.496 65.2071 375.029 67.0214 375.339 68.8798C375.552 70.1593 375.659 71.4543 375.659 72.7515V73.1624V74.2785C375.659 75.1024 375.526 75.921 375.266 76.7025C375.005 77.4841 374.872 78.3027 374.872 79.1266V80.1192C374.872 81.2462 375.01 82.3689 375.284 83.4621L375.659 84.9628C376.183 87.0544 376.934 89.0823 377.899 91.0103L378.022 91.2564L381.172 95.9765L381.96 97.5499L381.99 97.5959C383.013 99.1274 384.288 100.474 385.761 101.578C386.376 102.039 386.958 102.543 387.501 103.086L388.553 104.136C388.882 104.465 389.178 104.825 389.436 105.211L390.002 106.06C390.407 106.666 390.623 107.379 390.623 108.109C390.623 108.411 390.586 108.712 390.512 109.005L389.971 111.169C389.881 111.529 389.751 111.878 389.585 112.21C389.232 112.916 389.048 113.695 389.048 114.485V114.835C389.048 115.372 389.114 115.907 389.244 116.429L389.835 118.791L390.623 121.151L391.41 123.511L392.198 126.658L392.45 127.667C392.803 129.077 392.862 130.544 392.623 131.977C392.344 133.651 391.666 135.233 390.647 136.589L389.835 137.671L387.318 140.814C386.901 141.335 386.376 141.759 385.779 142.057L385.39 142.251C385.205 142.344 385.035 142.466 384.888 142.613C384.526 142.975 384.019 143.167 383.556 143.387C383.302 143.508 383.02 143.692 382.747 143.965C382.318 144.393 382.108 144.116 382.018 143.731C381.937 143.384 381.818 143.037 381.566 142.785C381.314 142.533 381.172 142.191 381.172 141.835V141.084C381.172 140.401 380.95 139.736 380.54 139.19L379.611 137.952C379.081 137.246 378.431 136.638 377.71 136.128C376.934 135.579 376.067 134.931 375.659 134.524C374.476 133.342 372.517 133.349 371.02 132.601L370.147 132.164L365.254 129.721C364.391 129.29 363.846 128.408 363.846 127.444V125.084C363.846 123.042 363.183 121.054 361.957 119.421L361.904 119.351C361.624 118.978 361.371 118.585 361.148 118.176L357.549 111.586C357.026 110.627 356.666 109.587 356.487 108.509L356.336 107.604C356.098 106.181 355.422 104.869 354.402 103.85C353.876 103.325 353.438 102.718 353.106 102.053L352.821 101.483L352.455 100.753C352.196 100.236 351.668 99.91 351.09 99.91C350.685 99.91 350.297 99.7493 350.011 99.4634L349.67 99.1233L349.439 98.8926C349.132 98.5854 348.634 98.5854 348.326 98.8926C348.178 99.0403 348.095 99.2407 348.095 99.4497V99.5492C348.095 99.7827 348.175 100.009 348.321 100.192L351.245 103.843L352.196 105.268C352.611 105.889 352.94 106.562 353.177 107.27L353.405 107.956C353.54 108.358 353.608 108.78 353.608 109.205V109.628C353.608 109.963 353.53 110.293 353.38 110.592C353.034 111.283 353.086 112.107 353.515 112.751L354.396 114.07L359.121 121.937L359.556 122.807C359.788 123.27 359.908 123.78 359.908 124.297C359.908 124.732 359.555 125.084 359.121 125.084C358.601 125.084 358.085 124.985 357.602 124.792L356.789 124.467C355.227 123.843 353.882 122.777 352.917 121.4L348.883 115.644C347.857 114.107 346.389 112.917 344.673 112.231L343.37 111.71L341.843 111.202C341.286 111.017 340.744 110.792 340.22 110.53L340.111 110.476C339.659 110.25 339.192 110.057 338.713 109.897L338.095 109.692C337.416 109.466 336.705 109.35 335.989 109.35C335.142 109.35 334.303 109.189 333.516 108.875L332.232 108.361C331.266 107.975 330.235 107.777 329.194 107.777C328.759 107.777 328.407 108.13 328.407 108.564V108.889C328.407 109.184 328.524 109.468 328.733 109.676L328.908 109.852C329.096 110.039 329.325 110.181 329.577 110.265L330.644 110.62C331.248 110.821 331.882 110.924 332.519 110.924H333.19C333.67 110.924 334.143 111.035 334.572 111.25L334.997 111.462C335.32 111.623 335.582 111.885 335.743 112.208L335.965 112.651C336.154 113.029 336.08 113.485 335.782 113.784C335.598 113.967 335.349 114.07 335.089 114.07H334.993C334.805 114.07 334.619 114.027 334.451 113.943L333.266 113.351C333.178 113.307 333.08 113.284 332.982 113.284H332.83C332.562 113.284 332.344 113.501 332.344 113.77C332.344 113.954 332.448 114.122 332.613 114.205L333.682 114.739C333.84 114.817 334.006 114.879 334.177 114.921L342.846 117.086C343.194 117.173 343.551 117.217 343.91 117.217H344.216C344.695 117.217 345.168 117.329 345.598 117.543C346.196 117.842 346.682 118.327 346.982 118.926L347.095 119.153C347.236 119.435 347.412 119.698 347.617 119.938L352.033 125.084L352.264 125.315C352.62 125.671 352.821 126.154 352.821 126.658C352.821 127.075 352.454 127.399 352.04 127.347L347.848 126.823C346.982 126.715 346.104 126.866 345.323 127.255L345.245 127.295C345.045 127.394 344.839 127.48 344.627 127.55L343.572 127.901C342.917 128.12 342.23 128.231 341.539 128.231C340.669 128.231 339.807 128.408 339.007 128.75L334.83 130.538C334.749 130.573 334.661 130.591 334.573 130.591C334.212 130.591 333.919 130.884 333.919 131.245V131.378V131.548C333.919 132.323 334.547 132.951 335.322 132.951C335.437 132.951 335.551 132.937 335.662 132.909L338.645 132.164L341.007 131.378C342.572 130.857 344.211 130.591 345.86 130.591H347.308H349.67H353.608C354.644 130.591 355.666 130.832 356.592 131.295L356.758 131.378C357.794 131.895 358.695 132.646 359.39 133.572L360.149 134.583C360.513 135.068 360.911 135.526 361.34 135.955L362.271 136.885L363.846 138.458L365.421 140.031C366.469 141.078 367.617 142.018 368.849 142.839L369.359 143.178L370.316 143.815C371.227 144.422 371.91 145.315 372.256 146.353C372.424 146.856 372.509 147.381 372.509 147.911V148.073C372.509 148.993 372.295 149.9 371.883 150.722L371.722 151.045L370.147 153.405L369.014 155.667C368.72 156.255 368.491 156.874 368.331 157.512C367.972 158.948 367.972 160.45 368.331 161.885L368.571 162.845L369.359 166.779L370.147 169.926L372.509 176.219L372.786 177.188C373.647 180.199 374.084 183.315 374.084 186.446V187.104C374.084 188.753 373.818 190.39 373.297 191.954C372.775 193.516 372.005 194.985 371.016 196.302L370.866 196.502C370.387 197.14 369.863 197.743 369.299 198.307L366.996 200.607L363.059 203.753C359.928 206.359 356.407 208.457 352.624 209.968L350.458 210.834L343.37 213.194L337.07 215.554L324.469 219.487L323.777 219.718C322.707 220.074 321.54 219.991 320.531 219.487C319.535 218.99 318.367 218.968 317.353 219.428L301.63 226.568L300.506 226.999C294.446 229.327 288.644 232.277 283.192 235.801L278.004 239.155L259.89 253.315L259.103 254.102L258.315 254.888C257.814 255.388 257.123 255.648 256.417 255.601L222.088 253.315L200.037 251.742L189.706 249.678C188.72 249.481 187.756 249.187 186.827 248.801L180.851 246.313C179.563 245.777 178.088 245.961 176.972 246.798C176.11 247.443 175.022 247.708 173.96 247.531L169.433 246.778C167.286 246.42 165.086 246.545 162.993 247.142L162.468 247.292C161.268 247.634 160.026 247.808 158.778 247.808C156.4 247.808 154.064 247.177 152.009 245.98L148.581 243.983C146.666 242.866 144.902 241.508 143.333 239.941L143.214 239.822C141.212 237.822 138.846 236.222 136.245 235.108C135.197 234.66 134.185 234.131 133.218 233.527L128.37 230.501C125.482 228.665 119.392 224.994 118.132 224.994C117.754 224.994 117.273 224.759 116.757 224.394C114.2 222.59 111.999 220.28 109.264 218.762C107.31 217.677 105.517 216.326 103.936 214.747L98.4432 209.26L91.3553 203.753L86.63 199.82L81.1172 195.886C78.5545 194.351 76.5278 192.062 75.3133 189.332L74.0293 186.446L73.3153 183.95C72.744 181.953 72.4542 179.885 72.4542 177.808C72.4542 176.75 72.379 175.694 72.2292 174.646L71.6667 170.712L70.8791 167.566L70.5491 166.577C69.7245 164.105 69.304 161.517 69.304 158.912V154.192V143.965V140.679C69.304 138.683 69.5705 136.695 70.0963 134.769L71.0258 131.365C71.4458 129.827 72.26 128.425 73.388 127.298C73.8145 126.872 74.282 126.489 74.7838 126.155L75.2106 125.871C75.9962 125.348 76.7553 124.768 77.3234 124.015C77.6758 123.547 77.967 123.056 77.967 122.724C77.967 121.944 79.0146 121.548 79.4475 120.899L80.0836 119.946C80.2472 119.701 80.4347 119.472 80.6433 119.264L81.981 117.928C82.4503 117.459 82.8195 116.9 83.066 116.284L84.1339 113.617C84.2149 113.415 84.1674 113.184 84.0133 113.03C83.7508 112.768 83.3084 112.839 83.1423 113.171L82.845 113.765C82.7459 113.963 82.5852 114.124 82.3871 114.223L81.6328 114.6C81.2913 114.77 80.9795 114.995 80.7094 115.264L79.5421 116.431L77.967 118.004L77.3957 118.575C76.7281 119.241 76.1281 119.973 75.6044 120.757L74.9362 121.759C74.8568 121.877 74.7659 121.988 74.6648 122.089C74.2579 122.496 73.7062 122.724 73.1311 122.724H72.4542C71.9839 122.724 71.5663 122.423 71.4174 121.977L70.8791 120.364L70.0916 118.004L68.6474 112.234C68.5605 111.886 68.5165 111.529 68.5165 111.171C68.5165 110.491 68.675 109.82 68.9793 109.212L69.1638 108.844C69.2567 108.658 69.3788 108.489 69.5256 108.342L69.535 108.333C69.8913 107.977 70.0916 107.494 70.0916 106.99V106.39C70.0916 105.853 69.6557 105.417 69.1179 105.417C68.7493 105.417 68.4123 105.625 68.2473 105.955L67.8102 106.828C67.7561 106.936 67.7097 107.048 67.6714 107.163L65.627 113.289C65.4543 113.807 65.3663 114.349 65.3663 114.894C65.3663 115.896 65.6631 116.875 66.2192 117.709L66.3683 117.932C66.7475 118.5 67.0262 119.129 67.192 119.792L67.5934 121.396C67.6835 121.756 67.8127 122.105 67.9789 122.437C68.3324 123.143 68.5165 123.922 68.5165 124.712V125.579C68.5165 126.295 68.4285 127.009 68.2546 127.704L66.2894 135.556C66.1993 135.916 66.07 136.265 65.9039 136.597L65.5009 137.402C65.4124 137.579 65.3663 137.774 65.3663 137.972C65.3663 138.675 64.795 139.245 64.0921 139.245C63.8945 139.245 63.6991 139.199 63.5223 139.11L62.858 138.779C62.4329 138.566 62.0447 138.287 61.7085 137.951L61.1545 137.398C60.8127 137.056 60.4982 136.688 60.2138 136.298L56.4119 131.076C55.0334 129.182 53.8138 127.178 52.7656 125.084L51.5556 123.271C51.3128 122.907 51.0346 122.568 50.7251 122.259L50.618 122.152C49.9587 121.494 49.4618 120.69 49.1668 119.806C48.9426 119.134 48.5992 118.51 48.1673 117.948C47.0813 116.537 45.6776 114.585 45.6776 114.07C45.6776 113.989 45.6602 113.908 45.6288 113.826C45.149 112.578 43.7791 111.851 43.1808 110.656L42.7222 109.739C42.5941 109.483 42.5275 109.201 42.5275 108.915C42.5275 108.218 42.1331 107.58 41.5091 107.268L40.9524 106.99L39.7296 106.379C39.4979 106.264 39.2425 106.204 38.9835 106.204C38.7245 106.204 38.4691 106.143 38.2375 106.028L37.6566 105.737C37.2314 105.525 36.8432 105.246 36.507 104.91L36.2271 104.63L35.7658 104.169C35.5569 103.961 35.2732 103.843 34.978 103.843C34.3637 103.843 33.8645 104.341 33.8645 104.956C33.8645 105.251 33.9818 105.534 34.1907 105.743L34.9965 106.548C35.2899 106.841 35.6287 107.085 35.9998 107.27L36.2271 107.384C36.7487 107.644 37.2249 107.987 37.6375 108.399L38.5898 109.35L38.8207 109.581C39.1771 109.937 39.3773 110.42 39.3773 110.924C39.3773 111.358 39.0251 111.71 38.5906 111.71H37.9225C37.8424 111.71 37.7625 111.704 37.6836 111.691L33.7527 111.036C33.3047 110.962 32.8703 110.82 32.464 110.618L31.7576 110.265C31.5894 110.181 31.404 110.137 31.216 110.137H31.0399C30.8314 110.137 30.6314 110.22 30.4839 110.367C30.1763 110.674 30.1763 111.173 30.4839 111.48L31.2014 112.197C31.399 112.394 31.6398 112.543 31.9047 112.631L33.4779 113.155C33.7353 113.241 33.9863 113.345 34.229 113.466C35.0251 113.863 35.9028 114.07 36.7927 114.07H36.8397C37.4772 114.07 38.1105 114.173 38.7154 114.375L38.7644 114.391C39.6854 114.697 40.5224 115.214 41.2091 115.9L41.7399 116.431L43.237 117.926C43.8103 118.499 44.2875 119.16 44.6502 119.885C44.8099 120.204 44.9468 120.534 45.0598 120.872L45.4023 121.899C45.5851 122.447 45.8401 122.967 46.1606 123.448L47.1235 124.891C47.2078 125.017 47.2527 125.165 47.2527 125.317C47.2527 125.648 47.041 125.941 46.7272 126.046L45.6365 126.409C45.152 126.57 44.6282 126.57 44.1437 126.409L42.5275 125.871L41.8716 125.652C40.7492 125.279 39.7728 124.297 38.5898 124.297C38.0161 124.297 37.1986 123.812 36.6855 124.069L36.3197 124.251C36.2584 124.282 36.2024 124.322 36.1538 124.371C35.8221 124.702 35.9489 125.266 36.3905 125.423L46.4652 129.018C48.5458 130.057 50.4068 131.487 51.9465 133.23L60.5914 143.017C61.1439 143.642 61.5647 144.373 61.8289 145.164C62.0846 145.931 62.1884 146.739 62.1346 147.546L61.4286 158.125V159.813C61.4286 161.29 61.7727 162.746 62.4336 164.067C62.812 164.822 63.0877 165.625 63.2537 166.454L63.6535 168.451C63.7451 168.909 63.7912 169.374 63.7912 169.84C63.7912 170.419 63.8623 170.996 64.0029 171.558L64.367 173.013C64.5077 173.575 64.5787 174.152 64.5787 174.731C64.5787 175.198 64.6249 175.663 64.7165 176.12L65.1617 178.344C65.2943 179.006 65.2021 179.694 64.8997 180.298C64.6887 180.72 64.5787 181.185 64.5787 181.656V182.513C64.5787 182.947 64.2265 183.299 63.7921 183.299H63.3972C63.1417 183.299 62.8932 183.217 62.6887 183.063L60.9234 181.741C60.2153 181.21 59.6025 180.563 59.1113 179.827L58.8261 179.4C58.4619 178.854 58.0446 178.346 57.5804 177.882L56.9587 177.261C56.2728 176.576 55.756 175.74 55.4491 174.821L55.4114 174.708C55.2238 174.146 55.1282 173.557 55.1282 172.964C55.1282 172.514 55.0728 172.065 54.9634 171.627L54.5999 170.175C54.4276 169.486 54.1803 168.819 53.8626 168.184L53.8109 168.08C53.6393 167.738 53.4922 167.383 53.3708 167.019L53.1833 166.457C52.9086 165.634 52.4459 164.886 51.8318 164.273C51.407 163.848 50.9166 163.495 50.3795 163.227L49.6154 162.845L46.8307 161.733C46.0641 161.426 45.3313 161.041 44.6442 160.584C43.762 159.996 42.8055 159.529 41.7999 159.194L40.9524 158.912L40.0777 158.621C39.0992 158.295 38.2099 157.746 37.4802 157.017C37.1706 156.708 36.8312 156.43 36.467 156.187L36.0061 155.88C35.1074 155.282 34.1329 154.806 33.1084 154.465L32.676 154.32C32.4185 154.235 32.1676 154.131 31.9249 154.01L30.9832 153.539C30.8063 153.451 30.6114 153.405 30.4137 153.405C29.7098 153.405 29.1392 153.976 29.1392 154.68V154.776C29.1392 155.367 29.5171 155.891 30.0773 156.078L31.5018 156.552C33.5632 157.067 35.463 158.149 36.9662 159.65C37.5181 160.202 38.1292 160.703 38.7784 161.135L40.1648 162.059L42.7691 164.01C43.1326 164.282 43.4763 164.58 43.7976 164.901L44.5291 165.632C45.2806 166.382 46.2221 166.915 47.2527 167.172L47.7965 167.308C48.4714 167.477 49.0878 167.825 49.5799 168.317C50.1165 168.853 50.4824 169.536 50.6313 170.28L51.0079 172.161C51.1293 172.767 51.1905 173.384 51.1905 174.002C51.1905 175.46 51.5302 176.898 52.1827 178.202L52.4012 178.638C52.6438 179.123 52.8517 179.624 53.0233 180.138L53.5531 181.726L54.3104 183.617C54.8522 184.97 55.6038 186.23 56.5375 187.349L58.1941 189.335C58.764 190.018 59.5131 190.529 60.3571 190.81C61.0618 191.044 61.7021 191.44 62.2275 191.964L62.3813 192.118C62.7935 192.53 63.1366 193.005 63.3974 193.526L63.542 193.815C63.7071 194.145 63.9242 194.446 64.1851 194.707L64.3199 194.841C64.4913 195.012 64.6893 195.155 64.9061 195.263L65.8849 195.752C66.0497 195.834 66.1538 196.003 66.1538 196.187C66.1538 196.456 65.9362 196.673 65.6677 196.673H64.1208C63.9025 196.673 63.6865 196.637 63.4777 196.573C62.5765 196.297 60.9684 195.886 59.8535 195.886C58.5499 195.886 58.3072 193.745 57.2639 192.963L56.1627 192.138C55.9983 192.015 55.8443 191.879 55.6872 191.747C55.2966 191.417 54.5586 190.882 53.5531 190.38C51.978 189.593 52.7656 190.38 51.1905 189.593C49.6154 188.806 49.6154 188.806 48.8278 188.02C48.0403 187.233 48.0403 188.02 46.4652 188.02H43.315C40.9524 188.02 42.5275 188.02 40.9524 187.233C39.3773 186.446 39.3773 186.446 37.8022 186.446C36.2271 186.446 37.8022 185.659 34.652 184.086C33.0769 183.299 33.8645 183.299 33.0769 182.513C32.2894 181.726 32.2894 182.513 32.2894 181.726C32.2894 180.939 30.7143 180.939 29.9267 180.153C29.7319 179.958 29.5321 179.809 29.3412 179.695L29.3243 179.685C28.774 179.357 28.1662 178.995 27.8802 178.424C27.6778 178.02 27.3222 177.715 26.9004 177.553C26.0421 177.221 24.8999 176.705 24.4139 176.219C23.97 175.776 23.1177 176.219 22.4903 176.219H22.271C22.1255 176.219 21.9815 176.243 21.843 176.287C20.991 176.563 19.4803 177.006 18.9011 177.006C18.8534 177.006 18.8085 177.003 18.7661 176.997C18.0597 176.903 17.8302 175.936 17.326 175.432L16.9957 175.103C16.7431 174.85 16.3338 174.85 16.0812 175.103C15.884 175.3 15.8351 175.601 15.9599 175.85L16.3938 176.717C16.4896 176.908 16.6157 177.083 16.7671 177.234L16.9324 177.399C17.1931 177.66 17.4941 177.877 17.8238 178.041L19.2418 178.749C20.0322 179.144 20.947 179.209 21.7853 178.93C22.4692 178.702 23.2084 178.702 23.8923 178.93L24.6736 179.19C25.0208 179.306 25.3362 179.501 25.595 179.759C25.8541 180.018 26.0493 180.333 26.1653 180.681L26.278 181.019C26.5757 181.911 27.4109 182.513 28.3517 182.513C28.3656 182.513 28.3799 182.513 28.3944 182.514C30.2776 182.646 31.5057 184.613 33.0769 185.659L34.513 186.616C35.1292 187.026 35.7033 187.496 36.2271 188.02C36.6344 188.426 36.5673 189.104 36.0881 189.423L35.1211 190.067C34.8152 190.271 34.4559 190.38 34.0884 190.38H33.5322C33.2298 190.38 32.9283 190.344 32.6367 190.264C31.4928 189.949 29.6912 189.358 29.1392 188.806C28.7565 188.424 27.967 188.216 27.2296 188.111L27.115 188.095C26.3362 187.985 25.5535 187.875 24.8077 187.626C24.0252 187.366 23.2062 187.233 22.3816 187.233H18.9011C16.7343 187.233 14.778 185.96 12.8395 184.992L12.6007 184.873L9.11234 183.13C8.29309 182.721 7.54517 182.183 6.89731 181.536L6.84567 181.484C6.483 181.122 6.08548 180.796 5.65884 180.512L4.84665 179.971C4.25104 179.575 3.76923 179.029 3.44891 178.389C3.25107 177.994 2.99072 177.633 2.67798 177.321L2.36264 177.006L1.57507 176.219L1.34412 175.988C1.03662 175.681 0.538452 175.681 0.230957 175.988C0.0830688 176.136 0 176.337 0 176.546V176.674C0 176.89 0.0641785 177.102 0.184418 177.282L1.1871 178.785C1.44513 179.171 1.74072 179.531 2.06955 179.86L2.64325 180.433C2.979 180.768 3.25848 181.156 3.47089 181.58L3.80313 182.244C3.89163 182.421 3.93771 182.616 3.93771 182.813V183.449C3.93771 183.801 3.6524 184.086 3.30048 184.086C3.20163 184.086 3.10416 184.063 3.01572 184.019L2.20743 183.615C1.82974 183.427 1.37372 183.501 1.07501 183.799L0.869019 184.005C0.816864 184.057 0.746124 184.086 0.672363 184.086C0.424347 184.086 0.300232 184.386 0.475677 184.561L1.39075 185.475C1.51062 185.595 1.66495 185.674 1.83212 185.702L6.30035 186.446C8.90613 186.967 11.4031 187.931 13.6824 189.297L14.1758 189.593L14.2083 189.615C15.7277 190.626 17.5125 191.166 19.3381 191.166C20.094 191.166 20.847 191.259 21.5804 191.442L23.6264 191.953L27.5256 193.251C28.0739 193.434 28.5953 193.689 29.0763 194.009C30.1444 194.72 31.399 195.1 32.6822 195.1H34.4253C35.1003 195.1 35.7736 195.043 36.44 194.936C38.1253 194.665 40.4365 194.313 40.9524 194.313C43.058 194.313 45.1782 193.929 47.1501 194.668L47.6457 194.854C49.4503 195.53 51.0388 196.681 52.2434 198.185L53.5531 199.82C55.0778 201.851 57.2783 203.269 59.7572 203.819L63.0037 204.54L69.1589 205.155C70.3 205.269 71.4195 205.543 72.4844 205.968L74.0096 206.578C74.5422 206.79 75.0261 207.109 75.4319 207.515C76.0563 208.138 76.8599 208.551 77.7305 208.696L79.4248 208.979C80.5442 209.165 81.6217 209.548 82.6073 210.111L83.7148 210.743C85.6391 211.841 87.3262 213.311 88.6781 215.067L94.1803 222.212C94.3956 222.491 94.5625 222.805 94.6742 223.14L95.0609 224.298C95.2031 224.725 95.0921 225.195 94.7741 225.512C94.5994 225.687 94.3745 225.803 94.131 225.843L91.6584 226.255C90.4199 226.461 89.1521 226.406 87.9361 226.094L62.2161 219.487L60.0726 218.631C58.8789 218.154 57.6442 217.787 56.3837 217.535C55.025 217.264 53.6427 217.127 52.2571 217.127H50.4029H50.2445C48.7778 217.127 47.3132 217.006 45.8663 216.765C44.1694 216.483 42.5039 216.037 40.8929 215.433L39.8722 215.051C37.9734 214.34 36.1625 213.413 34.4749 212.289L33.3428 211.535C32.6422 211.069 31.9894 210.534 31.394 209.939C30.4221 208.968 29.3003 208.161 28.0714 207.547L26.7766 206.9L21.9833 204.848C21.5085 204.645 20.9974 204.54 20.481 204.54H19.4577C19.1013 204.54 18.7595 204.399 18.5073 204.147C18.2552 203.895 17.9134 203.753 17.557 203.753H16.5385C15.5299 203.753 14.5626 203.353 13.849 202.64L13.8318 202.623C13.538 202.33 13.1989 202.085 12.8275 201.9L11.8132 201.393L11.2868 201.13C10.7075 200.841 10.0033 201.076 9.71341 201.655C9.54794 201.985 9.54794 202.375 9.71341 202.705L9.80304 202.884C10.0697 203.417 10.6143 203.753 11.21 203.753H11.2954C11.633 203.753 11.9631 203.853 12.2441 204.04L13.4512 204.844C13.9321 205.165 14.4536 205.419 15.0019 205.602L15.882 205.895C16.3191 206.04 16.7453 206.217 17.1575 206.423C17.7929 206.74 18.4612 206.987 19.1504 207.159L19.5117 207.249C20.6711 207.539 21.7721 208.025 22.7667 208.688L23.2752 209.026C23.5088 209.182 23.7263 209.36 23.9248 209.558C24.2488 209.882 24.6227 210.151 25.0323 210.356L25.4265 210.553C25.8007 210.74 26.1574 210.96 26.4922 211.211L28.3274 212.586C28.8651 212.988 29.4641 213.302 30.1016 213.514C31.0224 213.821 31.8593 214.338 32.5459 215.023L33.8645 216.34L35.4395 217.914L35.9488 218.423C36.127 218.601 36.2271 218.842 36.2271 219.094C36.2271 219.346 36.127 219.587 35.9488 219.765L35.833 219.881C35.5811 220.133 35.2397 220.274 34.8836 220.274H33.0769C32.2894 220.274 31.5018 221.061 29.9267 221.061H28.3517C27.5641 221.061 25.2014 221.847 23.6264 222.634C22.5905 223.151 21.4485 223.421 20.2906 223.421H18.9455C17.8699 223.421 16.7983 223.553 15.7548 223.813L15.1646 223.96C14.5079 224.124 13.8336 224.207 13.1566 224.207C12.2668 224.207 11.3852 224.359 10.5292 224.602C9.80438 224.808 9.03818 224.994 8.66299 224.994C8.31573 224.994 7.95251 225.153 7.65247 225.34C7.24911 225.592 6.87115 225.889 6.44601 226.101L6.21738 226.216C5.75403 226.447 5.24319 226.568 4.72528 226.568H4.42383C4.10416 226.568 3.78885 226.642 3.50284 226.785L3.16934 226.951C2.67499 227.198 2.36264 227.703 2.36264 228.256C2.36264 229.061 3.01556 229.714 3.82095 229.714H4.27438C4.57092 229.714 4.86337 229.645 5.12863 229.513L5.93585 229.11C6.17856 228.988 6.42953 228.885 6.68695 228.799L8.66299 228.141L10.6422 227.482C10.8943 227.398 11.1235 227.256 11.3116 227.069L11.6501 226.73C11.7545 226.626 11.8961 226.568 12.0437 226.568C12.3513 226.568 12.6007 226.817 12.6007 227.125V227.84C12.6007 228.038 12.5546 228.233 12.4661 228.41L9.80267 233.731C9.57111 234.194 9.45053 234.704 9.45053 235.221V236.795C9.45053 237.264 9.75122 237.681 10.197 237.83L10.4407 237.911C11.1989 238.163 12.0181 237.754 12.2711 236.996L13.3883 233.648L13.8746 232.19C14.0745 231.591 14.3535 231.021 14.7041 230.496C15.3901 229.468 16.3324 228.637 17.4379 228.085L17.6665 227.971C18.4836 227.563 19.3642 227.296 20.2705 227.183L22.8936 226.856C24.4284 226.664 25.9406 226.321 27.4081 225.833L27.5641 225.781C28.6142 225.519 30.8718 224.994 31.5018 224.994C32.2894 224.994 33.8645 224.207 34.652 224.207C34.6966 224.207 34.744 224.205 34.7939 224.2C36.34 224.046 37.8235 223.421 39.3773 223.421C40.9497 223.421 42.5194 223.291 44.0705 223.033L44.7934 222.912C45.906 222.727 47.0321 222.634 48.16 222.634C49.1291 222.634 50.0968 222.703 51.0561 222.84L55.1282 223.421L59.0659 224.207L63.0037 224.994L64.6007 225.393C65.6285 225.65 66.6045 226.081 67.4863 226.668C68.17 227.123 68.9114 227.486 69.6908 227.745L70.8791 228.141L77.1795 230.501L77.4249 230.624C79.3556 231.588 81.386 232.338 83.4799 232.861C84.7924 233.386 87.5751 234.434 88.2051 234.434H93.718H95.9489C97.084 234.434 98.2163 234.546 99.3294 234.769C100.832 235.069 102.288 235.568 103.659 236.253L104.744 236.795L108.681 238.368L111.006 239.142C112.596 239.671 114.09 240.454 115.431 241.458C116.18 242.019 116.978 242.512 117.815 242.93L119.707 243.875L122.07 245.448L123.364 246.095C123.55 246.187 123.72 246.309 123.866 246.456L124.067 246.656C124.301 246.89 124.432 247.207 124.432 247.538C124.432 248.148 123.991 248.668 123.39 248.768L120.547 249.242C119.991 249.334 119.424 249.325 118.872 249.215L115.769 248.595C114.457 248.333 111.674 247.808 111.044 247.808C110.256 247.808 107.106 247.021 106.319 246.235C105.153 245.071 103.098 246.235 101.451 246.235H100.018C97.9569 246.235 95.918 246.804 94.1499 247.864C93.3448 248.346 92.5946 248.93 91.9305 249.594L90.7956 250.727C90.123 251.399 89.3467 251.958 88.4963 252.383C87.269 252.996 85.9157 253.315 84.5438 253.315L82.6923 253.315C82.0623 253.315 78.7546 252.791 77.1795 252.528C75.8669 252.266 73.0842 251.742 72.4542 251.742C71.8242 251.742 69.5665 251.217 68.5165 250.955L65.6031 249.791C64.9216 249.518 64.2166 249.309 63.497 249.165C61.6201 248.79 59.6809 248.869 57.8405 249.394L55.1282 250.168L54.652 250.278C53.4013 250.565 52.2005 251.037 51.0889 251.678L49.8477 252.394C49.6935 252.483 49.5516 252.592 49.4256 252.718L49.2746 252.869C48.9886 253.155 48.8278 253.542 48.8278 253.947C48.8278 254.524 49.1541 255.051 49.6705 255.309L50.0511 255.499C50.2825 255.615 50.5375 255.675 50.7961 255.675C51.3402 255.675 51.85 255.41 52.162 254.964L52.4048 254.617C52.6415 254.279 52.959 254.005 53.3284 253.821L53.5818 253.694C54.0809 253.445 54.631 253.315 55.1889 253.315H55.9157H57.3981C57.977 253.315 58.548 253.18 59.0659 252.922C59.5839 252.663 60.1548 252.528 60.7338 252.528H61.4286H62.416C62.7923 252.528 63.1532 252.678 63.4194 252.944C64.0311 253.555 63.9592 254.566 63.2673 255.084L61.6112 256.325C61.4896 256.416 61.3746 256.516 61.2671 256.623L60.5638 257.326C59.569 258.319 58.4561 259.187 57.25 259.91L55.1282 261.182L53.3352 262.078C52.4315 262.529 51.497 262.916 50.5386 263.235L48.2343 264.002C47.5842 264.218 46.9034 264.329 46.2182 264.329C45.3422 264.329 44.4756 264.148 43.6723 263.799L43.4926 263.721C42.8526 263.442 42.2567 263.072 41.7239 262.621L41.629 262.541C41.1801 262.161 40.7868 261.721 40.4604 261.232L39.7863 260.222C39.5199 259.822 39.1387 259.513 38.693 259.335L37.4991 258.858C36.5125 258.464 35.4395 259.191 35.4395 260.253C35.4395 260.822 35.7613 261.343 36.2705 261.597L36.5415 261.732C36.8515 261.887 37.1158 262.12 37.3083 262.409L37.4441 262.612C38.1305 263.641 38.093 264.99 37.3506 265.979L36.2271 267.476L35.0172 269.289C34.7743 269.652 34.4961 269.991 34.1866 270.301L33.4534 271.033C33.2058 271.28 33.0192 271.582 32.9084 271.914L32.6083 272.813C32.4253 273.362 32.6736 273.961 33.1906 274.219C33.6005 274.424 34.0924 274.368 34.4463 274.078L35.892 272.889C36.1148 272.706 36.3173 272.5 36.4962 272.274L37.8022 270.622L39.1174 269.309C39.2902 269.136 39.4797 268.981 39.683 268.845L40.257 268.463C41.1552 267.865 42.3247 267.865 43.2228 268.463C43.7881 268.84 44.476 268.991 45.1416 268.857C46.7636 268.529 48.8278 267.985 48.8278 267.476C48.8278 267.089 50.0165 266.88 51.2986 266.777C52.7653 266.659 54.2066 266.254 55.4314 265.438C55.7538 265.223 56.0924 265.034 56.4443 264.872L57.8557 264.222C59.1854 263.609 60.4638 262.89 61.6787 262.073L63.0037 261.182L66.1538 259.609L70.1235 257.909C71.1176 257.484 72.2333 257.437 73.2594 257.779L74.0833 258.053C76.4351 258.836 77.3975 261.642 76.0215 263.704C75.7462 264.116 75.3918 264.47 74.9789 264.745L74.3379 265.172C73.6125 265.655 72.8096 266.01 71.9641 266.221L71.4001 266.362C70.531 266.579 69.6386 266.689 68.7429 266.689H67.7289H66.6111C65.7866 266.689 64.9675 266.822 64.1852 267.082C63.4026 267.343 62.6671 267.728 62.007 268.222L59.8535 269.836L57.1563 272.214C56.8683 272.468 56.7033 272.834 56.7033 273.218C56.7033 273.957 57.3023 274.556 58.0413 274.556H58.2426C58.757 274.556 59.2374 274.299 59.523 273.871L60.1748 272.894C60.4818 272.434 60.8871 272.048 61.3613 271.764L63.0184 270.771C64.0394 270.159 65.2075 269.836 66.3979 269.836C66.7596 269.836 67.1207 269.866 67.4775 269.925L68.9476 270.17C70.7148 270.464 72.5299 270.191 74.1327 269.391C74.5879 269.163 75.0217 268.896 75.4289 268.59L77.967 266.689L80.338 264.913C80.8564 264.524 81.4087 264.183 81.9882 263.894L82.2819 263.747C83.5876 263.095 85.0272 262.755 86.4868 262.755C87.1058 262.755 87.7233 262.694 88.3304 262.573L88.3877 262.562C90.3228 262.175 92.1003 261.225 93.4964 259.83L93.7289 259.598C94.2454 259.082 94.8115 258.618 95.4191 258.214L98.3878 256.237C98.9483 255.863 99.5459 255.549 100.171 255.299C102.117 254.522 104.262 254.393 106.287 254.933L114.982 257.249L115.345 257.369C119.799 258.853 124.463 259.609 129.158 259.609H131.983C133.769 259.609 135.55 259.804 137.293 260.191L138.137 260.378C140.53 260.909 142.805 261.879 144.846 263.238L145.277 263.526C146.079 264.06 146.827 264.672 147.509 265.353L148.085 265.929C149.107 266.949 150.325 267.752 151.666 268.288C152.925 268.791 154.268 269.049 155.623 269.049H159.872H167.747C171.937 269.049 176.117 269.462 180.226 270.283L181.923 270.622L189.799 271.409L198.462 272.196L206.337 273.769Z" fill="#9E5252"/>
<path d="M273.278 213.19C274.845 213.254 279.578 217.911 281.153 219.484C282.729 221.056 279.811 211.434 278.791 207.684C277.77 203.934 276.796 201.954 275.641 198.244C274.485 194.533 273.511 191.2 272.49 187.23C271.47 183.26 270.851 180.67 270.128 177.003C269.404 173.336 269.321 171.22 268.553 167.563C267.784 163.905 265.916 156.286 264.615 153.402C263.314 150.518 262.032 148.022 260.677 146.322C259.323 144.622 258.241 143.96 256.74 142.388C255.238 140.817 245.714 105.417 208.074 96.2922C200.563 94.4714 195.923 93.4118 193.29 92.8804C193.087 92.7652 192.889 92.6528 192.696 92.544C191.33 91.775 190.654 91.18 189.244 90.494C187.834 89.8081 186.076 89.378 184.045 88.6628C182.015 87.9477 180.53 86.9751 178.103 86.57C175.677 86.1649 173.986 86.4024 171.376 86.7029C168.765 87.0034 166.901 87.4772 164.125 88.3197C161.349 89.1621 158.438 90.0851 156.35 91.4203C154.261 92.7555 153.252 93.7702 151.546 95.5673C149.839 97.3644 147.819 100.34 146.698 102.202C145.578 104.064 144.848 105.439 144.123 107.134C143.397 108.828 142.834 109.763 142.551 111.585C142.269 113.407 143.583 117.972 143.427 118.567C143.271 119.161 143.178 119.501 142.903 120.051C142.628 120.6 139.91 121.87 138.361 123.456C136.813 125.042 136.205 126.568 135.042 128.126C133.88 129.684 133.012 130.492 131.986 132.054C130.959 133.617 130.558 134.598 129.671 136.244C128.785 137.89 127.691 139.76 127.096 141.176L127.037 141.316C126.477 142.647 126.141 143.444 125.786 144.886C125.419 146.377 125.122 147.754 125.219 148.857C125.316 149.96 125.655 151.449 125.919 151.606C126.184 151.763 126.354 151.862 126.662 151.868C126.969 151.873 127.285 151.596 127.667 151.387C128.048 151.178 129.051 150.35 129.938 149.685C130.825 149.02 141.036 141.219 143.564 139.469C146.093 137.72 148.587 135.933 150.116 135.104C151.645 134.274 152.807 133.544 154.134 133.182C155.461 132.82 156.657 132.785 157.629 132.745C158.601 132.705 159.148 132.739 160.119 132.788C161.09 132.837 162.455 132.877 163.352 133.092C164.249 133.308 164.71 133.571 165.58 133.877L166.553 134.22C166.389 135.735 165.745 136.602 165.58 138.214C165.403 139.943 165.953 142.897 166.25 145.218C166.546 147.539 166.684 148.955 167.17 151.139C167.655 153.322 168.104 154.503 168.757 156.642C169.411 158.781 169.977 160.786 170.763 162.812C171.548 164.838 172.007 165.975 173.018 167.898C174.029 169.822 175.121 172.109 176.41 173.859L178.772 178.576C179.673 180.234 179.915 181.333 180.311 183.131L180.348 183.296C180.766 185.194 180.166 190.747 180.348 193.523C180.529 196.299 180.715 197.853 181.135 200.604C181.555 203.354 181.955 205.655 182.71 208.471C183.465 211.286 184.292 214.228 185.073 215.551C185.854 216.874 187.131 218.654 187.435 218.698C187.74 218.741 188.006 218.915 188.223 218.698C188.441 218.48 188.216 218.218 188.223 217.911C188.23 217.604 189.451 210.569 189.798 210.831C190.146 211.092 190.488 211.326 190.586 211.617C190.683 211.909 190.584 212.097 190.586 212.404C190.587 212.711 191.614 227.174 192.161 228.138C192.707 229.102 192.881 229.792 193.736 230.498C194.591 231.203 194.523 221.844 196.098 221.844C197.674 221.844 199.192 230.365 199.249 231.285C199.305 232.205 199.326 232.726 199.249 233.645C199.172 234.563 181.382 245.021 179.56 245.445C177.738 245.87 175.842 245.769 174.835 246.232C173.827 246.695 173.153 246.931 172.472 247.805C171.791 248.68 177.65 247.44 179.56 247.805C181.47 248.171 180.152 247.427 184.285 249.379C186.785 250.559 188.223 252.525 187.876 249.379C187.529 246.232 185.073 248.592 187.435 246.232C189.798 243.872 202.83 235.872 205.549 235.218C208.268 234.564 206.051 231.004 207.124 231.285C208.197 231.565 207.912 230.498 208.699 233.645C209.487 236.792 209.309 228.138 211.062 228.138C212.815 228.138 212.514 235.009 214.212 234.431C215.91 233.854 215.114 231.537 216.575 230.498C218.036 229.459 221.268 240.111 221.3 240.725L221.305 240.831C221.334 241.38 221.352 241.722 221.3 242.298C221.244 242.91 214.011 249.926 211.849 250.165C209.688 250.405 208.37 249.032 206.337 249.379C204.303 249.725 202.011 251.18 201.611 251.739C201.212 252.298 200.996 252.647 200.824 253.312C200.651 253.977 205.802 252.185 208.699 252.525C211.597 252.866 215.658 255.486 215.787 254.885C215.916 254.285 215.729 253.924 215.787 253.312C215.845 252.7 220.552 245.788 221.3 246.232C222.048 246.676 222.291 247.162 222.875 247.805C223.46 248.449 222.269 266.52 222.875 278.486C223.481 290.452 227.6 313.101 227.6 318.608C227.6 319.775 227.707 320.342 227.859 320.539C227.724 320.906 227.838 320.842 228.048 320.618C228.182 320.582 228.33 320.388 228.465 320.133C228.763 319.776 229.071 319.406 229.175 319.394C229.481 319.36 230.439 316.024 232.326 315.461C234.212 314.897 233.333 324.415 233.901 324.114C234.469 323.814 235.476 319.394 236.263 319.394C237.051 319.394 237.552 324.392 238.626 324.114C239.7 323.837 239.586 322.676 240.201 321.754C240.816 320.833 241.533 320.283 241.776 319.394L242.564 315.461V313.887C242.564 313.625 242.921 313.162 243.351 313.101C243.782 313.039 243.877 314.039 244.139 314.674C244.401 315.309 244.922 320.66 244.926 320.968C244.931 321.275 244.883 321.45 244.926 321.754C244.97 322.058 245.447 322.985 245.714 323.328C245.981 323.671 246.099 323.949 246.501 324.114C246.904 324.28 247.498 322.699 248.077 321.754C248.655 320.809 252.11 301.178 252.802 296.58C253.494 291.983 253.762 289.388 254.377 284.78C254.992 280.171 255.425 277.599 255.952 272.979C256.479 268.36 257.179 259.012 257.527 254.099C257.875 249.186 258.299 242.74 258.315 241.512C258.33 240.283 257.632 238.45 258.315 238.365C258.997 238.28 259.281 238.833 259.89 239.152C260.499 239.47 280.059 264.018 280.366 264.326C280.673 264.634 278.53 258.471 278.791 258.819C279.052 259.166 280.603 260.904 281.153 261.179C281.704 261.454 284.557 267.777 285.091 267.472C285.625 267.168 285.745 266.499 285.879 265.899C286.012 265.299 285.885 264.94 285.879 264.326C285.873 263.711 273.656 225.387 273.278 222.631C272.9 219.875 272.287 216.501 272.49 215.551C272.694 214.601 271.711 213.126 273.278 213.19Z" fill="#9E5252"/>
</svg>
