<svg width="2396" height="1400" viewBox="0 0 2396 1400" fill="none" xmlns="http://www.w3.org/2000/svg">
<path d="M1009.63 390.988C1121.65 759.698 1138.7 1019.41 1145.71 1234.15C1152.71 1448.9 1133.07 1437.35 1081.64 1167.63C1030.21 897.912 968.826 407.385 1009.63 390.988ZM1009.63 390.988C1112.93 333.431 1531.73 321.449 1661.04 510.773C1790.36 700.096 1346.17 1032.06 566.606 1072.83C-85.7062 1069.82 238.624 718.397 868.68 300.892C1498.74 -116.613 2162.4 19.0158 1973.68 122.565C1754.12 243.04 75.8916 1483.67 17.0609 1339.43C-41.7698 1195.2 2379.03 210.878 2379.03 210.878" stroke="#9E5252" stroke-width="32" stroke-linecap="round"/>
</svg>
