<svg width="232" height="87" viewBox="0 0 232 87" fill="none" xmlns="http://www.w3.org/2000/svg">
<path d="M85.9865 58.3359C85.3892 58.3359 84.8558 58.1332 84.3865 57.7279C83.9385 57.3226 83.7145 56.6612 83.7145 55.7439C83.7145 55.2532 83.7785 54.5599 83.9065 53.6639C84.0558 52.7679 84.2478 51.7972 84.4825 50.7519C84.7172 49.6852 84.9732 48.6292 85.2505 47.5839C85.5492 46.5386 85.8372 45.6106 86.1145 44.7999C86.3918 43.9679 86.6372 43.3492 86.8505 42.9439C87.1278 42.4532 87.3838 42.1546 87.6185 42.0479C87.8745 41.9199 88.1198 41.8559 88.3545 41.8559C88.7812 41.8559 89.1758 41.9839 89.5385 42.2399C89.9225 42.4959 90.1145 43.0612 90.1145 43.9359C90.1145 44.2772 90.0505 44.8319 89.9225 45.5999C89.7945 46.3466 89.6345 47.2212 89.4425 48.2239C89.2505 49.2266 89.0372 50.2612 88.8025 51.3279C88.5892 52.3946 88.3758 53.4079 88.1625 54.3679C87.9705 55.3066 87.8105 56.0959 87.6825 56.7359C87.5758 57.2692 87.3518 57.6639 87.0105 57.9199C86.6905 58.1972 86.3492 58.3359 85.9865 58.3359ZM89.6665 38.6879C88.9625 38.6879 88.3118 38.4852 87.7145 38.0799C87.1172 37.6532 86.8185 37.0026 86.8185 36.1279C86.8185 35.4026 86.9998 34.8159 87.3625 34.3679C87.7252 33.9199 88.1518 33.5999 88.6425 33.4079C89.1545 33.1946 89.6025 33.0879 89.9865 33.0879C90.3705 33.0879 90.7972 33.1732 91.2665 33.3439C91.7358 33.4932 92.1412 33.7812 92.4825 34.2079C92.8452 34.6132 93.0265 35.1999 93.0265 35.9679C93.0265 36.4799 92.8452 36.9492 92.4825 37.3759C92.1198 37.7812 91.6718 38.1012 91.1385 38.3359C90.6265 38.5706 90.1358 38.6879 89.6665 38.6879Z" fill="#5A3550"/>
<path d="M72.9615 59.456C71.0415 59.456 69.5268 58.8693 68.4175 57.696C67.3295 56.5013 66.7855 54.8053 66.7855 52.608C66.7855 51.4133 66.9455 50.016 67.2655 48.416C67.5855 46.7947 68.0015 45.088 68.5135 43.296C69.0468 41.4827 69.6122 39.6907 70.2095 37.92C70.8282 36.1493 71.4362 34.5067 72.0335 32.992C72.6308 31.4773 73.1535 30.208 73.6015 29.184C73.9855 28.3947 74.5295 28 75.2335 28C75.6815 28 76.0442 28.1387 76.3215 28.416C76.6202 28.6933 76.7695 29.1413 76.7695 29.76C76.7695 30.0587 76.6202 30.7093 76.3215 31.712C76.0228 32.7147 75.6282 33.952 75.1375 35.424C74.6682 36.8747 74.1562 38.4427 73.6015 40.128C73.0682 41.8133 72.5562 43.5093 72.0655 45.216C71.5962 46.9227 71.2122 48.5333 70.9135 50.048C70.6148 51.5413 70.4655 52.8107 70.4655 53.856C70.4655 54.2827 70.5828 54.624 70.8175 54.88C71.0735 55.136 71.4042 55.264 71.8095 55.264C72.6842 55.264 73.5802 55.104 74.4975 54.784C75.4362 54.464 76.3535 54.0587 77.2495 53.568C78.1668 53.0773 79.0308 52.5547 79.8415 52C80.6522 51.4453 81.3775 50.9227 82.0175 50.432C82.6788 49.92 83.2122 49.5147 83.6175 49.216C84.1508 48.8107 84.5135 48.608 84.7055 48.608C85.4308 48.608 85.7935 48.96 85.7935 49.664C85.7935 49.8347 85.5802 50.1867 85.1535 50.72C84.7908 51.1893 84.2788 51.7867 83.6175 52.512C82.9562 53.2373 82.1882 54.0053 81.3135 54.816C80.4602 55.6053 79.5428 56.352 78.5615 57.056C77.6015 57.76 76.6415 58.336 75.6815 58.784C74.7215 59.232 73.8148 59.456 72.9615 59.456Z" fill="#5A3550"/>
<path d="M47.7757 58.8479C46.4957 58.8479 45.6104 58.5919 45.1197 58.0799C44.6504 57.5893 44.4157 56.9066 44.4157 56.0319C44.4157 52.3199 45.1091 48.4479 46.4957 44.4159C47.9037 40.3626 49.8771 36.2986 52.4157 32.2239C52.8424 31.5199 53.1944 31.1039 53.4717 30.9759C53.7491 30.8479 54.0584 30.7839 54.3997 30.7839C54.8904 30.7839 55.3171 30.9546 55.6797 31.2959C56.0637 31.6373 56.2557 32.0853 56.2557 32.6399C56.2557 32.8106 56.0744 33.2799 55.7117 34.0479C55.3491 34.8159 54.8691 35.7973 54.2717 36.9919C53.6957 38.1866 53.0664 39.5413 52.3837 41.0559C51.7011 42.5493 51.0291 44.1279 50.3677 45.7919C49.7277 47.4559 49.1731 49.1306 48.7037 50.8159C49.4291 49.8986 50.2504 48.9599 51.1677 47.9999C52.1064 47.0186 53.0771 46.1226 54.0797 45.3119C55.0824 44.4799 56.0531 43.8186 56.9917 43.3279C57.9304 42.8159 58.7731 42.5599 59.5197 42.5599C60.2237 42.5599 60.8744 42.7306 61.4717 43.0719C62.0904 43.4133 62.5917 43.9466 62.9757 44.6719C63.3597 45.3973 63.5517 46.3359 63.5517 47.4879C63.5517 48.7466 63.1891 50.0373 62.4637 51.3599C61.7597 52.6826 60.7251 53.9093 59.3597 55.0399C58.0157 56.1706 56.3624 57.0879 54.3997 57.7919C52.4584 58.4959 50.2504 58.8479 47.7757 58.8479ZM49.1197 55.1999C50.7624 55.0719 52.2451 54.7199 53.5677 54.1439C54.9117 53.5679 56.0637 52.8533 57.0237 51.9999C57.9837 51.1466 58.7197 50.2506 59.2317 49.3119C59.7437 48.3519 59.9997 47.4453 59.9997 46.5919C59.9997 46.3999 59.9464 46.3039 59.8397 46.3039C59.3917 46.3039 58.8264 46.5066 58.1437 46.9119C57.4611 47.2959 56.7144 47.8186 55.9037 48.4799C55.0931 49.1413 54.2717 49.8666 53.4397 50.6559C52.6077 51.4453 51.8184 52.2346 51.0717 53.0239C50.3251 53.8133 49.6744 54.5386 49.1197 55.1999Z" fill="#5A3550"/>
<path d="M21.268 59.0721C20.5853 59.0721 19.9667 58.8801 19.412 58.4961C18.8573 58.1334 18.42 57.6534 18.1 57.0561C17.78 56.4374 17.62 55.7761 17.62 55.0721C17.62 53.7494 17.908 52.4587 18.484 51.2001C19.0813 49.9414 19.86 48.7467 20.82 47.6161C21.78 46.4854 22.8253 45.4507 23.956 44.5121C25.108 43.5521 26.2493 42.7307 27.38 42.0481C28.532 41.3654 29.5773 40.8321 30.516 40.4481C31.476 40.0641 32.2227 39.8721 32.756 39.8721C33.3747 39.8721 33.876 40.0107 34.26 40.2881C34.6653 40.5441 34.868 40.9494 34.868 41.5041C34.868 41.6747 34.8253 41.8134 34.74 41.9201C35.0173 41.9841 35.2413 42.1441 35.412 42.4001C35.5827 42.6561 35.668 43.0401 35.668 43.5521C35.668 43.7654 35.6147 44.3201 35.508 45.2161C35.4013 46.1121 35.284 47.2001 35.156 48.4801C35.0493 49.7601 34.996 51.0934 34.996 52.4801C34.996 52.6934 35.028 52.8854 35.092 53.0561C35.156 53.2054 35.2947 53.2801 35.508 53.2801C36.3613 53.2801 37.2253 53.1094 38.1 52.7681C38.996 52.4054 39.86 51.9681 40.692 51.4561C41.5453 50.9227 42.3133 50.4001 42.996 49.8881C43.7 49.3547 44.2867 48.9174 44.756 48.5761C45.2467 48.2134 45.5667 48.0321 45.716 48.0321C46.4413 48.0321 46.804 48.3947 46.804 49.1201C46.804 49.3121 46.5693 49.7174 46.1 50.3361C45.652 50.9334 45.0333 51.6267 44.244 52.4161C43.4547 53.1841 42.5693 53.9521 41.588 54.7201C40.628 55.4667 39.6253 56.0854 38.58 56.5761C37.556 57.0667 36.564 57.3121 35.604 57.3121C34.4307 57.3121 33.5347 57.0347 32.916 56.4801C32.3187 55.9254 31.892 55.1787 31.636 54.2401C31.4013 53.2801 31.2733 52.2027 31.252 51.0081C30.164 52.5654 29.0333 53.9521 27.86 55.1681C26.708 56.3627 25.5667 57.3121 24.436 58.0161C23.3053 58.7201 22.2493 59.0721 21.268 59.0721ZM32.596 43.0401C30.5053 44.0427 28.628 45.1947 26.964 46.4961C25.3 47.7761 23.9773 49.1201 22.996 50.5281C22.036 51.9361 21.556 53.2907 21.556 54.5921C21.556 54.9547 21.7267 55.1361 22.068 55.1361C22.4733 55.1361 23.0067 54.9014 23.668 54.4321C24.3507 53.9627 25.0867 53.3441 25.876 52.5761C26.6653 51.7867 27.4547 50.9121 28.244 49.9521C29.0333 48.9707 29.7693 47.9681 30.452 46.9441C31.1347 45.9201 31.6787 44.9387 32.084 44.0001C32.2333 43.6587 32.404 43.3387 32.596 43.0401Z" fill="#5A3550"/>
<path d="M1.6 58.1119C1.04533 58.1119 0.64 57.8452 0.384 57.3119C0.128 56.7785 0 55.8292 0 54.4639C0 52.5439 0.117333 50.5172 0.352 48.3839C0.608 46.2292 0.938667 43.9039 1.344 41.4079C1.70667 39.4239 2.57067 37.8985 3.936 36.8319C5.32267 35.7652 7.17867 34.8905 9.504 34.2079C10.9547 33.7812 12.4587 33.3865 14.016 33.0239C15.5733 32.6612 17.0347 32.3732 18.4 32.1599C19.7867 31.9252 20.928 31.8079 21.824 31.8079C22.5067 31.8079 23.04 31.9145 23.424 32.1279C23.808 32.3412 24.0747 32.6079 24.224 32.9279C24.3947 33.2265 24.48 33.5039 24.48 33.7599C24.48 34.1652 24.384 34.5279 24.192 34.8479C24 35.1679 23.584 35.4132 22.944 35.5839C22.6667 35.6692 22.08 35.8185 21.184 36.0319C20.3093 36.2239 19.232 36.4585 17.952 36.7359C16.6933 37.0132 15.36 37.3119 13.952 37.6319C12.544 37.9305 11.1787 38.2399 9.856 38.5599C8.55467 38.9439 7.59467 39.4132 6.976 39.9679C6.37867 40.5012 5.984 41.2799 5.792 42.3039C5.74933 42.5172 5.70667 42.8159 5.664 43.1999C6.53867 42.9225 7.47733 42.6985 8.48 42.5279C9.48267 42.3572 10.4107 42.2292 11.264 42.1439C12.1173 42.0585 12.7467 42.0159 13.152 42.0159C13.5787 42.0159 14.0267 42.0905 14.496 42.2399C14.9867 42.3679 15.4027 42.5705 15.744 42.8479C16.1067 43.1039 16.288 43.4345 16.288 43.8399C16.288 44.2239 16.1387 44.5759 15.84 44.8959C15.5413 45.1945 14.9333 45.4825 14.016 45.7599C13.824 45.8239 13.3867 45.9092 12.704 46.0159C12.0427 46.1225 11.2533 46.2612 10.336 46.4319C9.44 46.5812 8.52267 46.7519 7.584 46.9439C6.66667 47.1359 5.856 47.3385 5.152 47.5519C5.00267 48.7039 4.864 49.8559 4.736 51.0079C4.608 52.1599 4.50133 53.1625 4.416 54.0159C4.33067 54.8479 4.26667 55.3705 4.224 55.5839C4.096 56.3732 3.78667 56.9919 3.296 57.4399C2.80533 57.8879 2.24 58.1119 1.6 58.1119Z" fill="#5A3550"/>
<path d="M94.2159 48.8979C94.2159 45.8927 96.6521 43.4557 99.6573 43.4556C102.663 43.4556 105.1 45.8926 105.1 48.8979C105.1 51.9031 102.663 54.3394 99.6573 54.3394V57.939L100.123 57.9272C104.746 57.6928 108.453 53.986 108.688 49.3628L108.699 48.8979C108.699 43.9044 104.651 39.856 99.6573 39.856L99.1925 39.8677C94.4151 40.1098 90.6163 44.0604 90.6163 48.8979L90.628 49.3628C90.8701 54.1401 94.8199 57.9388 99.6573 57.939V54.3394C96.6522 54.3392 94.2161 51.903 94.2159 48.8979Z" fill="#9E5252"/>
<path d="M107.133 48.8979C107.133 45.8927 109.569 43.4557 112.574 43.4556C115.579 43.4556 118.016 45.8926 118.016 48.8979C118.016 51.9031 115.579 54.3394 112.574 54.3394V57.939L113.04 57.9272C117.663 57.6928 121.37 53.986 121.604 49.3628L121.616 48.8979C121.616 43.9044 117.568 39.856 112.574 39.856L112.109 39.8677C107.332 40.1098 103.533 44.0604 103.533 48.8979L103.545 49.3628C103.787 54.1401 107.737 57.9388 112.574 57.939V54.3394C109.569 54.3392 107.133 51.903 107.133 48.8979Z" fill="#5A3550"/>
<path d="M231.977 39.1111C231.977 54.2989 212.637 55 197.449 55C182.261 55 169.949 42.6878 169.949 27.5C169.949 12.3122 182.261 0 197.449 0C212.637 0 231.977 23.9233 231.977 39.1111Z" fill="#5A3550"/>
<path d="M169.949 27.5C169.949 12.3122 182.261 0 197.449 0L197.806 0.00390625C212.938 0.372525 231.977 24.0421 231.977 39.1113L231.963 39.8125C231.374 54.3207 212.4 55 197.449 55V50C205.153 50 213.035 49.7901 218.937 47.9727C221.828 47.0822 223.818 45.9254 225.059 44.5938C226.187 43.382 226.977 41.7342 226.977 39.1113C226.977 33.2388 223.001 24.5897 216.608 17.1084C213.5 13.472 210.031 10.3696 206.592 8.20996C203.108 6.02216 199.979 5 197.449 5C185.023 5 174.949 15.0736 174.949 27.5C174.949 39.9264 185.023 50 197.449 50V55L196.739 54.9912C182.116 54.6206 170.329 42.8337 169.958 28.21L169.949 27.5Z" fill="#F7F1E6"/>
<path d="M214.56 27.5C214.56 36.9502 206.9 44.6111 197.449 44.6111C187.999 44.6111 180.338 36.9502 180.338 27.5C180.338 18.0498 187.999 10.3889 197.449 10.3889C206.9 10.3889 214.56 18.0498 214.56 27.5Z" fill="#F7F1E6"/>
<path d="M203.616 28C203.616 31.3137 201.601 34 199.116 34C196.631 34 194.616 31.3137 194.616 28C194.616 24.6863 196.631 22 199.116 22C201.601 22 203.616 24.6863 203.616 28Z" fill="#5A3550"/>
<path d="M129.616 39.1111C129.616 54.2989 148.956 55 164.144 55C179.332 55 191.644 42.6878 191.644 27.5C191.644 12.3122 179.332 0 164.144 0C148.956 0 129.616 23.9233 129.616 39.1111Z" fill="#5A3550"/>
<path d="M191.644 27.5C191.644 12.3122 179.332 0 164.144 0L163.787 0.00390625C148.655 0.372525 129.616 24.0421 129.616 39.1113L129.63 39.8125C130.219 54.3207 149.193 55 164.144 55V50C156.44 50 148.558 49.7901 142.656 47.9727C139.765 47.0822 137.775 45.9254 136.534 44.5938C135.406 43.382 134.616 41.7342 134.616 39.1113C134.616 33.2388 138.592 24.5897 144.986 17.1084C148.093 13.472 151.562 10.3696 155.001 8.20996C158.485 6.02216 161.614 5 164.144 5C176.57 5 186.644 15.0736 186.644 27.5C186.644 39.9264 176.57 50 164.144 50V55L164.854 54.9912C179.478 54.6206 191.264 42.8337 191.635 28.21L191.644 27.5Z" fill="#F7F1E6"/>
<path d="M147.033 27.5C147.033 36.9502 154.694 44.6111 164.144 44.6111C173.594 44.6111 181.255 36.9502 181.255 27.5C181.255 18.0498 173.594 10.3889 164.144 10.3889C154.694 10.3889 147.033 18.0498 147.033 27.5Z" fill="#F7F1E6"/>
<path d="M168.616 28C168.616 31.3137 166.825 34 164.616 34C162.407 34 160.616 31.3137 160.616 28C160.616 24.6863 162.407 22 164.616 22C166.825 22 168.616 24.6863 168.616 28Z" fill="#5A3550"/>
<path d="M197.385 43.848C184.044 38.9455 179.336 39.7391 171.882 44.5712C164.427 49.4033 164.984 49.6076 166.571 59.024C168.158 68.4404 186.264 70.6774 196.588 70.0547C206.912 69.432 223.26 67.868 224.077 65.6446C224.895 63.4212 210.726 48.7504 197.385 43.848Z" fill="#5A3550"/>
<path d="M198.248 41.5015C205.331 44.1045 212.479 49.2219 217.705 53.886C220.332 56.2299 222.545 58.5236 224.074 60.4214C224.831 61.361 225.476 62.2713 225.914 63.0868C226.132 63.4908 226.342 63.9525 226.473 64.4376C226.588 64.8658 226.737 65.6558 226.424 66.5076C226.155 67.2393 225.664 67.7223 225.309 68.0062C224.936 68.305 224.525 68.5325 224.15 68.709C223.4 69.0621 222.482 69.3533 221.517 69.6037C219.564 70.1099 217.007 70.5496 214.235 70.9273C208.669 71.6859 201.932 72.2372 196.738 72.5504C191.372 72.8741 183.979 72.4621 177.638 70.7139C174.469 69.8402 171.418 68.5943 169.001 66.8252C166.56 65.0383 164.641 62.6139 164.106 59.4393C163.722 57.1635 163.367 55.2611 163.198 53.7506C163.027 52.225 162.994 50.7365 163.458 49.3067C163.942 47.8122 164.869 46.6807 166.042 45.659C167.169 44.6778 168.682 43.6655 170.521 42.4733C174.4 39.959 177.883 38.2842 182.301 38.0625C186.604 37.8465 191.511 39.026 198.248 41.5015ZM196.523 46.1946C189.919 43.7678 185.801 42.8926 182.551 43.0557C179.416 43.2132 176.817 44.3511 173.241 46.6689C171.353 47.8926 170.141 48.7185 169.325 49.4289C168.557 50.0984 168.323 50.512 168.213 50.8494C168.083 51.2516 168.021 51.8824 168.167 53.1942C168.316 54.5213 168.626 56.176 169.036 58.6083C169.294 60.1418 170.232 61.5294 171.955 62.7908C173.702 64.07 176.121 65.1093 178.967 65.8941C184.657 67.4627 191.48 67.8584 196.438 67.5593C201.568 67.2499 208.167 66.7073 213.56 65.9724C216.268 65.6034 218.596 65.1961 220.261 64.7643C220.514 64.6988 220.742 64.6326 220.947 64.571C220.738 64.2741 220.484 63.9354 220.181 63.5591C218.866 61.9276 216.857 59.8301 214.375 57.6158C209.386 53.1632 202.78 48.494 196.523 46.1946Z" fill="#F7F1E6"/>
<path d="M190.455 61.1678C195.501 62.2101 202.066 62.9721 207.349 63.4735C209.995 63.7245 212.327 63.9107 213.998 64.0342C214.833 64.096 215.504 64.1419 215.966 64.1726C216.197 64.1879 216.375 64.2001 216.497 64.2078C216.557 64.2116 216.603 64.214 216.634 64.2159C216.65 64.2169 216.661 64.2176 216.669 64.2181L216.681 64.2194L216.681 64.2184L216.682 64.2186C217.095 64.2433 217.451 63.9288 217.476 63.5155C217.499 63.1279 217.224 62.7908 216.848 62.7297L216.772 62.7218L216.761 62.7206C216.753 62.7201 216.742 62.7195 216.727 62.7186C216.696 62.7167 216.651 62.7144 216.591 62.7106C216.471 62.7031 216.294 62.6912 216.065 62.676C215.607 62.6456 214.939 62.6004 214.108 62.5389C212.445 62.4159 210.124 62.2297 207.492 61.9799C202.217 61.4794 195.721 60.7238 190.758 59.6989C185.805 58.6759 180.972 57.0808 177.37 55.7383C175.571 55.0678 174.083 54.4623 173.046 54.0243C172.528 53.8053 172.122 53.6281 171.847 53.5063C171.709 53.4455 171.604 53.3984 171.534 53.3667C171.499 53.3508 171.472 53.3379 171.454 53.3299C171.446 53.3262 171.44 53.3237 171.436 53.3218C171.434 53.3209 171.432 53.3198 171.431 53.3193L171.429 53.3191C171.053 53.1462 170.608 53.3103 170.435 53.6862C170.262 54.0624 170.427 54.5084 170.803 54.6817L170.805 54.6829C170.806 54.6835 170.808 54.6844 170.81 54.6855C170.815 54.6878 170.823 54.6906 170.833 54.695C170.852 54.7036 170.879 54.7167 170.916 54.7331C170.989 54.7664 171.098 54.8154 171.239 54.8779C171.521 55.0029 171.935 55.1829 172.462 55.4055C173.515 55.8505 175.024 56.465 176.846 57.1442C180.487 58.5013 185.399 60.1236 190.455 61.1678Z" fill="#F7F1E6"/>
</svg>
