<svg width="103" height="84" viewBox="0 0 103 84" fill="none" xmlns="http://www.w3.org/2000/svg">
<path d="M67.8333 2.5C70.9965 2.5 74.5898 3.75878 78.306 6.09277C81.9998 8.41267 85.6548 11.6964 88.8919 15.4844C95.4553 23.1647 99.8607 32.3781 99.8607 39.1113C99.8606 42.321 98.8621 44.5903 97.2728 46.2969C95.6274 48.0635 93.1861 49.3976 90.057 50.3613C83.7395 52.307 75.4823 52.5 67.8333 52.5C54.0262 52.5 42.8333 41.3071 42.8333 27.5C42.8333 13.6929 54.0262 2.5 67.8333 2.5Z" fill="#5A3550" stroke="#F7F1E6" stroke-width="5"/>
<circle cx="67.8333" cy="27.5" r="17.1111" fill="#F7F1E6"/>
<ellipse cx="69.5" cy="28" rx="4.5" ry="6" fill="#5A3550"/>
<path d="M34.5278 2.5C31.3646 2.5 27.7714 3.75878 24.0551 6.09277C20.3614 8.41267 16.7063 11.6964 13.4692 15.4844C6.90578 23.1647 2.50043 32.3781 2.50043 39.1113C2.50047 42.321 3.49902 44.5903 5.08832 46.2969C6.73368 48.0635 9.17504 49.3976 12.3041 50.3613C18.6216 52.307 26.8788 52.5 34.5278 52.5C48.3349 52.5 59.5278 41.3071 59.5278 27.5C59.5278 13.6929 48.3349 2.5 34.5278 2.5Z" fill="#5A3550" stroke="#F7F1E6" stroke-width="5"/>
<circle cx="17.1111" cy="17.1111" r="17.1111" transform="matrix(-1 0 0 1 51.6389 10.3889)" fill="#F7F1E6"/>
<ellipse cx="35" cy="28" rx="4" ry="6" fill="#5A3550"/>
<path d="M67.7691 43.848C54.4283 38.9455 49.7198 39.7391 42.2656 44.5712C34.8114 49.4033 35.3675 49.6076 36.9545 59.024C38.5415 68.4404 56.6478 70.6774 66.972 70.0547C77.2962 69.432 93.6439 67.868 94.4613 65.6446C95.2786 63.4212 81.1099 48.7504 67.7691 43.848Z" fill="#5A3550" stroke="#F7F1E6" stroke-width="5"/>
<path d="M41.5 54C41.5 54 50.9812 58.3657 60.9906 60.4329C71 62.5 87.1109 63.4702 87.1109 63.4702" stroke="#F7F1E6" stroke-width="1.5" stroke-linecap="round"/>
</svg>
