<svg width="122" height="111" viewBox="0 0 122 111" fill="none" xmlns="http://www.w3.org/2000/svg">
<path d="M85.9865 109.777C85.3892 109.777 84.8558 109.574 84.3865 109.169C83.9385 108.763 83.7145 108.102 83.7145 107.185C83.7145 106.694 83.7785 106.001 83.9065 105.105C84.0558 104.209 84.2478 103.238 84.4825 102.193C84.7172 101.126 84.9732 100.07 85.2505 99.0248C85.5492 97.9795 85.8372 97.0515 86.1145 96.2408C86.3918 95.4088 86.6372 94.7901 86.8505 94.3848C87.1278 93.8941 87.3838 93.5955 87.6185 93.4888C87.8745 93.3608 88.1198 93.2968 88.3545 93.2968C88.7812 93.2968 89.1758 93.4248 89.5385 93.6808C89.9225 93.9368 90.1145 94.5021 90.1145 95.3768C90.1145 95.7181 90.0505 96.2728 89.9225 97.0408C89.7945 97.7875 89.6345 98.6621 89.4425 99.6648C89.2505 100.667 89.0372 101.702 88.8025 102.769C88.5892 103.835 88.3758 104.849 88.1625 105.809C87.9705 106.747 87.8105 107.537 87.6825 108.177C87.5758 108.71 87.3518 109.105 87.0105 109.361C86.6905 109.638 86.3492 109.777 85.9865 109.777ZM89.6665 90.1288C88.9625 90.1288 88.3118 89.9261 87.7145 89.5208C87.1172 89.0941 86.8185 88.4435 86.8185 87.5688C86.8185 86.8435 86.9998 86.2568 87.3625 85.8088C87.7252 85.3608 88.1518 85.0408 88.6425 84.8488C89.1545 84.6355 89.6025 84.5288 89.9865 84.5288C90.3705 84.5288 90.7972 84.6141 91.2665 84.7848C91.7358 84.9341 92.1412 85.2221 92.4825 85.6488C92.8452 86.0541 93.0265 86.6408 93.0265 87.4088C93.0265 87.9208 92.8452 88.3901 92.4825 88.8168C92.1198 89.2221 91.6718 89.5421 91.1385 89.7768C90.6265 90.0115 90.1358 90.1288 89.6665 90.1288Z" fill="#5A3550"/>
<path d="M72.9615 110.897C71.0415 110.897 69.5268 110.31 68.4175 109.137C67.3295 107.942 66.7855 106.246 66.7855 104.049C66.7855 102.854 66.9455 101.457 67.2655 99.8568C67.5855 98.2355 68.0015 96.5288 68.5135 94.7368C69.0468 92.9235 69.6122 91.1315 70.2095 89.3608C70.8282 87.5901 71.4362 85.9475 72.0335 84.4328C72.6308 82.9181 73.1535 81.6488 73.6015 80.6248C73.9855 79.8355 74.5295 79.4408 75.2335 79.4408C75.6815 79.4408 76.0442 79.5795 76.3215 79.8568C76.6202 80.1341 76.7695 80.5821 76.7695 81.2008C76.7695 81.4995 76.6202 82.1501 76.3215 83.1528C76.0228 84.1555 75.6282 85.3928 75.1375 86.8648C74.6682 88.3155 74.1562 89.8835 73.6015 91.5688C73.0682 93.2541 72.5562 94.9501 72.0655 96.6568C71.5962 98.3635 71.2122 99.9741 70.9135 101.489C70.6148 102.982 70.4655 104.251 70.4655 105.297C70.4655 105.723 70.5828 106.065 70.8175 106.321C71.0735 106.577 71.4042 106.705 71.8095 106.705C72.6842 106.705 73.5802 106.545 74.4975 106.225C75.4362 105.905 76.3535 105.499 77.2495 105.009C78.1668 104.518 79.0308 103.995 79.8415 103.441C80.6522 102.886 81.3775 102.363 82.0175 101.873C82.6788 101.361 83.2122 100.955 83.6175 100.657C84.1508 100.251 84.5135 100.049 84.7055 100.049C85.4308 100.049 85.7935 100.401 85.7935 101.105C85.7935 101.275 85.5802 101.627 85.1535 102.161C84.7908 102.63 84.2788 103.227 83.6175 103.953C82.9562 104.678 82.1882 105.446 81.3135 106.257C80.4602 107.046 79.5428 107.793 78.5615 108.497C77.6015 109.201 76.6415 109.777 75.6815 110.225C74.7215 110.673 73.8148 110.897 72.9615 110.897Z" fill="#5A3550"/>
<path d="M47.7757 110.289C46.4957 110.289 45.6104 110.033 45.1197 109.521C44.6504 109.03 44.4157 108.347 44.4157 107.473C44.4157 103.761 45.1091 99.8887 46.4957 95.8567C47.9037 91.8034 49.8771 87.7394 52.4157 83.6647C52.8424 82.9607 53.1944 82.5447 53.4717 82.4167C53.7491 82.2887 54.0584 82.2247 54.3997 82.2247C54.8904 82.2247 55.3171 82.3954 55.6797 82.7367C56.0637 83.0781 56.2557 83.5261 56.2557 84.0807C56.2557 84.2514 56.0744 84.7207 55.7117 85.4887C55.3491 86.2567 54.8691 87.2381 54.2717 88.4327C53.6957 89.6274 53.0664 90.9821 52.3837 92.4967C51.7011 93.9901 51.0291 95.5687 50.3677 97.2327C49.7277 98.8967 49.1731 100.571 48.7037 102.257C49.4291 101.339 50.2504 100.401 51.1677 99.4407C52.1064 98.4594 53.0771 97.5634 54.0797 96.7527C55.0824 95.9207 56.0531 95.2594 56.9917 94.7687C57.9304 94.2567 58.7731 94.0007 59.5197 94.0007C60.2237 94.0007 60.8744 94.1714 61.4717 94.5127C62.0904 94.8541 62.5917 95.3874 62.9757 96.1127C63.3597 96.8381 63.5517 97.7767 63.5517 98.9287C63.5517 100.187 63.1891 101.478 62.4637 102.801C61.7597 104.123 60.7251 105.35 59.3597 106.481C58.0157 107.611 56.3624 108.529 54.3997 109.233C52.4584 109.937 50.2504 110.289 47.7757 110.289ZM49.1197 106.641C50.7624 106.513 52.2451 106.161 53.5677 105.585C54.9117 105.009 56.0637 104.294 57.0237 103.441C57.9837 102.587 58.7197 101.691 59.2317 100.753C59.7437 99.7927 59.9997 98.8861 59.9997 98.0327C59.9997 97.8407 59.9464 97.7447 59.8397 97.7447C59.3917 97.7447 58.8264 97.9474 58.1437 98.3527C57.4611 98.7367 56.7144 99.2594 55.9037 99.9207C55.0931 100.582 54.2717 101.307 53.4397 102.097C52.6077 102.886 51.8184 103.675 51.0717 104.465C50.3251 105.254 49.6744 105.979 49.1197 106.641Z" fill="#5A3550"/>
<path d="M21.268 110.513C20.5853 110.513 19.9667 110.321 19.412 109.937C18.8573 109.574 18.42 109.094 18.1 108.497C17.78 107.878 17.62 107.217 17.62 106.513C17.62 105.19 17.908 103.899 18.484 102.641C19.0813 101.382 19.86 100.187 20.82 99.0567C21.78 97.9261 22.8253 96.8914 23.956 95.9527C25.108 94.9927 26.2493 94.1714 27.38 93.4887C28.532 92.8061 29.5773 92.2727 30.516 91.8887C31.476 91.5047 32.2227 91.3127 32.756 91.3127C33.3747 91.3127 33.876 91.4514 34.26 91.7287C34.6653 91.9847 34.868 92.3901 34.868 92.9447C34.868 93.1154 34.8253 93.2541 34.74 93.3607C35.0173 93.4247 35.2413 93.5847 35.412 93.8407C35.5827 94.0967 35.668 94.4807 35.668 94.9927C35.668 95.2061 35.6147 95.7607 35.508 96.6567C35.4013 97.5527 35.284 98.6407 35.156 99.9207C35.0493 101.201 34.996 102.534 34.996 103.921C34.996 104.134 35.028 104.326 35.092 104.497C35.156 104.646 35.2947 104.721 35.508 104.721C36.3613 104.721 37.2253 104.55 38.1 104.209C38.996 103.846 39.86 103.409 40.692 102.897C41.5453 102.363 42.3133 101.841 42.996 101.329C43.7 100.795 44.2867 100.358 44.756 100.017C45.2467 99.6541 45.5667 99.4727 45.716 99.4727C46.4413 99.4727 46.804 99.8354 46.804 100.561C46.804 100.753 46.5693 101.158 46.1 101.777C45.652 102.374 45.0333 103.067 44.244 103.857C43.4547 104.625 42.5693 105.393 41.588 106.161C40.628 106.907 39.6253 107.526 38.58 108.017C37.556 108.507 36.564 108.753 35.604 108.753C34.4307 108.753 33.5347 108.475 32.916 107.921C32.3187 107.366 31.892 106.619 31.636 105.681C31.4013 104.721 31.2733 103.643 31.252 102.449C30.164 104.006 29.0333 105.393 27.86 106.609C26.708 107.803 25.5667 108.753 24.436 109.457C23.3053 110.161 22.2493 110.513 21.268 110.513ZM32.596 94.4807C30.5053 95.4834 28.628 96.6354 26.964 97.9367C25.3 99.2167 23.9773 100.561 22.996 101.969C22.036 103.377 21.556 104.731 21.556 106.033C21.556 106.395 21.7267 106.577 22.068 106.577C22.4733 106.577 23.0067 106.342 23.668 105.873C24.3507 105.403 25.0867 104.785 25.876 104.017C26.6653 103.227 27.4547 102.353 28.244 101.393C29.0333 100.411 29.7693 99.4087 30.452 98.3847C31.1347 97.3607 31.6787 96.3794 32.084 95.4407C32.2333 95.0994 32.404 94.7794 32.596 94.4807Z" fill="#5A3550"/>
<path d="M1.6 109.553C1.04533 109.553 0.64 109.286 0.384 108.753C0.128 108.219 0 107.27 0 105.905C0 103.985 0.117333 101.958 0.352 99.8248C0.608 97.6701 0.938667 95.3448 1.344 92.8488C1.70667 90.8648 2.57067 89.3394 3.936 88.2728C5.32267 87.2061 7.17867 86.3314 9.504 85.6488C10.9547 85.2221 12.4587 84.8274 14.016 84.4648C15.5733 84.1021 17.0347 83.8141 18.4 83.6008C19.7867 83.3661 20.928 83.2488 21.824 83.2488C22.5067 83.2488 23.04 83.3554 23.424 83.5688C23.808 83.7821 24.0747 84.0488 24.224 84.3688C24.3947 84.6674 24.48 84.9448 24.48 85.2008C24.48 85.6061 24.384 85.9688 24.192 86.2888C24 86.6088 23.584 86.8541 22.944 87.0248C22.6667 87.1101 22.08 87.2594 21.184 87.4728C20.3093 87.6648 19.232 87.8994 17.952 88.1768C16.6933 88.4541 15.36 88.7528 13.952 89.0728C12.544 89.3714 11.1787 89.6808 9.856 90.0008C8.55467 90.3848 7.59467 90.8541 6.976 91.4088C6.37867 91.9421 5.984 92.7208 5.792 93.7448C5.74933 93.9581 5.70667 94.2568 5.664 94.6408C6.53867 94.3634 7.47733 94.1394 8.48 93.9688C9.48267 93.7981 10.4107 93.6701 11.264 93.5848C12.1173 93.4994 12.7467 93.4568 13.152 93.4568C13.5787 93.4568 14.0267 93.5314 14.496 93.6808C14.9867 93.8088 15.4027 94.0114 15.744 94.2888C16.1067 94.5448 16.288 94.8754 16.288 95.2808C16.288 95.6648 16.1387 96.0168 15.84 96.3368C15.5413 96.6354 14.9333 96.9234 14.016 97.2008C13.824 97.2648 13.3867 97.3501 12.704 97.4568C12.0427 97.5634 11.2533 97.7021 10.336 97.8728C9.44 98.0221 8.52267 98.1928 7.584 98.3848C6.66667 98.5768 5.856 98.7794 5.152 98.9928C5.00267 100.145 4.864 101.297 4.736 102.449C4.608 103.601 4.50133 104.603 4.416 105.457C4.33067 106.289 4.26667 106.811 4.224 107.025C4.096 107.814 3.78667 108.433 3.296 108.881C2.80533 109.329 2.24 109.553 1.6 109.553Z" fill="#5A3550"/>
<path d="M94.2159 100.339C94.2159 97.3335 96.6521 94.8965 99.6573 94.8964C102.663 94.8964 105.1 97.3334 105.1 100.339C105.1 103.344 102.663 105.78 99.6573 105.78V109.38L100.123 109.368C104.746 109.134 108.453 105.427 108.688 100.804L108.699 100.339C108.699 95.3452 104.651 91.2968 99.6573 91.2968L99.1925 91.3085C94.4151 91.5506 90.6163 95.5012 90.6163 100.339L90.628 100.804C90.8701 105.581 94.8199 109.38 99.6573 109.38V105.78C96.6522 105.78 94.2161 103.344 94.2159 100.339Z" fill="#9E5252"/>
<path d="M107.133 100.339C107.133 97.3335 109.569 94.8965 112.574 94.8964C115.579 94.8964 118.016 97.3334 118.016 100.339C118.016 103.344 115.579 105.78 112.574 105.78V109.38L113.04 109.368C117.663 109.134 121.37 105.427 121.604 100.804L121.616 100.339C121.616 95.3452 117.568 91.2968 112.574 91.2968L112.109 91.3085C107.332 91.5506 103.533 95.5012 103.533 100.339L103.545 100.804C103.787 105.581 107.737 109.38 112.574 109.38V105.78C109.569 105.78 107.133 103.344 107.133 100.339Z" fill="#5A3550"/>
<path d="M109.977 39.1111C109.977 54.2989 90.6372 55 75.4493 55C60.2615 55 47.9493 42.6878 47.9493 27.5C47.9493 12.3122 60.2615 0 75.4493 0C90.6372 0 109.977 23.9233 109.977 39.1111Z" fill="#5A3550"/>
<path d="M47.9493 27.5C47.9493 12.3122 60.2615 0 75.4493 0C90.6372 0 109.977 23.9235 109.977 39.1113L109.963 39.8125C109.374 54.3207 90.3998 55 75.4493 55V50C83.1531 50 91.0352 49.7901 96.9366 47.9727C99.828 47.0822 101.818 45.9254 103.059 44.5938C104.187 43.382 104.977 41.7342 104.977 39.1113C104.977 33.2388 101.001 24.5897 94.6075 17.1084C91.5 13.472 88.0306 10.3696 84.5919 8.20996C81.1084 6.02216 77.9787 5 75.4493 5C63.0229 5 52.9493 15.0736 52.9493 27.5C52.9493 39.9264 63.0229 50 75.4493 50V55C60.2615 55 47.9493 42.6878 47.9493 27.5Z" fill="#F7F1E6"/>
<path d="M92.5604 27.5C92.5604 36.9502 84.8995 44.6111 75.4493 44.6111C65.9991 44.6111 58.3382 36.9502 58.3382 27.5C58.3382 18.0498 65.9991 10.3889 75.4493 10.3889C84.8995 10.3889 92.5604 18.0498 92.5604 27.5Z" fill="#F7F1E6"/>
<path d="M81.616 28C81.616 31.3137 79.6013 34 77.116 34C74.6307 34 72.616 31.3137 72.616 28C72.616 24.6863 74.6307 22 77.116 22C79.6013 22 81.616 24.6863 81.616 28Z" fill="#5A3550"/>
<path d="M7.61599 39.1111C7.61599 54.2989 26.9559 55 42.1438 55C57.3316 55 69.6438 42.6878 69.6438 27.5C69.6438 12.3122 57.3316 0 42.1438 0C26.9559 0 7.61599 23.9233 7.61599 39.1111Z" fill="#5A3550"/>
<path d="M69.6438 27.5C69.6438 12.3122 57.3316 0 42.1438 0C26.9559 0 7.61642 23.9235 7.61642 39.1113L7.6301 39.8125C8.2194 54.3207 27.1933 55 42.1438 55V50C34.44 50 26.5579 49.7901 20.6565 47.9727C17.7651 47.0822 15.7748 45.9254 14.5344 44.5938C13.4058 43.382 12.6165 41.7342 12.6164 39.1113C12.6164 33.2388 16.5922 24.5897 22.9856 17.1084C26.0931 13.472 29.5625 10.3696 33.0012 8.20996C36.4847 6.02216 39.6144 5 42.1438 5C54.5702 5 64.6438 15.0736 64.6438 27.5C64.6438 39.9264 54.5702 50 42.1438 50V55C57.3316 55 69.6438 42.6878 69.6438 27.5Z" fill="#F7F1E6"/>
<path d="M25.0327 27.5C25.0327 36.9502 32.6936 44.6111 42.1438 44.6111C51.594 44.6111 59.2549 36.9502 59.2549 27.5C59.2549 18.0498 51.594 10.3889 42.1438 10.3889C32.6936 10.3889 25.0327 18.0498 25.0327 27.5Z" fill="#F7F1E6"/>
<path d="M46.616 28C46.616 31.3137 44.8251 34 42.616 34C40.4069 34 38.616 31.3137 38.616 28C38.616 24.6863 40.4069 22 42.616 22C44.8251 22 46.616 24.6863 46.616 28Z" fill="#5A3550"/>
<path d="M75.3851 43.8481C62.0443 38.9457 57.3358 39.7392 49.8816 44.5713C42.4274 49.4034 42.9836 49.6077 44.5705 59.0241C46.1575 68.4405 64.2638 70.6775 74.588 70.0548C84.9122 69.4321 101.26 67.8682 102.077 65.6447C102.895 63.4213 88.7259 48.7505 75.3851 43.8481Z" fill="#5A3550"/>
<path d="M76.2477 41.5016C83.331 44.1046 90.4793 49.222 95.7052 53.8861C98.3316 56.2301 100.545 58.5238 102.074 60.4215C102.831 61.3611 103.476 62.2714 103.914 63.0869C104.132 63.4909 104.342 63.9526 104.473 64.4377C104.588 64.8659 104.737 65.6559 104.424 66.5078C104.155 67.2394 103.664 67.7224 103.309 68.0063C102.936 68.3051 102.525 68.5327 102.15 68.7091C101.4 69.0622 100.482 69.3534 99.5167 69.6038C97.5645 70.11 95.0068 70.5498 92.2354 70.9275C86.6691 71.686 79.9322 72.2373 74.7385 72.5506C69.3725 72.8742 61.9794 72.4622 55.6383 70.714C52.4693 69.8403 49.4178 68.5944 47.0013 66.8253C44.5604 65.0384 42.6409 62.6141 42.1059 59.4394C41.7223 57.1636 41.3669 55.2612 41.1978 53.7507C41.0271 52.2251 40.9937 50.7366 41.4575 49.3068C41.9424 47.8123 42.8689 46.6809 44.0423 45.6591C45.169 44.6779 46.6823 43.6656 48.5215 42.4734C52.4001 39.9591 55.8833 38.2844 60.3009 38.0626C64.6037 37.8467 69.5112 39.0261 76.2477 41.5016ZM74.523 46.1947C67.9189 43.7679 63.8011 42.8927 60.551 43.0559C57.4157 43.2133 54.8166 44.3513 51.2412 46.669C49.3534 47.8927 48.1411 48.7186 47.3253 49.4291C46.5565 50.0985 46.3229 50.5122 46.2134 50.8495C46.0829 51.2517 46.0205 51.8826 46.1674 53.1943C46.3159 54.5215 46.6259 56.1761 47.0359 58.6084C47.2943 60.1419 48.232 61.5295 49.955 62.7909C51.7024 64.0701 54.1208 65.1094 56.9673 65.8942C62.6571 67.4629 69.4795 67.8585 74.4377 67.5594C79.5681 67.25 86.1673 66.7075 91.5603 65.9725C94.2681 65.6035 96.5958 65.1962 98.2612 64.7644C98.5138 64.6989 98.7419 64.6327 98.9471 64.5712C98.7375 64.2742 98.484 63.9355 98.1808 63.5592C96.8663 61.9277 94.8566 59.8302 92.3755 57.6159C87.3864 53.1633 80.7802 48.4942 74.523 46.1947Z" fill="#F7F1E6"/>
<path d="M68.4547 61.1677C73.5015 62.2099 80.0656 62.972 85.3493 63.4734C87.995 63.7244 90.3273 63.9106 91.998 64.0341C92.8334 64.0959 93.5041 64.1418 93.9659 64.1725C94.1965 64.1878 94.3755 64.2 94.4966 64.2077C94.557 64.2115 94.6032 64.2139 94.6343 64.2158C94.6497 64.2168 94.6615 64.2175 94.6694 64.2179L94.6811 64.2193L94.6812 64.2183L94.6821 64.2184C95.0955 64.2432 95.4508 63.9287 95.4757 63.5153C95.499 63.1277 95.2236 62.7907 94.8484 62.7296L94.7716 62.7217L94.761 62.7204C94.7534 62.72 94.7419 62.7194 94.7268 62.7184C94.6964 62.7166 94.6508 62.7143 94.5911 62.7105C94.4714 62.703 94.2942 62.6911 94.0652 62.6759C93.6068 62.6455 92.9393 62.6002 92.1079 62.5388C90.4452 62.4158 88.1242 62.2296 85.4915 61.9798C80.2174 61.4793 73.7208 60.7236 68.7582 59.6988C63.805 58.6758 58.972 57.0806 55.3702 55.7382C53.5714 55.0677 52.0831 54.4622 51.0461 54.0241C50.5279 53.8052 50.1221 53.628 49.8469 53.5062C49.7094 53.4453 49.604 53.3983 49.5338 53.3665C49.4987 53.3507 49.4719 53.3377 49.4545 53.3298C49.4463 53.326 49.4399 53.3236 49.4358 53.3217C49.4338 53.3208 49.4321 53.3197 49.4312 53.3192L49.4292 53.319C49.0531 53.146 48.6081 53.3101 48.4348 53.6861C48.2616 54.0623 48.4266 54.5083 48.8028 54.6815L48.8046 54.6827C48.806 54.6833 48.8078 54.6842 48.8102 54.6853C48.8152 54.6876 48.8232 54.6905 48.8327 54.6948C48.8517 54.7035 48.8794 54.7166 48.9158 54.733C48.9893 54.7662 49.098 54.8153 49.2391 54.8778C49.5215 55.0028 49.935 55.1828 50.4617 55.4053C51.5152 55.8504 53.0236 56.4648 54.8459 57.1441C58.487 58.5012 63.3988 60.1235 68.4547 61.1677Z" fill="#F7F1E6"/>
</svg>
