<svg width="122" height="32" viewBox="0 0 122 32" fill="none" xmlns="http://www.w3.org/2000/svg">
<path d="M85.9865 30.336C85.3892 30.336 84.8558 30.1333 84.3865 29.728C83.9385 29.3227 83.7145 28.6613 83.7145 27.744C83.7145 27.2533 83.7785 26.56 83.9065 25.664C84.0558 24.768 84.2478 23.7973 84.4825 22.752C84.7172 21.6853 84.9732 20.6293 85.2505 19.584C85.5492 18.5387 85.8372 17.6107 86.1145 16.8C86.3918 15.968 86.6372 15.3493 86.8505 14.944C87.1278 14.4533 87.3838 14.1547 87.6185 14.048C87.8745 13.92 88.1198 13.856 88.3545 13.856C88.7812 13.856 89.1758 13.984 89.5385 14.24C89.9225 14.496 90.1145 15.0613 90.1145 15.936C90.1145 16.2773 90.0505 16.832 89.9225 17.6C89.7945 18.3467 89.6345 19.2213 89.4425 20.224C89.2505 21.2267 89.0372 22.2613 88.8025 23.328C88.5892 24.3947 88.3758 25.408 88.1625 26.368C87.9705 27.3067 87.8105 28.096 87.6825 28.736C87.5758 29.2693 87.3518 29.664 87.0105 29.92C86.6905 30.1973 86.3492 30.336 85.9865 30.336ZM89.6665 10.688C88.9625 10.688 88.3118 10.4853 87.7145 10.08C87.1172 9.65335 86.8185 9.00268 86.8185 8.12801C86.8185 7.40268 86.9998 6.81601 87.3625 6.36801C87.7252 5.92001 88.1518 5.60001 88.6425 5.40801C89.1545 5.19468 89.6025 5.08801 89.9865 5.08801C90.3705 5.08801 90.7972 5.17335 91.2665 5.34401C91.7358 5.49335 92.1412 5.78135 92.4825 6.20801C92.8452 6.61335 93.0265 7.20001 93.0265 7.96801C93.0265 8.48001 92.8452 8.94935 92.4825 9.37601C92.1198 9.78135 91.6718 10.1013 91.1385 10.336C90.6265 10.5707 90.1358 10.688 89.6665 10.688Z" fill="#5A3550"/>
<path d="M72.9615 31.456C71.0415 31.456 69.5268 30.8693 68.4175 29.696C67.3295 28.5013 66.7855 26.8053 66.7855 24.608C66.7855 23.4133 66.9455 22.016 67.2655 20.416C67.5855 18.7947 68.0015 17.088 68.5135 15.296C69.0468 13.4827 69.6122 11.6907 70.2095 9.92C70.8282 8.14933 71.4362 6.50667 72.0335 4.992C72.6308 3.47733 73.1535 2.208 73.6015 1.184C73.9855 0.394667 74.5295 0 75.2335 0C75.6815 0 76.0442 0.138667 76.3215 0.416C76.6202 0.693333 76.7695 1.14133 76.7695 1.76C76.7695 2.05867 76.6202 2.70933 76.3215 3.712C76.0228 4.71467 75.6282 5.952 75.1375 7.424C74.6682 8.87467 74.1562 10.4427 73.6015 12.128C73.0682 13.8133 72.5562 15.5093 72.0655 17.216C71.5962 18.9227 71.2122 20.5333 70.9135 22.048C70.6148 23.5413 70.4655 24.8107 70.4655 25.856C70.4655 26.2827 70.5828 26.624 70.8175 26.88C71.0735 27.136 71.4042 27.264 71.8095 27.264C72.6842 27.264 73.5802 27.104 74.4975 26.784C75.4362 26.464 76.3535 26.0587 77.2495 25.568C78.1668 25.0773 79.0308 24.5547 79.8415 24C80.6522 23.4453 81.3775 22.9227 82.0175 22.432C82.6788 21.92 83.2122 21.5147 83.6175 21.216C84.1508 20.8107 84.5135 20.608 84.7055 20.608C85.4308 20.608 85.7935 20.96 85.7935 21.664C85.7935 21.8347 85.5802 22.1867 85.1535 22.72C84.7908 23.1893 84.2788 23.7867 83.6175 24.512C82.9562 25.2373 82.1882 26.0053 81.3135 26.816C80.4602 27.6053 79.5428 28.352 78.5615 29.056C77.6015 29.76 76.6415 30.336 75.6815 30.784C74.7215 31.232 73.8148 31.456 72.9615 31.456Z" fill="#5A3550"/>
<path d="M47.7757 30.8479C46.4957 30.8479 45.6104 30.5919 45.1197 30.0799C44.6504 29.5893 44.4157 28.9066 44.4157 28.0319C44.4157 24.3199 45.1091 20.4479 46.4957 16.4159C47.9037 12.3626 49.8771 8.2986 52.4157 4.22393C52.8424 3.51993 53.1944 3.10393 53.4717 2.97593C53.7491 2.84794 54.0584 2.78394 54.3997 2.78394C54.8904 2.78394 55.3171 2.9546 55.6797 3.29593C56.0637 3.63727 56.2557 4.08527 56.2557 4.63993C56.2557 4.8106 56.0744 5.27994 55.7117 6.04794C55.3491 6.81594 54.8691 7.79727 54.2717 8.99194C53.6957 10.1866 53.0664 11.5413 52.3837 13.0559C51.7011 14.5493 51.0291 16.1279 50.3677 17.7919C49.7277 19.4559 49.1731 21.1306 48.7037 22.8159C49.4291 21.8986 50.2504 20.9599 51.1677 19.9999C52.1064 19.0186 53.0771 18.1226 54.0797 17.3119C55.0824 16.4799 56.0531 15.8186 56.9917 15.3279C57.9304 14.8159 58.7731 14.5599 59.5197 14.5599C60.2237 14.5599 60.8744 14.7306 61.4717 15.0719C62.0904 15.4133 62.5917 15.9466 62.9757 16.6719C63.3597 17.3973 63.5517 18.3359 63.5517 19.4879C63.5517 20.7466 63.1891 22.0373 62.4637 23.3599C61.7597 24.6826 60.7251 25.9093 59.3597 27.0399C58.0157 28.1706 56.3624 29.0879 54.3997 29.7919C52.4584 30.4959 50.2504 30.8479 47.7757 30.8479ZM49.1197 27.1999C50.7624 27.0719 52.2451 26.7199 53.5677 26.1439C54.9117 25.5679 56.0637 24.8533 57.0237 23.9999C57.9837 23.1466 58.7197 22.2506 59.2317 21.3119C59.7437 20.3519 59.9997 19.4453 59.9997 18.5919C59.9997 18.3999 59.9464 18.3039 59.8397 18.3039C59.3917 18.3039 58.8264 18.5066 58.1437 18.9119C57.4611 19.2959 56.7144 19.8186 55.9037 20.4799C55.0931 21.1413 54.2717 21.8666 53.4397 22.6559C52.6077 23.4453 51.8184 24.2346 51.0717 25.0239C50.3251 25.8133 49.6744 26.5386 49.1197 27.1999Z" fill="#5A3550"/>
<path d="M21.268 31.0719C20.5853 31.0719 19.9667 30.8799 19.412 30.4959C18.8573 30.1333 18.42 29.6533 18.1 29.056C17.78 28.4373 17.62 27.7759 17.62 27.0719C17.62 25.7493 17.908 24.4586 18.484 23.1999C19.0813 21.9413 19.86 20.7466 20.82 19.6159C21.78 18.4853 22.8253 17.4506 23.956 16.5119C25.108 15.5519 26.2493 14.7306 27.38 14.0479C28.532 13.3653 29.5773 12.8319 30.516 12.4479C31.476 12.0639 32.2227 11.8719 32.756 11.8719C33.3747 11.8719 33.876 12.0106 34.26 12.2879C34.6653 12.5439 34.868 12.9493 34.868 13.5039C34.868 13.6746 34.8253 13.8133 34.74 13.9199C35.0173 13.9839 35.2413 14.1439 35.412 14.3999C35.5827 14.6559 35.668 15.0399 35.668 15.5519C35.668 15.7653 35.6147 16.32 35.508 17.216C35.4013 18.1119 35.284 19.1999 35.156 20.4799C35.0493 21.76 34.996 23.0933 34.996 24.4799C34.996 24.6933 35.028 24.8853 35.092 25.056C35.156 25.2053 35.2947 25.2799 35.508 25.2799C36.3613 25.2799 37.2253 25.1093 38.1 24.7679C38.996 24.4053 39.86 23.9679 40.692 23.4559C41.5453 22.9226 42.3133 22.3999 42.996 21.8879C43.7 21.3546 44.2867 20.9173 44.756 20.5759C45.2467 20.2133 45.5667 20.0319 45.716 20.0319C46.4413 20.0319 46.804 20.3946 46.804 21.1199C46.804 21.3119 46.5693 21.7173 46.1 22.3359C45.652 22.9333 45.0333 23.6266 44.244 24.4159C43.4547 25.1839 42.5693 25.9519 41.588 26.7199C40.628 27.4666 39.6253 28.0853 38.58 28.576C37.556 29.0666 36.564 29.312 35.604 29.312C34.4307 29.312 33.5347 29.0346 32.916 28.4799C32.3187 27.9253 31.892 27.1786 31.636 26.2399C31.4013 25.2799 31.2733 24.2026 31.252 23.0079C30.164 24.5653 29.0333 25.9519 27.86 27.1679C26.708 28.3626 25.5667 29.3119 24.436 30.0159C23.3053 30.7199 22.2493 31.0719 21.268 31.0719ZM32.596 15.0399C30.5053 16.0426 28.628 17.1946 26.964 18.4959C25.3 19.7759 23.9773 21.1199 22.996 22.5279C22.036 23.9359 21.556 25.2906 21.556 26.5919C21.556 26.9546 21.7267 27.136 22.068 27.136C22.4733 27.136 23.0067 26.9013 23.668 26.4319C24.3507 25.9626 25.0867 25.3439 25.876 24.5759C26.6653 23.7866 27.4547 22.912 28.244 21.952C29.0333 20.9706 29.7693 19.9679 30.452 18.9439C31.1347 17.9199 31.6787 16.9386 32.084 15.9999C32.2333 15.6586 32.404 15.3386 32.596 15.0399Z" fill="#5A3550"/>
<path d="M1.6 30.112C1.04533 30.112 0.64 29.8453 0.384 29.312C0.128 28.7787 0 27.8293 0 26.464C0 24.544 0.117333 22.5173 0.352 20.384C0.608 18.2293 0.938667 15.904 1.344 13.408C1.70667 11.424 2.57067 9.89865 3.936 8.83198C5.32267 7.76532 7.17867 6.89065 9.504 6.20798C10.9547 5.78132 12.4587 5.38665 14.016 5.02398C15.5733 4.66132 17.0347 4.37332 18.4 4.15998C19.7867 3.92532 20.928 3.80798 21.824 3.80798C22.5067 3.80798 23.04 3.91465 23.424 4.12798C23.808 4.34132 24.0747 4.60798 24.224 4.92798C24.3947 5.22665 24.48 5.50398 24.48 5.75998C24.48 6.16532 24.384 6.52798 24.192 6.84798C24 7.16798 23.584 7.41332 22.944 7.58398C22.6667 7.66932 22.08 7.81865 21.184 8.03198C20.3093 8.22398 19.232 8.45865 17.952 8.73598C16.6933 9.01332 15.36 9.31198 13.952 9.63198C12.544 9.93065 11.1787 10.24 9.856 10.56C8.55467 10.944 7.59467 11.4133 6.976 11.968C6.37867 12.5013 5.984 13.28 5.792 14.304C5.74933 14.5173 5.70667 14.816 5.664 15.2C6.53867 14.9226 7.47733 14.6986 8.48 14.528C9.48267 14.3573 10.4107 14.2293 11.264 14.144C12.1173 14.0586 12.7467 14.016 13.152 14.016C13.5787 14.016 14.0267 14.0906 14.496 14.24C14.9867 14.368 15.4027 14.5707 15.744 14.848C16.1067 15.104 16.288 15.4346 16.288 15.84C16.288 16.224 16.1387 16.576 15.84 16.896C15.5413 17.1946 14.9333 17.4826 14.016 17.76C13.824 17.824 13.3867 17.9093 12.704 18.016C12.0427 18.1227 11.2533 18.2613 10.336 18.432C9.44 18.5813 8.52267 18.752 7.584 18.944C6.66667 19.136 5.856 19.3386 5.152 19.552C5.00267 20.704 4.864 21.856 4.736 23.008C4.608 24.16 4.50133 25.1627 4.416 26.016C4.33067 26.848 4.26667 27.3707 4.224 27.584C4.096 28.3733 3.78667 28.992 3.296 29.44C2.80533 29.888 2.24 30.112 1.6 30.112Z" fill="#5A3550"/>
<path d="M94.2159 20.8979C94.2159 17.8927 96.6521 15.4557 99.6573 15.4556C102.663 15.4556 105.1 17.8926 105.1 20.8979C105.1 23.9031 102.663 26.3394 99.6573 26.3394V29.939L100.123 29.9272C104.746 29.6928 108.453 25.986 108.688 21.3628L108.699 20.8979C108.699 15.9044 104.651 11.856 99.6573 11.856L99.1925 11.8677C94.4151 12.1098 90.6163 16.0604 90.6163 20.8979L90.628 21.3628C90.8701 26.1401 94.8199 29.9388 99.6573 29.939V26.3394C96.6522 26.3392 94.2161 23.903 94.2159 20.8979Z" fill="#9E5252"/>
<path d="M107.133 20.8979C107.133 17.8927 109.569 15.4557 112.574 15.4556C115.579 15.4556 118.016 17.8926 118.016 20.8979C118.016 23.9031 115.579 26.3394 112.574 26.3394V29.939L113.04 29.9272C117.663 29.6928 121.37 25.986 121.604 21.3628L121.616 20.8979C121.616 15.9044 117.568 11.856 112.574 11.856L112.109 11.8677C107.332 12.1098 103.533 16.0604 103.533 20.8979L103.545 21.3628C103.787 26.1401 107.737 29.9388 112.574 29.939V26.3394C109.569 26.3392 107.133 23.903 107.133 20.8979Z" fill="#5A3550"/>
</svg>
