<svg width="1516" height="111" viewBox="0 0 1516 111" fill="none" xmlns="http://www.w3.org/2000/svg">
<path d="M984.504 25.7971L983.157 26.5368C983.157 26.5368 949.236 49.0294 859.598 55.7539C776.985 61.9389 742.824 47.6001 737.964 45.3091C742.487 47.5264 772.847 61.1746 840.881 65.5845C840.881 65.5845 768.613 65.9302 724.203 45.0134V52.4785C724.203 52.4785 583.083 48.1177 526.163 26.5613C526.163 26.5613 526.211 26.5613 526.211 26.5368C526.259 26.5368 526.259 24.5406 526.259 24.517L966.317 23.8264L984.504 25.7971Z" fill="#5A3550"/>
<path d="M1141.17 25.3785L840.304 23.85C840.304 23.85 854.979 35.8005 885.243 47.3288C893.723 50.5544 902.379 53.3831 911.177 55.8038C955.106 67.9245 990.615 64.8948 994.271 65.5353C971.946 60.9279 943.751 50.1375 942.885 49.7926C1029.59 67.5542 1072.27 61.3219 1073.42 61.149L1068.9 65.5589C1073.32 63.8594 1081.55 61.7895 1088.91 60.1391C1099.45 57.749 1108.78 54.7193 1116.48 51.1228L1121.1 48.9783L1124.76 54.0533C1128.08 46.5155 1121.44 40.6271 1121.1 40.356C1132.07 47.4016 1153.15 56.6163 1153.82 56.912L1133.18 42.3758C1156.03 51.2447 1174.36 56.6163 1187.12 59.7688C1199.58 62.8486 1206.79 63.8585 1207.71 63.9577C1202.56 62.6352 1197.47 61.1144 1192.46 59.3994C1165.17 50.1611 1141.17 25.3785 1141.17 25.3785ZM542.33 21.4854C542.33 21.4854 494.311 46.3926 450.094 54.5965L457.022 49.6944C457.022 49.6944 396.735 62.4555 307.53 64.943L320.906 61.593C320.906 61.593 224.436 54.5965 179.256 42.4504C179.256 42.4504 213.754 57.356 238.87 63.4654C238.87 63.4654 168.382 51.9607 141.486 43.9288L58.9702 24.7625L542.33 21.4854Z" fill="#5A3550"/>
<path fill-rule="evenodd" clip-rule="evenodd" d="M519.956 31.0202C519.956 31.0202 482.668 35.0598 425.892 37.721L438.065 33.4831C438.065 33.4831 367.048 27.1025 292.133 31.8327C217.267 36.5637 195.326 40.3577 195.326 40.3577L221.02 50.6296C221.02 50.6296 189.793 45.0133 179.256 42.4266L119.45 31.3404L141.486 43.9051L55.4102 24.565L542.331 21.4607L519.956 31.0202Z" fill="#5A3550"/>
<path d="M1515.06 25.625C1515.06 25.625 1502.99 45.6775 1442.65 67.8999L1464.06 45.5055C1464.06 45.5055 1447.27 55.5572 1368.51 59.5486C1289.74 63.54 1222.96 48.043 1222.96 48.043L1269.39 64.7219C1269.39 64.7219 1175.76 54.2025 1141.31 42.968C1089.88 26.2155 1092.33 24.7134 1092.33 24.7134L1515.06 25.625Z" fill="#5A3550"/>
<path fill-rule="evenodd" clip-rule="evenodd" d="M1496.78 48.0184L1499.14 37.3763C1499.14 37.3763 1375.68 32.4978 1295.76 35.6758L1392.28 44.7667C1392.28 44.7667 1297.15 38.2379 1217.23 40.012L1190 45.8258L1209.68 54.3745C1209.68 54.3745 1144.82 42.3521 1122.5 27.522L1515.02 25.625C1515.07 25.625 1510.49 40.1849 1496.78 48.0184Z" fill="#5A3550"/>
<path d="M1398.92 23.901C1398.92 23.901 1320.34 87.3874 1189.62 89.8758C1058.89 92.3887 809.27 9.85696 809.27 9.85696L791.66 9.78418C791.66 9.78418 1048.26 91.1814 1184.95 92.0193C1321.6 92.8564 1411.91 24.6143 1411.91 24.6143L1398.92 23.901Z" fill="#5A3550"/>
<path d="M1192.41 97.9813C1225.17 97.9813 1267.37 88.2253 1308.36 71.1771C1344.74 56.0504 1373.9 37.7957 1382.7 24.6643L1379.67 24.5651C1361.68 51.4185 1262.66 97.3153 1192.46 97.3153H1191.78C1120.72 97.0206 979.452 57.6517 970.791 54.0551C967.712 52.7741 963.43 50.5814 959.244 48.4379C951.401 44.4219 946.397 41.9336 943.558 41.4659C942.067 41.2194 939.228 41.1202 930.664 40.8991C911.081 40.406 874.658 39.4944 857.529 35.331C834.53 29.7392 841.026 15.5733 841.074 15.425L838.043 15.3513C837.754 15.9427 831.355 29.9603 855.22 35.775C873.118 40.1349 910.311 41.0711 930.279 41.5642C935.908 41.7116 941.682 41.8599 942.644 42.0073C945.05 42.4021 950.92 45.9004 956.405 48.709C960.591 50.8517 964.921 53.0689 968.049 54.3754C976.806 57.9965 1119.51 97.6856 1191.69 97.9813H1192.41ZM1.51607 58.2995C1.51607 58.2995 73.4761 95.9906 162.673 98.0277C232.355 99.6163 469.702 17.5722 469.702 17.5722L474.58 22.6927C474.58 22.6927 247.891 97.2316 170.199 99.6745C79.5531 102.517 0.476074 61.038 0.476074 61.038L1.51607 58.2995Z" fill="#5A3550"/>
<path d="M220.985 102.187C205.704 106.006 191.384 108.473 180.264 108.333C160.655 108.056 113.321 94.0318 105.228 91.5743C106.626 95.2009 111.764 109.476 106.085 110.89L105.719 110.951C99.4831 111.888 75.9991 90.4134 69.7621 84.5878C68.9221 85.8934 66.4081 88.541 60.3281 89.167C54.9051 89.7092 45.2301 81.4253 35.0211 72.1424C32.2541 69.624 29.6381 67.2621 28.9871 67.0337C28.4561 66.9154 26.0571 67.6005 24.1331 68.1546C19.7651 69.4011 13.7781 71.1261 9.75912 70.138C3.38912 68.5586 8.74912 62.43 8.99712 62.1816L10.0581 62.4182C9.99712 62.4819 4.93012 68.2756 10.2831 69.6103C13.7571 70.4565 19.4081 68.8397 23.5621 67.6542C26.7241 66.738 28.4491 66.2686 29.4651 66.5142C30.2391 66.6962 31.6981 67.9554 36.0131 71.8731C42.6751 77.887 55.0341 89.1178 60.1231 88.6047C67.4971 87.8677 69.0721 83.8218 69.0421 83.7744L69.3271 82.9501L70.0931 83.6771C81.4401 94.3502 101.077 111.052 105.422 110.405L105.65 110.367C109.574 109.375 106.68 98.0687 103.835 91.0548L103.57 90.3998L104.707 90.7537C105.267 90.9193 159.567 107.46 180.302 107.757C224.434 108.401 320.506 66.6925 321.501 66.2677L322.24 66.7135C321.521 67.0155 267.012 90.6973 220.985 102.187Z" fill="#5A3550"/>
<rect width="1515" height="27.2947" fill="#5A3550"/>
</svg>
