<svg width="1280" height="720" viewBox="0 0 1280 720" fill="none" xmlns="http://www.w3.org/2000/svg">
<g clip-path="url(#clip0_12_421)">
<path d="M1280 0H0V720H1280V0Z" fill="#F7F1E6"/>
<path opacity="0.45" d="M953.333 286.667C1008.56 286.667 1053.33 241.895 1053.33 186.667C1053.33 131.438 1008.56 86.6667 953.333 86.6667C898.105 86.6667 853.333 131.438 853.333 186.667C853.333 241.895 898.105 286.667 953.333 286.667Z" fill="#D9C7AB"/>
<path opacity="0.16" d="M953.333 340C1038.02 340 1106.67 271.35 1106.67 186.667C1106.67 101.983 1038.02 33.3333 953.333 33.3333C868.65 33.3333 800 101.983 800 186.667C800 271.35 868.65 340 953.333 340Z" fill="#D9C7AB"/>
<path d="M213.333 155.333C249.784 155.333 279.333 145.484 279.333 133.333C279.333 121.183 249.784 111.333 213.333 111.333C176.882 111.333 147.333 121.183 147.333 133.333C147.333 145.484 176.882 155.333 213.333 155.333Z" fill="#EFE6D2"/>
<path d="M173 156.8C195.275 156.8 213.333 149.577 213.333 140.667C213.333 131.757 195.275 124.533 173 124.533C150.724 124.533 132.667 131.757 132.667 140.667C132.667 149.577 150.724 156.8 173 156.8Z" fill="#EFE6D2"/>
<path d="M257.333 156.8C281.634 156.8 301.333 148.92 301.333 139.2C301.333 129.48 281.634 121.6 257.333 121.6C233.032 121.6 213.333 129.48 213.333 139.2C213.333 148.92 233.032 156.8 257.333 156.8Z" fill="#EFE6D2"/>
<path d="M220.666 137.733C242.942 137.733 261 129.854 261 120.133C261 110.413 242.942 102.533 220.666 102.533C198.391 102.533 180.333 110.413 180.333 120.133C180.333 129.854 198.391 137.733 220.666 137.733Z" fill="#EFE6D2"/>
<path d="M666.667 96C693.176 96 714.667 88.8366 714.667 80C714.667 71.1634 693.176 64 666.667 64C640.157 64 618.667 71.1634 618.667 80C618.667 88.8366 640.157 96 666.667 96Z" fill="#EFE6D2"/>
<path d="M637.333 97.0668C653.534 97.0668 666.667 91.8136 666.667 85.3334C666.667 78.8533 653.534 73.6001 637.333 73.6001C621.133 73.6001 608 78.8533 608 85.3334C608 91.8136 621.133 97.0668 637.333 97.0668Z" fill="#EFE6D2"/>
<path d="M698.667 97.0668C716.34 97.0668 730.667 91.336 730.667 84.2668C730.667 77.1976 716.34 71.4668 698.667 71.4668C680.993 71.4668 666.667 77.1976 666.667 84.2668C666.667 91.336 680.993 97.0668 698.667 97.0668Z" fill="#EFE6D2"/>
<path d="M672 83.2001C688.2 83.2001 701.333 77.4693 701.333 70.4001C701.333 63.3309 688.2 57.6001 672 57.6001C655.799 57.6001 642.667 63.3309 642.667 70.4001C642.667 77.4693 655.799 83.2001 672 83.2001Z" fill="#EFE6D2"/>
<path d="M1133.33 298C1163.16 298 1187.33 289.941 1187.33 280C1187.33 270.059 1163.16 262 1133.33 262C1103.51 262 1079.33 270.059 1079.33 280C1079.33 289.941 1103.51 298 1133.33 298Z" fill="#EFE6D2"/>
<path d="M1100.33 299.2C1118.56 299.2 1133.33 293.29 1133.33 286C1133.33 278.71 1118.56 272.8 1100.33 272.8C1082.11 272.8 1067.33 278.71 1067.33 286C1067.33 293.29 1082.11 299.2 1100.33 299.2Z" fill="#EFE6D2"/>
<path d="M1169.33 299.2C1189.22 299.2 1205.33 292.753 1205.33 284.8C1205.33 276.847 1189.22 270.4 1169.33 270.4C1149.45 270.4 1133.33 276.847 1133.33 284.8C1133.33 292.753 1149.45 299.2 1169.33 299.2Z" fill="#EFE6D2"/>
<path d="M1139.33 283.6C1157.56 283.6 1172.33 277.153 1172.33 269.2C1172.33 261.247 1157.56 254.8 1139.33 254.8C1121.11 254.8 1106.33 261.247 1106.33 269.2C1106.33 277.153 1121.11 283.6 1139.33 283.6Z" fill="#EFE6D2"/>
<path d="M413.333 299.667C434.872 299.667 452.333 293.846 452.333 286.667C452.333 279.487 434.872 273.667 413.333 273.667C391.794 273.667 374.333 279.487 374.333 286.667C374.333 293.846 391.794 299.667 413.333 299.667Z" fill="#EFE6D2"/>
<path d="M389.5 300.533C402.663 300.533 413.333 296.265 413.333 291C413.333 285.735 402.663 281.467 389.5 281.467C376.337 281.467 365.667 285.735 365.667 291C365.667 296.265 376.337 300.533 389.5 300.533Z" fill="#EFE6D2"/>
<path d="M439.333 300.533C453.692 300.533 465.333 295.877 465.333 290.133C465.333 284.39 453.692 279.733 439.333 279.733C424.974 279.733 413.333 284.39 413.333 290.133C413.333 295.877 424.974 300.533 439.333 300.533Z" fill="#EFE6D2"/>
<path d="M417.666 289.267C430.829 289.267 441.5 284.611 441.5 278.867C441.5 273.123 430.829 268.467 417.666 268.467C404.504 268.467 393.833 273.123 393.833 278.867C393.833 284.611 404.504 289.267 417.666 289.267Z" fill="#EFE6D2"/>
</g>
<defs>
<clipPath id="clip0_12_421">
<rect width="1280" height="720" fill="white"/>
</clipPath>
</defs>
</svg>
