<svg width="1280" height="720" viewBox="0 0 1280 720" fill="none" xmlns="http://www.w3.org/2000/svg">
<path d="M676.222 220.769C685.543 209.259 695.073 207.447 704.813 215.334C712.7 205.595 722.399 205.385 733.909 214.706C722.988 210.994 715.06 212.637 710.125 219.636L705.95 226.151L700.511 220.647C694.228 214.827 686.132 214.867 676.222 220.769Z" fill="#241D1A"/>
<path d="M808.755 158.195C817.251 150.81 824.623 150.711 830.872 157.9C838.06 151.651 845.347 152.774 852.732 161.27C845.048 157.05 838.898 157.233 834.28 161.821L830.295 166.145L826.951 161.308C823.017 156.123 816.952 155.085 808.755 158.195Z" fill="#241D1A"/>
<path d="M908.883 247.712C915.226 240.667 921.378 239.828 927.338 245.195C932.706 239.235 938.911 239.426 945.956 245.769C939.1 243.03 933.978 243.815 930.59 248.123L927.703 252.146L924.411 248.447C920.591 244.516 915.415 244.271 908.883 247.712Z" fill="#241D1A"/>
<path d="M1040.18 93.8307C1046.54 88.4992 1051.97 88.5216 1056.48 93.8979C1061.86 89.3866 1067.21 90.3079 1072.54 96.6618C1066.94 93.454 1062.4 93.5102 1058.94 96.8304L1055.95 99.9653L1053.55 96.3586C1050.72 92.4879 1046.26 91.6452 1040.18 93.8307Z" fill="#241D1A"/>
<path d="M1149.94 153.251C1154.55 148.643 1158.81 148.289 1162.71 152.188C1166.6 148.289 1170.86 148.643 1175.47 153.251C1170.86 151.125 1167.31 151.479 1164.83 154.315L1162.71 156.974L1160.58 154.315C1158.1 151.479 1154.55 151.125 1149.94 153.251Z" fill="#241D1A"/>
</svg>
