<svg width="1440" height="314" viewBox="0 0 1440 314" fill="none" xmlns="http://www.w3.org/2000/svg">
<mask id="mask0_44_244" style="mask-type:luminance" maskUnits="userSpaceOnUse" x="0" y="0" width="1440" height="314">
<path d="M0 0H1440V314H0V0Z" fill="white"/>
</mask>
<g mask="url(#mask0_44_244)">
<path d="M327.612 191.276C327.612 191.276 325.158 179.964 319.243 177.261C324.374 177.509 332.939 189.878 332.939 189.878C331.931 182.575 330.271 177.385 328.638 172.537C331.754 176.639 333.433 182.979 334.945 189.598C334.945 189.598 339.74 176.36 345.683 171.822C338.173 185.589 338.023 189.412 338.023 189.412C338.023 189.412 342.035 177.23 357 168C341.914 184.346 342.455 186.832 342.455 186.832C346.821 180.462 351.094 176.577 355.171 177.851C350.749 180.337 346.915 184.191 344.172 190.593L343.565 194.726L324.188 196C319.56 186.118 311.854 182.886 303 182.14C311.219 179.654 320.997 183.134 327.612 191.276Z" fill="#5A3550"/>
<path d="M1298.5 153.844C1298.5 153.844 1288.63 160.182 1283.97 163.84C1283.56 167.957 1283.39 173.425 1280.3 176.662C1277.64 179.412 1261.99 197.946 1261.34 199.137C1260.7 200.329 1280.76 185.703 1282.78 184.144C1284.79 182.585 1291.48 168.281 1294.2 167.685C1296.89 167.091 1309.1 174.179 1310.78 173.44C1312.47 172.734 1287 163.659 1287.66 162.981C1288.32 162.303 1298.03 155.397 1299.3 153.632C1300.03 152.605 1308.28 147.755 1308.28 147.755C1308.28 147.755 1300.98 152.207 1298.5 153.844Z" fill="#D9C7AB"/>
<path d="M1293.49 166.722C1293.49 166.722 1300.75 170.228 1307.27 172.533C1313.8 174.873 1310.82 177.139 1309.87 180.519C1308.95 183.896 1297.65 193.624 1297.65 193.624C1297.65 193.624 1292.11 188.621 1289.13 191.231C1286.15 193.84 1280.57 199.401 1280.57 199.401L1257.46 203.476C1257.46 203.476 1275.14 191.576 1276.78 190.361C1278.44 189.142 1288.94 175.238 1289.24 173.358C1289.52 171.516 1292.1 165.721 1292.1 165.721L1293.49 166.722Z" fill="#5A3550"/>
<path d="M1437.83 98.0571C1437.83 98.0571 1439.92 106.468 1439.37 110.153C1440.9 111.484 1449.08 109.521 1450.51 110.485C1455.2 113.75 1454.81 120.506 1456.42 124.607C1456.64 125.101 1450.79 125.544 1451.11 126.097C1451.6 126.908 1463.84 129.16 1464.47 129.993C1466.89 133.161 1464.37 135.145 1464.46 137.228C1464.53 140.238 1437.08 179.311 1429.65 187.855L1289.88 200.383C1289.88 200.383 1299.33 153.561 1312.17 144.581C1312.17 144.581 1334.41 129.82 1349.72 117.079C1353.63 114.622 1358.79 115.444 1361.6 113.672C1364.81 111.659 1366.91 111.806 1367.61 111.158C1371.37 111.047 1376.66 111.581 1379.37 110.506C1380.96 109.878 1380.11 107.729 1381.62 107.039C1384.55 105.703 1387.57 104.976 1388.78 104.006C1394.66 103.114 1421.69 99.5981 1437.83 98.0571Z" fill="#5A3550"/>
<path d="M1450.14 110.177C1450.14 110.177 1434.63 118.447 1425.6 124.946C1416.6 131.408 1397.06 144.27 1390.5 152.528C1383.93 160.786 1376.04 171.43 1376.04 171.43C1376.04 171.43 1385.13 143.943 1388.42 139.488C1391.71 135.033 1395.41 130.574 1395.36 128.213C1395.27 125.855 1403.41 121.599 1406.05 119.33C1410.39 118.136 1415.89 116.458 1420.92 115.166C1426.11 113.859 1433.96 111.72 1433.96 111.72C1433.96 111.72 1439.65 109.064 1450.14 110.177ZM1453.1 113.26C1453.1 113.26 1456.66 123.521 1456.43 124.64C1456.38 124.851 1450.09 128.352 1450.34 128.877C1450.64 129.466 1464.57 129.263 1465.1 130.105C1466.58 132.469 1465.1 133.842 1466.05 134.405C1471.24 137.52 1466.6 148.41 1465.27 149.94C1463.94 151.504 1491.13 172.108 1481.76 178.262C1472.39 184.416 1387.83 194.123 1376.53 188.766C1374.38 187.733 1381.62 175.4 1384.64 173.131C1387.65 170.862 1410.67 159.353 1413.71 158.076C1416.74 156.799 1444.89 141.727 1445.84 138.999C1446.78 136.271 1450.27 131.454 1449.24 131.002C1448.2 130.516 1438.79 141.782 1435.45 144.219C1432.05 146.663 1395.88 162.516 1395.88 162.516C1395.88 162.516 1440.89 129.69 1443.19 126.424C1445.49 123.158 1452.82 114.967 1453.1 113.26Z" fill="#5A3550"/>
<path d="M1367.18 111.335C1367.18 111.335 1365.75 112.565 1362.06 113.458C1357.63 114.488 1350.79 115.333 1349.52 117.234C1355.18 120.134 1358.48 123.563 1360.82 123.653C1361.64 123.679 1360.95 157.754 1363.94 156C1360.01 159.418 1377.12 140.68 1384.67 120.948C1386.5 117.829 1385.72 117.147 1386.08 116.634C1386.35 116.197 1395.85 115.448 1396.8 115.428C1400.88 115.424 1409.94 114.064 1415.33 113.322C1415.97 113.228 1410.93 112.532 1403.67 112.627C1404.57 112.277 1405.46 111.908 1406.35 111.52C1412.81 108.723 1424 103.05 1427.18 101.519C1430.89 99.7328 1437.28 98.0398 1437.28 98.0398C1435.24 97.4418 1418.41 97.1268 1409.83 98.9208C1399.58 99.6378 1387.89 102.546 1387.89 102.546C1387.89 102.546 1384.2 105.256 1381.74 106.788C1385.45 106.922 1395.66 110.152 1395.16 110.301C1389.41 109.706 1381.39 109.666 1378.97 109.858C1374.76 110.285 1369.9 110.395 1367.18 111.335Z" fill="#D9C7AB"/>
<path d="M1383.94 115.291C1383.94 115.291 1376.76 114.452 1374.7 114.096C1374.21 114.313 1383.13 116.257 1382.56 116.688C1381.46 117.476 1381.17 118.394 1380.04 120.214C1376.6 131.061 1366.96 152.016 1362.04 158.029C1357.11 164.042 1341.91 175.952 1339.24 177.538C1336.55 179.127 1355.42 152.51 1355.62 147.623C1355.81 142.737 1364 126.922 1360.15 123.51C1360.31 122.193 1375.9 120.258 1378.52 117.134C1379.04 116.502 1361.39 113.966 1361.89 113.44C1363.88 112.397 1366.72 111.515 1367.18 111.335C1370.09 111.646 1378.96 114.898 1385.41 114.88C1391.88 114.858 1405.73 114.114 1405.73 114.114C1405.73 114.114 1381.93 115.855 1383.94 115.291ZM1373.92 162.68C1373.06 162.966 1362.85 170.398 1354.72 176.231C1348.82 184.633 1336 187.234 1330.34 191.602C1324.68 195.97 1309.36 194.177 1309.36 194.177L1348.51 193.061C1348.51 193.061 1367.43 190.816 1369.66 185.705C1371.89 180.594 1445.04 171.3 1460.84 154.33C1412.37 166.909 1388.97 170.772 1377.28 172.172C1381.6 168.855 1422.86 153.28 1422.86 153.28C1422.86 153.28 1378.31 161.208 1373.92 162.68Z" fill="#5A3550"/>
<path d="M1282.85 199.633C1282.85 199.633 1312.47 178.631 1313.7 177.932C1316.05 176.616 1319.61 172.856 1321.55 171.269C1324.55 168.83 1340.21 161.471 1345.14 155.115C1350.07 148.758 1360.78 130.616 1360.78 130.616C1360.78 130.616 1341.14 152.71 1339.14 155.126C1337.17 157.538 1324.79 165.961 1321.46 168.055C1318.12 170.183 1313.39 172.75 1311.02 173.006C1308.64 173.228 1305.23 169.775 1302.13 168.864C1299.03 167.954 1283.73 163.827 1283.73 163.827C1283.73 163.827 1303.19 171.096 1308.78 175.135C1311.28 176.958 1293.05 187.367 1282.85 199.633Z" fill="#D9C7AB"/>
<path d="M1338.79 181.077C1338.79 181.077 1334.17 186.41 1326.41 189.5C1318.67 192.588 1304.34 190.36 1299.65 193.025C1294.96 195.691 1285.6 200.85 1285.6 200.85C1285.6 200.85 1299.67 194.327 1303 192.199C1306.34 190.105 1311.83 185.066 1311.41 183.049C1311.01 181.029 1314.54 180.322 1314.54 180.322C1314.54 180.322 1317.54 177.883 1318.9 177.002C1320.22 176.124 1336.79 165.973 1338.08 163.59C1339.37 161.207 1345.66 154.038 1346.66 153.019C1347.66 151.965 1353.76 143.477 1355.44 142.428C1357.13 141.38 1361.11 127.089 1361.11 127.089C1361.11 127.089 1355.63 150.33 1355.3 151.184C1354.97 152.038 1348.91 165.802 1346.93 168.387C1344.98 171.003 1340.49 180.199 1338.79 181.077Z" fill="#5A3550"/>
<path d="M1321.2 140.721C1337.72 152.036 1448.42 178.905 1454 203.479H1257.43L1226.27 205.735L1223.11 183.986C1223.11 183.986 1238.44 172.304 1250.9 166.548C1263.32 160.829 1280.89 147.739 1285.25 145.241C1289.61 142.777 1301.08 135.193 1302.07 133.318C1303.02 131.446 1307.71 124.324 1307.71 124.324C1307.71 124.324 1322.25 133.938 1321.2 140.721Z" fill="#5A3550"/>
<path d="M1214.02 153.841C1214.02 153.841 1213.58 159.745 1223.43 159.134C1233.28 158.524 1238.44 159.38 1242.22 160.604C1246 161.828 1245.88 169.759 1245.88 169.759C1245.88 169.759 1283.78 149.355 1288.44 144.498C1293.06 139.678 1301.1 134.711 1302.07 133.352C1303.04 131.993 1309.9 124.668 1307.71 124.358C1305.55 124.011 1295.94 122.439 1292.89 122.381C1289.83 122.289 1283.66 121.973 1282.67 122.684C1282.44 122.842 1282.21 124.097 1277.94 126.039C1276.26 126.812 1270.29 126.718 1268.21 127.632C1265.88 128.673 1264.81 130.829 1262.18 132.001C1245.99 139.271 1225.75 148.325 1223.12 149.598C1218.79 151.682 1214.31 152.923 1214.02 153.841Z" fill="#5A3550"/>
<path d="M1210.1 157.327C1210.1 157.327 1204.41 160.669 1204.12 161.999C1203.8 163.366 1203.63 169.587 1203.63 169.587C1203.63 169.587 1213.59 169.789 1218.96 169.665C1224.06 169.532 1237.66 168.298 1240.07 169.238C1242.49 170.178 1231.47 177.72 1231.47 177.72C1231.47 177.72 1243.81 171.015 1245.44 169.457C1247.11 167.895 1252.13 165.85 1252.78 164.315C1253.43 162.781 1258.78 159.505 1258.78 159.505C1258.78 159.505 1247.62 158.215 1242.5 158.863C1235.39 158.395 1230.67 157.396 1226.59 156.577C1221.83 155.615 1217.76 153.492 1214.67 153.095C1212.49 155.801 1212.14 156.417 1210.1 157.327Z" fill="#D9C7AB"/>
<path d="M1222.46 184.698C1222.46 184.698 1222.89 187.537 1226.12 193.853C1228.55 198.563 1239.98 202.365 1241.15 204.689C1241.19 204.754 1226.27 205.769 1226.27 205.769L1191.66 208.828C1191.66 208.828 1195.8 197.745 1195.4 192.674C1195.31 191.722 1198.28 178.074 1198.26 176.362C1198.21 174.344 1198.46 172.606 1198.46 172.606L1206.35 167.516C1225.49 167.205 1251.12 164.916 1235.61 175.071C1235.61 175.071 1224.13 182.827 1223.15 184.016C1222.16 185.206 1222.46 184.698 1222.46 184.698Z" fill="#5A3550"/>
<path d="M1231.92 154.262C1231.92 154.262 1220.04 152.149 1227.43 148.75C1234.83 145.351 1245.4 134.08 1263.16 133.349C1265.58 133.259 1276.92 134.945 1277.21 133.272C1277.5 131.599 1269.25 127.363 1269.25 127.363C1269.25 127.363 1281.35 126.2 1286.55 126.435C1285.14 124.955 1282.7 122.68 1282.7 122.68C1282.7 122.68 1292.62 124.257 1296.38 125.312C1300.15 126.366 1300.52 127.051 1300.52 127.051C1300.52 127.051 1299.23 125.354 1295.11 124.128C1290.98 122.902 1286.13 122.292 1286.13 122.292C1286.13 122.292 1295.04 121.529 1302.11 123.132C1305.2 123.529 1307.71 124.392 1307.71 124.392C1307.71 124.392 1303.01 130.179 1300.65 132.113C1298.33 134.01 1290.62 141.38 1287.86 143.454C1284.46 146 1281.99 147.396 1277.59 150.55C1273.86 153.229 1258.99 162.879 1256.25 162.895C1263.08 159.72 1268.64 146.173 1270.65 144.923C1272.66 143.673 1267.24 148.087 1267.24 148.087C1267.24 148.087 1264.96 153.785 1257.85 156.163C1252 158.149 1240.84 156.549 1236.27 156.359C1236.91 157.019 1241.92 157.1 1243.97 157.698C1246.01 158.296 1258.76 159.301 1258.76 159.301C1258.76 159.301 1237.9 160.219 1227.08 160.028C1223.01 160.477 1206.71 162.169 1204.32 161.535C1204.98 160.513 1210.17 157.423 1210.17 157.423C1210.17 157.423 1218.17 156.814 1221.95 156.873C1225.69 156.935 1217.19 153.237 1214.44 153.151C1214.53 153.073 1229.15 152.807 1231.92 154.262Z" fill="#D9C7AB"/>
<path d="M884.142 177.319C852.94 193.087 841.143 213.25 834.287 238.985L1023.84 221.298L1087 214.788L1089.44 192.515C1089.44 192.515 1056.44 185.275 1030.39 183.112C1004.34 180.949 966.598 172.951 957.367 171.755C948.166 170.523 923.67 166.294 921.361 164.693C919.089 163.122 908.373 157.402 908.373 157.402C908.373 157.402 880.838 170.942 884.142 177.319Z" fill="#5A3550"/>
<path d="M1102.28 160.291C1102.28 160.291 1104.25 165.97 1084.29 168.107C1064.33 170.243 1054.15 172.53 1046.75 174.797C1039.35 177.065 1041.04 184.827 1041.04 184.827C1041.04 184.827 961.025 175.322 950.828 171.851C940.63 168.38 923.552 165.757 921.327 164.696C919.103 163.635 904.002 158.324 908.339 157.406C912.639 156.456 931.651 152.248 937.802 151.297C943.953 150.346 956.276 148.304 958.406 148.723C958.894 148.814 959.552 149.987 968.532 150.692C972.09 150.977 984.061 149.209 988.413 149.557C993.282 149.925 995.817 151.746 1001.34 152.156C1035.22 154.789 1077.66 158.029 1083.12 158.581C1092.3 159.508 1101.58 159.465 1102.28 160.291Z" fill="#5A3550"/>
<path d="M1110.79 162.617C1110.79 162.617 1181.14 154.476 1182.55 154.961L1204.09 162.002L1205.03 169.525C1205.03 169.525 1105.99 175.852 1095.15 177.241C1084.85 178.545 1057.25 181.12 1052.57 182.723C1047.88 184.326 1071.46 188.673 1071.46 188.673C1071.46 188.673 1045.46 185.512 1041.83 184.445C1038.19 183.378 1027.71 182.745 1026.15 181.417C1024.59 180.088 1013.21 178.338 1013.21 178.338C1013.21 178.338 1035.47 173.965 1045.85 173.168C1060.05 170.745 1069.4 168.399 1077.48 166.479C1086.87 164.231 1094.7 160.998 1100.82 159.708C1105.78 161.782 1106.58 162.29 1110.79 162.617Z" fill="#D9C7AB"/>
<path d="M1090.86 193.034C1090.86 193.034 1090.52 195.946 1085.15 203.064C1081.12 208.377 1058.8 215.328 1056.85 217.944C1056.82 218.015 1086.97 214.859 1086.97 214.859L1245.07 200.004L1207.01 169.409L1178.29 160.33L1134.47 166.544L1122.99 165.181C1084.42 170.22 1029.63 181.572 1062.69 187.263C1062.69 187.263 1087.17 191.699 1089.38 192.59C1091.62 193.443 1090.86 193.034 1090.86 193.034Z" fill="#5A3550"/>
<path d="M1066.37 165.665C1066.37 165.665 1089.93 160.243 1074.42 158.982C1058.91 157.687 1035.59 149.578 999.71 153.783C994.825 154.341 972.276 159.222 971.373 157.627C970.47 156.031 986.324 149.58 986.324 149.58C986.324 149.58 961.745 151.805 951.309 153.499C953.879 151.648 958.372 148.726 958.372 148.726C958.372 148.726 938.683 153.031 931.271 155.163C923.856 157.261 923.243 158.038 923.243 158.038C923.243 158.038 925.556 156.005 933.632 153.64C941.708 151.275 951.401 149.342 951.401 149.342C951.401 149.342 933.326 151.097 919.359 154.629C913.237 155.886 908.305 157.409 908.305 157.409C908.305 157.409 918.227 164.788 923.243 166C928.296 167.243 945.397 170.235 951.309 171.5C958.588 173.084 964.187 172.833 973.617 174.696C981.65 176.278 1013.25 181.661 1018.76 180.872C1004.45 179.636 990.772 167.85 986.493 167.187C982.214 166.523 993.962 169.335 993.962 169.335C993.962 169.335 999.601 174.294 1014.31 174.67C1026.44 174.978 1048.63 170.302 1057.75 168.834C1056.53 169.668 1046.51 171.117 1042.48 172.316C1038.44 173.482 1012.98 178.017 1012.98 178.017C1012.98 178.017 1055.17 173.087 1076.88 169.895C1085.14 169.192 1118.27 166.308 1122.98 165.045C1121.5 164.223 1110.48 162.611 1110.48 162.611C1110.48 162.611 1094.25 164.263 1086.7 165.344C1079.16 166.459 1095.64 160.431 1101.11 159.577C1101.16 159.676 1071.65 163.492 1066.37 165.665ZM1246.56 190.609C1246.56 190.609 1222.96 184.96 1199.65 189.364C1176.3 193.737 1136.83 193.991 1122.55 192.341C1108.27 190.69 1095.52 184.852 1095.52 184.852C1095.52 184.852 1167.63 175.86 1176.83 175.208C1186.02 174.522 1219.92 177.015 1225 178.119C1230.03 179.192 1243.15 188.63 1246.56 190.609Z" fill="#D9C7AB"/>
<path d="M1146.44 212.156C1146.44 212.156 1147.33 210.633 1154.73 205.451C1162.13 200.269 1207.01 187.853 1207.01 187.853C1207.01 187.853 1171.97 192.563 1157.71 192.557C1143.44 192.55 1123.37 193.121 1113.26 190.533C1103.14 187.912 1103.91 185.852 1095.52 184.852C1088 185.896 996.69 217.317 986.96 228.408L1146.44 212.156Z" fill="#5A3550"/>
<path d="M1250.23 203.809L1247.94 199.154C1245.24 192.618 1249.87 191.191 1244.79 189.677C1239.75 188.159 1234.67 187.055 1227.11 186.458C1219.54 185.827 1167.27 192.145 1167.27 192.145C1167.27 192.145 1137.39 206.281 1133.4 213.476L1250.23 203.809ZM1146.83 192.474C1146.83 192.474 1133.59 198.613 1121.19 203.13C1108.75 207.616 1101.34 211.975 1095.56 215.429C1089.78 218.916 1088.69 213.807 1088.69 213.807L1055.21 214.771C1055.21 214.771 1072.92 215.656 1081.13 209.644C1089.35 203.632 1105.14 199.45 1105.9 196.534C1106.65 193.618 1102.44 192.503 1099.03 190.524C1095.62 188.545 1095.52 184.852 1095.52 184.852C1095.52 184.852 1110.77 191.04 1122.55 192.341C1134.29 193.645 1146.83 192.474 1146.83 192.474ZM819.72 183.536C819.72 183.536 819.224 192.188 820.444 195.708L829.874 211.901L830.442 217.985L830.499 226.311L834.691 271.242L844.378 270.339L984.054 256.791C984.054 256.791 966.107 212.526 951.826 206.076C951.826 206.076 927.235 195.686 909.841 185.995C905.535 184.305 900.625 186.066 897.529 184.847C894.005 183.461 891.964 183.995 891.162 183.487C887.446 184.073 882.341 185.578 879.478 185.023C877.802 184.699 878.241 182.43 876.627 182.032C873.504 181.26 870.404 181.104 869.033 180.375C863.081 180.519 835.867 182.064 819.72 183.536Z" fill="#5A3550"/>
<path d="M891.576 183.517C891.576 183.517 893.207 184.462 896.997 184.657C901.54 184.85 908.425 184.413 910.017 186.047C904.998 189.944 902.387 193.924 900.104 194.446C899.298 194.624 906.285 227.982 903.021 226.812C907.518 229.444 887.239 214.194 876.167 196.2C873.787 193.473 874.431 192.659 873.978 192.221C873.634 191.842 864.164 192.863 863.219 193.019C859.209 193.771 850.053 194.111 844.627 194.377C843.978 194.403 848.798 192.788 855.95 191.538C855.183 191.404 854.203 191.187 853.118 190.945C846.253 189.391 834.201 185.888 830.79 184.972C826.816 183.903 820.223 183.421 820.223 183.421C822.121 182.455 838.601 179.032 847.36 179.209C857.568 178.016 869.598 178.711 869.598 178.711C869.598 178.711 873.725 180.691 876.429 181.742C872.803 182.56 863.367 187.623 863.886 187.677C869.424 186.029 877.304 184.506 879.714 184.246C883.962 183.85 888.726 183.097 891.576 183.517Z" fill="#D9C7AB"/>
<path d="M875.841 190.504C875.841 190.504 882.737 188.353 884.691 187.622C885.217 187.744 876.807 191.306 877.454 191.622C878.673 192.194 879.129 193.043 880.579 194.622C885.971 204.644 899.314 223.455 905.266 228.454C911.218 233.452 928.366 242.343 931.277 243.408C934.222 244.471 910.748 221.805 909.652 217.039C908.556 212.273 897.579 198.247 900.731 194.182C900.339 192.915 884.66 193.898 881.505 191.313C880.873 190.789 897.752 185.032 897.163 184.607C895.011 183.95 892.065 183.608 891.576 183.517C888.775 184.361 880.656 189.198 874.32 190.372C867.95 191.549 854.202 193.381 854.202 193.381C854.202 193.381 877.949 190.685 875.841 190.504Z" fill="#5A3550"/>
<path fill-rule="evenodd" clip-rule="evenodd" d="M211.735 225.288C211.735 225.288 177.861 202.802 145.982 181.635C141.961 178.965 114.907 181.732 111.111 179.222C93.997 167.931 104.742 155.45 99.723 154.034C85.859 150.174 89.847 141.36 82.545 131.034C73.795 132.417 66.525 122.766 63.919 122.927C63.919 122.927 48.607 112.279 40.726 111.668C32.876 111.057 0 85 0 85V225.256H211.735V225.288Z" fill="#5A3550"/>
<path fill-rule="evenodd" clip-rule="evenodd" d="M0.38623 85.418C0.38623 85.418 19.5912 94.908 28.8882 104.623C43.5562 107.518 52.2102 111.218 59.5122 114.338C67.1362 118.327 68.1662 119.356 73.6022 124.439C79.5862 125.533 85.8582 134.347 85.8582 134.347C85.8582 134.347 70.0962 137.178 51.1482 140.202C42.5282 141.295 35.4502 133.575 34.3882 133.06C33.5522 132.642 46.8702 127.591 59.5772 130.487C52.7892 126.176 34.7742 109.287 27.7292 107.036C31.4292 114.531 26.8932 124.085 25.7992 123.249C22.2292 114.885 14.1542 105.331 8.94323 100.827C5.37323 97.642 0.38623 85.418 0.38623 85.418Z" fill="#D9C7AB"/>
<path fill-rule="evenodd" clip-rule="evenodd" d="M27.8579 108.097C27.8579 108.097 31.8479 109.191 32.9409 109.834C34.0349 110.478 36.7049 110.542 36.7049 110.542L42.0449 111.507L34.9029 111.25C34.9029 111.25 36.7049 113.019 38.0559 113.759C39.5679 114.563 40.5009 115.85 40.5009 115.85L44.9399 118.681C44.9399 118.681 40.4689 114.242 41.0149 114.435C41.5619 114.66 42.1089 112.955 42.1089 112.955C42.1089 112.955 43.2029 113.051 43.8789 113.373C44.5539 113.695 44.5539 112.311 44.5539 112.311C44.5539 112.311 46.8699 112.633 47.5779 112.311C48.2529 111.99 48.9609 113.373 48.9609 113.373C48.9609 113.373 46.2269 113.469 47.4489 114.435C48.6719 115.367 49.5079 115.657 49.3469 115.979C49.2189 116.333 47.2239 115.786 47.6099 116.912C47.9959 118.005 48.2529 118.423 48.2529 118.423C48.2529 118.423 47.5779 119.067 46.6129 119.067C45.6479 119.067 44.5539 119.292 44.5539 119.292L43.3959 120.804C43.8779 120.997 43.9109 121.769 45.3259 122.638C46.7419 123.506 58.6759 130.39 59.7699 130.487C59.6409 129.972 51.6629 122.445 52.2099 122.348C52.7569 122.252 52.7569 120.772 51.5349 120.868C50.3119 120.965 50.7299 120.032 51.4049 120.032C52.0819 120.032 53.5289 120 53.3359 119.389C53.1759 118.777 52.7569 118.359 52.7569 118.359C52.7569 118.359 53.8189 118.713 55.2339 118.874C57.7109 119.196 56.4559 117.394 56.4559 117.394C56.4559 117.394 60.6379 120.579 61.9259 121.48C65.9459 122.059 73.4419 124.568 73.4419 124.568C73.4419 124.568 64.6269 115.625 59.9309 115.271C59.3839 115.367 56.8109 115.432 56.2959 114.081C55.7809 112.73 55.3949 112.858 54.5909 112.73C53.7859 112.633 51.9209 111.282 51.2769 111.121C50.6339 110.96 46.5169 109.802 45.2939 109.481C44.0719 109.159 35.2249 108.258 35.2249 108.258L37.1549 107.454L33.5849 106.489L29.0169 104.687C26.8609 103.98 28.6299 107.39 27.8579 108.097Z" fill="#D9C7AB"/>
<path fill-rule="evenodd" clip-rule="evenodd" d="M19.0121 97.0958C18.5941 97.0628 19.5591 98.4788 20.7811 98.3498C22.0031 98.2538 22.1321 101.181 22.1321 101.181C22.1321 101.181 24.3521 101.696 23.2581 102.982C22.1641 104.237 16.8241 100.956 22.1641 104.237C27.5041 107.518 29.3061 114.306 28.7271 117.265C30.0771 114.788 30.3031 108.129 30.3031 108.129C30.3031 108.129 29.0811 104.848 28.8881 104.623C26.8611 102.275 22.2931 97.4168 19.0121 97.0958Z" fill="#D9C7AB"/>
<path fill-rule="evenodd" clip-rule="evenodd" d="M256.031 167.095C256.031 167.095 240.976 185.077 241.62 193.505C242.231 201.933 244.74 224.741 244.74 224.741H430C430 224.741 403.429 211.713 395.644 204.507C384.996 199.553 315.447 178.675 304.188 178.675C317.795 185.334 270.121 166.966 256.031 167.095Z" fill="#5A3550"/>
<path fill-rule="evenodd" clip-rule="evenodd" d="M256.031 167.77C256.031 167.77 240.204 204.475 249.598 204.475C254.294 204.475 281.573 192.605 283.407 193.634C291.867 190.867 323.489 202.48 325.355 204.475C325.065 216.056 314.225 224.709 314.225 224.709H204.69C204.69 224.709 239.143 173.721 256.031 167.77Z" fill="#5A3550"/>
<path fill-rule="evenodd" clip-rule="evenodd" d="M279.482 195.789C281.284 195.564 291.128 191.318 296.242 190.353C296.242 190.353 315.898 204.861 324.647 208.85C354.532 202.319 392.652 202.898 392.652 202.898C392.652 202.898 347.23 186.01 327.639 182.761C322.01 180.284 310.847 181.474 310.847 181.474C310.847 181.474 304.96 170.054 296.821 170.054C296.821 170.054 282.056 164.264 278.903 164.778C275.783 165.261 255.71 166.966 255.71 166.966C255.71 166.966 269.703 181.828 279.482 195.789Z" fill="#D9C7AB"/>
<path fill-rule="evenodd" clip-rule="evenodd" d="M290.388 212.131C290.388 212.131 290.774 214.254 285.884 217.31C281.027 220.366 263.044 225.288 263.044 225.288H312.069C312.102 225.288 298.784 216.892 290.388 212.131ZM40.726 161.98C40.726 161.98 33.938 179.608 29.113 182.857C27.44 183.983 10.841 169.539 8.107 163.46C7.077 164.199 13.286 178.868 12.321 179.64C4.825 185.431 20.588 191.382 18.336 192.283C16.084 193.183 0 193.216 0 193.216V225.288C0 225.288 16.631 203.349 19.623 195.114C20.523 192.637 35.321 194.824 41.659 193.891C43.557 192.508 36.383 185.366 38.539 183.951C50.73 175.845 63.984 167.352 67.747 165.164C74.117 161.497 97.375 169.668 100.013 169.958C102.618 170.247 87.21 158.152 82.706 154.484C81.966 150.817 55.459 148.951 55.459 148.951C55.459 148.951 47.32 156.575 40.726 161.98Z" fill="#5A3550"/>
<path fill-rule="evenodd" clip-rule="evenodd" d="M27.922 125.822C27.922 125.822 8.33204 141.392 10.197 152.072C10.551 154.034 29.113 135.183 34.614 132.835C35.579 135.73 50.023 137.049 51.277 140.041C65.399 162.655 8.23504 168.671 9.16804 170.73C11.678 176.295 26.7 184.434 26.7 184.434C33.456 190.288 40.05 190.578 43.428 194.663C35.643 195.049 19.88 193.891 19.88 193.891C19.88 193.891 13.157 187.49 9.39303 184.112C4.66403 183.501 3.49174e-05 183.501 3.49174e-05 183.501V137.371C-0.0319651 137.371 21.94 124.278 27.922 125.822Z" fill="#5A3550"/>
<path fill-rule="evenodd" clip-rule="evenodd" d="M67.747 163.588C67.747 163.588 62.89 172.853 63.244 180.477C63.63 188.101 70.643 202.384 70.643 202.384C70.643 202.384 76.626 195.371 77.752 194.438C78.878 193.537 90.105 189.548 91.971 188.648C93.836 187.747 103.937 181.924 106.575 180.412C109.181 178.901 115.936 177.968 115.936 177.968C115.936 177.968 97.6 167.577 88.239 166.387C78.91 165.132 74.503 162.044 67.747 163.588Z" fill="#D9C7AB"/>
<path fill-rule="evenodd" clip-rule="evenodd" d="M19.108 194.953L0 225.256H62.986C62.986 225.256 79.972 194.47 81.098 193.859C81.773 193.505 91.52 189.935 91.102 188.487C90.459 186.171 109.438 185.817 109.245 184.659C109.02 183.34 72.669 177.421 65.817 174.558C65.045 174.236 58.612 178.064 58.676 177.839C58.74 177.55 64.852 173.11 64.949 172.821C65.013 172.531 65.109 172.242 65.206 171.92C66.429 167.642 68.166 163.588 68.166 163.588C68.166 163.588 42.495 175.877 37.123 183.437C36.286 184.595 49.476 202.191 51.373 205.279C47.578 208.367 19.301 193.602 19.108 194.953ZM186.611 225.288C186.611 225.288 190.343 217.921 186.74 209.525C182.944 200.614 171.685 190.513 167.438 186.91C159.139 179.93 154.088 174.783 154.088 174.783C154.088 174.783 185.742 166.998 188.348 166.58C190.954 166.161 205.687 172.756 205.687 172.756L250.627 202.255L233.384 225.255H186.611V225.288Z" fill="#5A3550"/>
<path fill-rule="evenodd" clip-rule="evenodd" d="M90.7798 185.045C90.7798 185.045 81.9658 196.529 79.3598 202.287C76.7538 208.045 65.8818 225.288 65.8818 225.288H219.423C219.423 225.288 187.126 199.81 180.917 194.47C174.676 189.13 153.863 175.523 151.258 174.686C148.652 173.85 128.932 175.877 120.633 176.263C112.333 176.681 115.003 176.842 110.854 178.064C106.704 179.319 90.7798 185.045 90.7798 185.045Z" fill="#5A3550"/>
<path fill-rule="evenodd" clip-rule="evenodd" d="M162.227 160.693C162.227 160.693 145.306 159.631 134.916 163.749C124.525 167.867 99.5303 182.986 99.5303 182.986C99.5303 182.986 122.756 177.646 131.088 176.552C144.92 174.719 156.469 176.81 156.469 176.81C156.469 176.81 176.864 171.469 186.611 168.639C189.603 167.77 205.655 173.432 207.006 173.432C207.006 173.432 192.337 163.62 188.348 162.462C182.172 160.693 166.634 160.436 162.227 160.693Z" fill="#D9C7AB"/>
<path fill-rule="evenodd" clip-rule="evenodd" d="M188.348 162.719C188.348 162.719 189.957 164.231 175.674 168.124C164.64 171.148 153.96 175.458 153.96 175.458C161.069 180.123 185.099 206.019 185.517 208.914C186.225 189.58 181.4 186.878 181.4 186.878C181.4 186.878 206.202 196.078 222.801 198.813C232.934 198.813 247.86 200.743 249.179 200.743C249.179 200.743 206.041 166.612 188.348 162.719ZM87.628 146.764C87.628 146.764 77.527 145.638 72.122 146.925C66.718 148.179 55.394 148.919 55.394 148.919C55.394 148.919 65.334 155.192 69.677 154.871C76.915 154.292 88.174 157.991 88.174 157.991C88.174 157.991 97.889 156.479 99.659 154.195C99.627 154.195 92.549 148.533 87.628 146.764Z" fill="#D9C7AB"/>
<path fill-rule="evenodd" clip-rule="evenodd" d="M60.9922 177.131C60.9922 177.131 56.1352 187.779 54.2692 192.025C52.9492 197.43 49.1542 199.714 49.1542 205.504L46.7412 221.846C46.7412 221.846 58.3542 209.461 59.1582 207.177C64.2732 204.893 76.2402 207.788 81.1622 194.309C81.7092 192.797 104.355 181.378 98.3722 181.667C92.3892 181.957 68.7772 176.07 65.5602 175.04C62.6002 175.973 60.9922 177.131 60.9922 177.131Z" fill="#5A3550"/>
<path fill-rule="evenodd" clip-rule="evenodd" d="M79.4902 206.373C79.4902 206.373 65.9782 203.574 60.5742 204.861C55.1692 206.116 52.2742 208.142 52.2742 208.142C52.2742 208.142 30.4002 213.386 29.9492 216.377C42.5912 214.351 75.1792 218.372 75.1792 218.372C75.1792 218.372 100.592 220.881 115.036 225.288C115.003 225.288 91.0072 209.493 79.4902 206.373Z" fill="#5A3550"/>
<path d="M939 233.5L934.925 215.137C934.925 215.137 884.553 190.879 751.38 183.614C628.664 176.949 577.885 192.426 570.683 194.89C577.397 192.49 622.52 177.77 723.59 173C723.59 173 616.213 172.621 550.217 195.206L565.312 188.415C565.312 188.415 468.474 189.898 378.014 197.492C370.022 198.163 362.079 198.882 354.257 199.651C331.333 196.044 317.996 195.721 304.659 197.492C315.912 197.015 333.001 199.28 335.918 201.579C304.575 205.101 276.262 209.535 256 215.106C256 215.106 256.041 215.106 256.041 215.137C256.081 215.137 256.122 217.191 256.122 217.191L939 233.5Z" fill="#5A3550"/>
<path d="M500.931 190.276C500.931 190.276 496.751 178.964 486.673 176.261C495.415 176.509 510.007 188.878 510.007 188.878C508.29 181.575 505.461 176.385 502.679 171.537C507.988 175.639 510.849 181.979 513.424 188.598C513.424 188.598 521.594 175.36 531.719 170.822C518.924 184.589 518.67 188.412 518.67 188.412C518.67 188.412 525.504 176.23 551 167C525.298 183.346 526.22 185.832 526.22 185.832C533.659 179.462 540.938 175.577 547.885 176.851C540.35 179.337 533.818 183.191 529.144 189.593L528.111 193.726L495.097 195C487.214 185.118 474.084 181.886 459 181.14C473.003 178.654 489.661 182.134 500.931 190.276ZM1488 193.101C1488 193.101 1494.23 161.604 1498.01 125.888C1498.11 125.005 1482.31 124.122 1482.41 123.239C1482.51 122.258 1500.07 122.258 1500.17 121.228C1501.93 106.461 1503.85 103.566 1507.43 89.388C1507.87 87.572 1500.76 80.802 1501.25 78.987C1502.96 80.949 1509 83.01 1507.72 81.538C1512.83 64.808 1511.21 57.695 1512.83 42.83C1500.51 57.45 1490.21 57.646 1485.4 79.036C1485.16 80.213 1484.17 80.998 1483.54 81.98C1482.8 83.157 1488.88 88.456 1488.2 89.682C1487.31 91.202 1479.71 88.652 1478.88 90.172C1473.48 100.426 1469.21 111.71 1467.3 123.632C1467.15 124.466 1470.44 126.526 1470.29 127.36C1470.14 128.636 1466.61 128.636 1466.41 129.813C1460.38 175.881 1460.38 181.866 1460.38 181.866C1460.38 181.866 1461.66 148.554 1459.79 114.163C1459.69 112.152 1459.55 110.14 1459.45 108.129C1459.35 106.951 1459.3 105.823 1459.2 104.645C1458.96 101.309 1458.66 97.973 1458.37 94.686C1458.22 93.018 1449.59 94.637 1449.39 92.969C1449.24 91.792 1458.91 88.995 1458.76 87.867C1457.53 78.006 1455.77 68.684 1453.41 60.835C1453.27 60.344 1443.36 69.567 1443.21 69.125C1442.91 68.194 1452.38 57.597 1452.04 56.714C1450.13 51.415 1447.87 46.951 1445.17 43.614C1444.48 42.731 1437.81 56.468 1437.13 55.585C1436.78 55.144 1442.47 39.885 1442.13 39.445C1441.44 38.561 1439.43 38.415 1438.79 37.531C1420.4 12.854 1419.07 0 1419.07 0C1419.07 0 1416.96 41.014 1421.18 72.02C1421.33 72.953 1432.61 74.08 1432.76 74.964C1432.96 76.092 1421.18 76.092 1421.38 77.172C1422.51 83.55 1423.98 89.339 1425.94 94.048C1429.57 102.879 1429.18 115.291 1432.12 127.605C1432.32 128.39 1445.51 128.145 1446.2 128.047C1443.01 128.783 1433.99 132.413 1432.71 132.413C1433.89 137.614 1436.14 150.615 1437.13 155.521C1437.37 156.649 1451.45 150.713 1451.7 151.792C1447.43 152.332 1443.6 160.132 1439.43 159.2C1441.74 171.662 1446.59 182.16 1446.59 182.16C1446.59 182.16 1440.12 163.91 1431.04 149.437C1430.4 148.407 1426.97 154.343 1426.28 153.313C1425.65 152.381 1428.69 145.611 1428.1 144.678C1422.8 136.633 1413.58 130.942 1409.06 126.624C1407.98 125.594 1407.15 134.18 1406.17 133.542C1405.24 132.953 1407.74 123.73 1406.61 122.699C1400.33 116.959 1390.37 103.566 1381.83 91.301C1381 90.075 1377.08 91.497 1375.6 93.509C1374.77 92.282 1380.71 89.633 1379.87 88.406C1369.96 73.737 1359.66 57.548 1359.66 57.548C1359.66 57.548 1353.58 90.565 1369.13 124.956C1369.77 126.379 1378.6 120.296 1379.28 121.669C1379.92 122.945 1372.02 130.058 1372.32 131.432C1375.85 145.954 1379.04 150.026 1382.33 156.796C1385.61 163.567 1396.16 171.514 1396.16 171.514L1403.47 161.114L1398.12 172.594L1400.43 174.556L1410.49 182.945C1410.49 182.945 1381.98 165.872 1373.89 168.669C1365.79 171.465 1358.83 178.285 1358.83 178.285C1358.83 178.285 1358.38 169.012 1357.4 156.208C1357.35 155.324 1348.33 157.532 1348.28 156.6C1348.18 155.668 1357.01 151.547 1356.96 150.615C1355.88 138.055 1354.36 123.239 1352.25 110.434C1348.38 115.242 1347.74 116.616 1344.75 117.107C1346.71 114.654 1350.39 108.374 1349.9 105.97C1345.82 86.15 1340.08 69.371 1332.04 59.363C1332.04 59.363 1328.6 98.856 1329.05 131.53C1329.05 132.806 1339.64 138.595 1339.69 139.821C1339.74 141.637 1329.14 135.063 1329.24 136.78C1329.68 147.867 1330.81 161.31 1332.77 167.393C1332.77 167.393 1320.95 141.49 1308.1 120.197C1307.21 118.775 1308.1 123.19 1305.4 126.575C1304.71 125.545 1306.58 117.205 1305.89 116.174C1298.63 105.185 1290.58 95.324 1282.59 90.173C1282.59 90.173 1284.79 100.77 1288.38 114.605C1288.67 115.782 1294.31 119.658 1294.65 120.884C1294.65 120.884 1289.16 117.352 1289.7 119.412C1294.41 136.534 1301.87 160.721 1308.15 170.926C1311.38 176.224 1315.9 184.908 1316.09 185.889C1312.22 179.756 1305.2 169.503 1305.2 169.503C1305.2 169.503 1298.87 162.487 1290.09 152.234C1289.55 151.596 1283.03 160.77 1282.44 160.083C1281.8 159.396 1287.15 148.849 1286.46 148.162C1274.69 135.259 1258.11 121.08 1240.05 117.793C1240.05 117.793 1244.47 130.843 1253.49 145.071C1253.98 145.905 1266.99 150.664 1267.52 151.498C1268.65 153.166 1255.01 147.818 1256.29 149.486C1261 155.864 1269 165.038 1275.57 169.993C1275.57 169.993 1262.96 163.91 1247.95 160.77C1247.31 160.623 1246.67 160.525 1246.04 160.378C1245.71 160.337 1245.38 160.272 1245.06 160.181C1234.41 158.268 1222.88 158.121 1214 162.733C1214 162.733 1234.36 169.159 1252.37 177.451C1253.79 178.088 1259.58 170.68 1260.95 171.367C1262.23 171.956 1254.87 180.051 1256.04 180.689C1263.55 184.613 1274.1 189.372 1277.34 192.855H1488V193.101Z" fill="#5A3550"/>
<path d="M1349.16 193.394C1349.16 193.394 1346.71 114.751 1334.2 67.2119C1334.2 68.2419 1343.32 105.38 1347 193.394H1349.16Z" fill="url(#paint0_linear_44_244)"/>
<path d="M1456.16 193.101C1456.16 193.101 1454 116.91 1431.93 49.0599C1428.59 38.8549 1423 24.5789 1419.76 5.00391C1419.76 5.54391 1423.93 25.8539 1432.66 47.8339L1432.81 48.2749C1442.82 76.8769 1455.72 125.545 1458.22 193.15H1456.16V193.101Z" fill="url(#paint1_linear_44_244)"/>
<path d="M1432.81 193.1C1432.81 193.1 1429.47 159.004 1395.47 128.635C1368.54 105.234 1364.42 75.7489 1360.89 62.6489C1360.89 62.8949 1370.35 108.864 1398.07 127.949C1405.29 132.953 1432.12 162.83 1435.95 193.051H1432.81V193.1Z" fill="url(#paint2_linear_44_244)"/>
<path d="M1339.1 193.395C1339.1 193.395 1311.24 150.762 1288.28 99.6899C1288.28 100.279 1310.6 154.637 1336.95 193.395H1339.1Z" fill="url(#paint3_linear_44_244)"/>
<path d="M1306.09 193.394C1306.09 193.394 1276.26 145.462 1244.71 122.846C1244.71 123.434 1280.04 153.067 1303.93 193.394H1306.09Z" fill="url(#paint4_linear_44_244)"/>
<path d="M1294.95 193.395C1294.95 193.395 1272.04 152.38 1220.33 160.671C1220.33 161.26 1268.9 153.067 1292.79 193.395H1294.95Z" fill="url(#paint5_linear_44_244)"/>
<path d="M0 194H1440V314H0V194Z" fill="#5A3550"/>
</g>
<defs>
<linearGradient id="paint0_linear_44_244" x1="1344.93" y1="121.613" x2="1340.59" y2="193.328" gradientUnits="userSpaceOnUse">
<stop stop-color="#241D1A"/>
<stop offset="1" stop-color="#202825" stop-opacity="0"/>
</linearGradient>
<linearGradient id="paint1_linear_44_244" x1="1447.34" y1="86.1199" x2="1443.58" y2="193.311" gradientUnits="userSpaceOnUse">
<stop stop-color="#241D1A"/>
<stop offset="1" stop-color="#202825" stop-opacity="0"/>
</linearGradient>
<linearGradient id="paint2_linear_44_244" x1="1414.72" y1="118.891" x2="1413.79" y2="193.292" gradientUnits="userSpaceOnUse">
<stop stop-color="#241D1A"/>
<stop offset="1" stop-color="#202825" stop-opacity="0"/>
</linearGradient>
<linearGradient id="paint3_linear_44_244" x1="1324.73" y1="140.089" x2="1324.02" y2="193.531" gradientUnits="userSpaceOnUse">
<stop stop-color="#241D1A"/>
<stop offset="1" stop-color="#202825" stop-opacity="0"/>
</linearGradient>
<linearGradient id="paint4_linear_44_244" x1="1288.73" y1="153.262" x2="1288.39" y2="193.501" gradientUnits="userSpaceOnUse">
<stop stop-color="#241D1A"/>
<stop offset="1" stop-color="#202825" stop-opacity="0"/>
</linearGradient>
<linearGradient id="paint5_linear_44_244" x1="1273.84" y1="174.15" x2="1273.78" y2="193.447" gradientUnits="userSpaceOnUse">
<stop stop-color="#241D1A"/>
<stop offset="1" stop-color="#202825" stop-opacity="0"/>
</linearGradient>
</defs>
</svg>
