<svg width="1280" height="297" viewBox="0 0 1280 297" fill="none" xmlns="http://www.w3.org/2000/svg">
<mask id="mask0_12_409" style="mask-type:luminance" maskUnits="userSpaceOnUse" x="0" y="0" width="1280" height="297">
<path d="M0 0H1280V296.889H0V0Z" fill="white"/>
</mask>
<g mask="url(#mask0_12_409)">
<path d="M0 188.444H1280V296.889H0V188.444Z" fill="#5A3550"/>
<path d="M-20.2669 102.048C-20.2669 102.048 -32.3931 107.708 -33.2642 110.418C-34.1353 113.126 -35.6855 125.71 -35.6855 125.71C-35.6855 125.71 -15.5638 127.979 -4.63932 128.759C5.7109 129.482 33.4922 129.512 38.1989 131.872C42.9056 134.233 19.1447 147.418 19.1447 147.418C19.1447 147.418 45.3616 136.175 49.0149 133.331C52.6682 130.488 63.2496 127.265 64.8256 124.287C66.4016 121.308 77.8887 115.66 77.8887 115.66C77.8887 115.66 55.4896 110.944 45.062 111.306C30.7793 109.028 21.3865 106.08 13.2753 103.659C3.83534 100.846 -4.01177 95.7732 -10.1647 94.3447C-15.1895 99.4087 -16.0082 100.611 -20.2669 102.048Z" fill="#D9C7AB"/>
<path d="M-0.401516 159.842C-0.401516 159.842 -0.0877358 165.685 5.29804 179.045C9.32204 189.06 31.7514 198.941 33.6892 203.823C33.7318 203.936 3.36915 203.187 3.36915 203.187L-67.3535 202.835C-67.3535 202.835 -56.8771 181.171 -56.7206 170.837C-56.6851 168.859 -14.8273 198.24 -14.9837 197.243C-15.1411 196.246 -38.1233 174.456 -38.6282 172.565C-41.3455 162.433 -48.086 141.774 -47.8593 138.321C-47.6862 135.768 -47.3178 133.232 -46.7571 130.736C-46.7571 130.736 -39.6993 136.187 -35.0228 134.589C-32.3055 133.662 -26.9108 140.808 -22.2646 143.299C-21.1935 148.163 -13.7864 152.121 -9.05395 154.137C-4.32062 156.153 0.172709 153.523 7.97626 150.949C15.7789 148.376 28.0065 142.776 28.0065 142.776C28.0065 142.776 3.30426 156.306 1.07937 158.562C-1.1464 160.817 -0.401516 159.842 -0.401516 159.842ZM146.857 136.827C146.857 136.827 160.883 145.267 173.689 151.228C186.494 157.189 179.985 161.243 177.469 167.915C174.951 174.586 150.219 192.183 150.219 192.183C150.219 192.183 139.938 181.027 133.385 185.738C126.831 190.45 114.509 200.652 114.509 200.652L66.9291 204.519C66.9291 204.519 104.951 183.774 108.557 181.614C112.162 179.454 136.076 153.253 137.008 149.547C137.94 145.842 144.222 134.598 144.222 134.598L146.857 136.827Z" fill="#D9C7AB"/>
<path d="M235.912 174.521C235.912 174.521 225.554 184.45 209.26 189.24C192.966 194.029 164.41 186.805 154.395 191.3C144.38 195.793 124.438 204.481 124.438 204.481C124.438 204.481 154.125 193.895 161.305 190.245C168.485 186.596 180.521 177.483 180.085 173.324C179.65 169.165 186.979 168.407 186.979 168.407C186.979 168.407 193.532 164.052 196.405 162.511C199.279 160.97 234.724 143.564 237.806 138.966C240.89 134.368 254.976 121.073 257.174 119.162C259.374 117.25 273.373 101.212 276.957 99.3831C280.54 97.5538 291.325 69.3884 291.325 69.3884C291.325 69.3884 275.833 115.447 275.028 117.11C274.222 118.774 259.304 145.55 254.828 150.393C250.351 155.235 239.478 173.036 235.912 174.521Z" fill="#D9C7AB"/>
<path d="M-10.7341 12.0828C-10.7341 12.0828 -16.5163 31.4357 -15.5359 40.0383C-19.2905 42.9477 -38.4017 37.4872 -41.8843 39.6454C-53.2905 46.7405 -52.9821 62.4757 -57.2861 71.8525C-57.8194 73.0143 -44.0523 74.6419 -44.8772 75.8748C-46.1021 77.7165 -75.2497 81.6054 -76.8488 83.5254C-82.8461 90.6534 -77.151 95.5041 -77.4976 100.356C-77.9999 107.366 -16.943 201.124 -0.246093 221.753L560.024 295.967L548.407 278.053C548.407 278.053 550.082 263.355 552.271 258.229C554.092 253.958 549.18 233.869 547.218 210.845C544.9 208.605 535.747 203.765 534.413 201.652C526.251 188.707 516.994 171.506 516.994 171.506C516.994 171.506 364.354 95.9112 352.159 87.9681C339.964 80.025 294.076 87.2125 294.076 87.2125C294.076 87.2125 282.845 117.237 281.656 133.896C281.656 133.896 230.534 97.1974 195.605 65.9139C186.6 59.7868 174.349 61.1068 167.893 56.6988C160.496 51.6588 155.5 51.7885 153.957 50.2543C145.117 49.6028 132.485 50.2721 126.187 47.4294C122.49 45.7637 124.757 40.9352 121.199 39.113C114.461 35.6712 107.394 33.6908 104.571 31.2925C90.7939 28.4774 27.2552 17.3921 -10.7341 12.0828Z" fill="#5A3550"/>
<path d="M-41.5929 38.8943C-41.5929 38.8943 -6.41508 59.7049 13.8542 75.6676C34.1236 91.6303 78.1103 123.429 92.5378 143.267C106.965 163.104 124.164 188.626 124.164 188.626C124.164 188.626 105.844 123.905 98.6827 113.204C91.5209 102.505 83.3556 91.8072 83.7502 86.3574C84.1458 80.9085 65.7547 70.1814 59.8027 64.6596C49.8356 61.4169 37.1947 57.0223 25.6934 53.4676C13.7787 49.8907 -4.25153 44.1245 -4.25153 44.1245C-4.25153 44.1245 -17.1351 37.3805 -41.5929 38.8943Z" fill="#D9C7AB"/>
<path d="M150.889 50.0098C150.889 50.0098 154.096 53.0436 162.567 55.4472C172.716 58.3183 188.588 60.9441 191.289 65.4703C177.882 71.6561 169.85 79.2454 164.372 79.2081C162.485 79.1938 160.595 158.368 153.836 154.001C162.62 162.364 124.841 117.119 109.299 70.5227C105.397 63.0943 107.22 61.5681 106.485 60.377C105.866 59.3681 83.9484 56.6258 81.6995 56.5121C72.2204 56.0632 51.304 52.0027 38.9058 49.7458C37.3964 49.4721 49.2089 48.3645 66.04 49.3201C63.9758 48.4185 61.9295 47.4767 59.9022 46.4952C45.1804 39.3476 19.7893 25.0934 12.5333 21.1903C4.11998 16.6605 -10.5894 12.0854 -10.5894 12.0854C-5.78936 10.8845 33.3493 11.8987 53.0569 16.9014C76.7884 19.5921 103.618 27.5361 103.618 27.5361C103.618 27.5361 111.883 34.2001 117.484 38.0454C108.853 38.001 84.8382 44.4205 85.968 44.8632C99.3706 44.0943 118.019 44.7636 123.541 45.4996C133.455 46.7974 144.668 47.6001 150.889 50.0098Z" fill="#D9C7AB"/>
<path d="M111.569 57.5182C111.569 57.5182 128.342 56.2711 133.099 55.6462C134.238 56.2302 113.288 59.7991 114.627 60.8729C117.066 62.8462 117.688 65.0009 120.125 69.3235C127.005 94.88 147.197 144.498 158.044 158.985C168.891 173.473 202.95 202.676 209.007 206.641C215.064 210.604 174.001 146.834 174.029 135.484C174.059 124.133 156.67 86.5875 165.937 79.0373C165.688 75.96 129.688 69.8897 123.979 62.3475C122.803 60.7946 164.097 56.7724 162.957 55.4906C158.43 52.8577 151.913 50.5226 150.886 50.0293C144.08 50.4417 123.19 57.1066 108.167 56.4062C93.1441 55.704 61.0757 52.5475 61.0757 52.5475C61.0757 52.5475 116.218 59.0222 111.569 57.5182ZM254.633 122.972C254.633 122.972 304.567 156.25 316.592 165.908C329.467 176.251 335.298 176.754 333.227 183.654C331.155 190.555 368.202 246.42 373.439 250.712C378.677 255.005 396.245 275.226 396.245 275.226L468.399 283.64L455.481 281.076C442.464 271.361 421.466 263.086 415.61 250.899C406.634 232.236 404.009 203.099 401.021 200.512C398.034 197.925 432.534 214.546 452.543 223.04C472.553 231.534 477.965 233.501 477.965 233.501C477.965 233.501 443.558 204.777 415.259 190.203C386.959 175.628 342.154 148.091 332.282 141.898C322.41 135.706 295.703 110.273 293.646 105.816C291.59 101.359 287.651 86.3377 287.651 86.3377C287.651 86.3377 252.932 107.131 254.633 122.972Z" fill="#5A3550"/>
<path d="M502.145 164.397C502.145 164.397 502.586 178.132 479.753 175.696C456.92 173.259 444.912 174.727 436.005 177.195C427.097 179.662 426.557 198.038 426.557 198.038C426.557 198.038 340.624 146.779 330.369 135.056C320.115 123.331 301.964 111.051 299.819 107.782C297.673 104.513 282.559 86.8204 287.624 86.2888C292.689 85.7573 315.106 83.0488 322.233 83.183C329.361 83.3173 343.657 83.175 345.913 84.9075C346.413 85.2879 346.799 88.2088 356.537 93.1519C360.39 95.0995 374.236 95.4879 378.983 97.8799C384.269 100.547 386.533 105.616 392.525 108.627C429.34 127.142 475.471 150.237 481.378 153.463C491.281 158.916 501.62 162.241 502.145 164.397Z" fill="#D9C7AB"/>
<path d="M460.586 163.532C460.586 163.532 488.413 159.836 471.586 151.168C454.759 142.5 431.364 115.309 390.223 111.699C384.63 111.214 358.078 114.01 357.574 110.058C357.069 106.107 376.662 97.1635 376.662 97.1635C376.662 97.1635 348.671 93.1929 336.57 93.2658C339.99 89.9911 345.908 84.9422 345.908 84.9422C345.908 84.9422 322.709 87.5626 313.833 89.6533C304.958 91.7431 304.052 93.2551 304.052 93.2551C304.052 93.2551 307.238 89.4462 316.936 86.9973C326.634 84.5484 337.982 83.6782 337.982 83.6782C337.982 83.6782 317.369 81.0204 300.75 83.992C296.316 84.4038 291.924 85.1767 287.616 86.3031C287.616 86.3031 297.978 100.232 303.198 104.914C308.416 109.596 325.543 127.485 331.707 132.564C339.318 138.841 344.928 142.286 354.805 150.046C363.224 156.652 396.687 180.611 403.054 180.866C387.541 172.761 375.95 140.73 371.432 137.661C366.914 134.592 379.052 145.366 379.052 145.366C379.052 145.366 383.793 158.83 399.998 165.092C413.393 170.275 439.464 167.764 450.061 167.759C448.463 169.216 436.852 168.87 432.033 170.089C427.215 171.308 397.515 172.278 397.515 172.278C397.515 172.278 445.894 176.56 470.975 177.222C480.384 178.691 518.052 184.252 523.695 183.092C522.302 180.671 510.535 172.926 510.535 172.926C510.535 172.926 491.992 170.691 483.288 170.449C474.584 170.208 494.731 162.486 501.079 162.553C501.094 162.59 467.156 160.465 460.586 163.532Z" fill="#D9C7AB"/>
<path d="M597.826 193.246C597.826 193.246 598.436 192.402 603.086 189.763C607.736 187.124 634.903 182.255 634.903 182.255C634.903 182.255 613.959 183.126 605.555 182.317C597.151 181.507 585.272 180.766 579.429 178.667C573.585 176.568 574.174 175.384 569.266 174.313C564.776 174.513 509.176 188.034 502.81 194.039L597.826 193.246Z" fill="#5A3550"/>
<path d="M658.356 192.98L658.551 189.527C657.319 185.521 659.993 186.571 657.075 185.399C653.776 184.058 650.336 183.094 646.821 182.525C642.397 181.746 637.938 181.459 637.938 181.459C637.938 181.459 562.09 158.523 525.161 194.113L658.356 192.98Z" fill="#5A3550"/>
<path d="M658.077 186.043C658.077 186.043 644.47 180.409 630.462 181.689C616.454 182.97 592.758 180.235 584.419 178.467C579.293 177.374 574.234 175.982 569.271 174.299C569.271 174.299 612.317 172.993 617.782 173.08C623.247 173.167 643.111 176.52 646.032 177.435C648.954 178.349 656.169 184.694 658.077 186.043Z" fill="#D9C7AB"/>
<path fill-rule="evenodd" clip-rule="evenodd" d="M835.145 111.727C835.145 111.727 854.151 135.826 853.346 146.999C852.541 158.173 849.305 188.563 849.305 188.563H610.2C610.2 188.563 644.499 171.224 654.549 161.635C668.278 155.046 758.025 127.234 772.551 127.234C755.055 136.182 816.996 111.557 835.145 111.727Z" fill="#D9C7AB"/>
<path fill-rule="evenodd" clip-rule="evenodd" d="M834.736 112.794C834.736 112.794 855.162 161.639 843.048 161.639C836.987 161.639 801.791 145.863 799.418 147.217C788.531 143.555 747.692 159.005 745.272 161.639C745.664 177.042 759.641 188.586 759.641 188.586H901.004C901.004 188.586 856.547 120.698 834.736 112.794Z" fill="#5A3550"/>
<path fill-rule="evenodd" clip-rule="evenodd" d="M804.496 150.047C802.152 149.73 789.481 144.082 782.872 142.811C782.872 142.811 775.177 143.194 763.87 148.471C725.321 139.789 658.451 159.501 658.451 159.501C658.451 159.501 717.06 137.032 742.359 132.712C749.631 129.415 764.779 126.933 764.779 126.933C764.779 126.933 772.003 119.335 782.101 115.821C782.101 115.821 801.173 108.131 805.214 108.788C809.255 109.445 835.141 111.718 835.141 111.718C835.141 111.718 817.123 131.492 804.496 150.047Z" fill="#D9C7AB"/>
<path fill-rule="evenodd" clip-rule="evenodd" d="M657.053 160.198C657.053 160.198 656.247 164.81 666.746 171.398C677.244 177.987 716.019 188.586 716.019 188.586H610.209C610.209 188.586 638.93 170.444 657.053 160.198ZM777.778 221.474C777.778 221.474 879.82 153.701 975.956 89.879C988.062 81.8434 1069.56 90.2079 1081.08 82.6159C1094.38 73.8354 1099.07 71.0212 1103.45 62.4008C1111.6 46.3794 1197.51 38.3714 1257.31 34.7101C1290.07 32.7039 1313.51 70.0621 1342.29 55.8034C1375.31 39.4497 1415.82 34.7101 1415.82 34.7101V221.474H777.778Z" fill="#5A3550"/>
<path fill-rule="evenodd" clip-rule="evenodd" d="M981.965 221.475C981.965 221.475 973.867 204.984 981.662 186.124C989.92 166.132 1014.34 143.497 1023.6 135.455C1041.64 119.821 1052.6 108.285 1052.6 108.285C1052.6 108.285 983.813 90.816 978.178 89.8987C972.542 88.9805 940.498 103.775 940.498 103.775L842.854 169.9L880.342 221.475H981.965Z" fill="#5A3550"/>
<path fill-rule="evenodd" clip-rule="evenodd" d="M1190.18 131.279C1190.18 131.279 1209.35 157.027 1214.99 169.9C1220.62 182.774 1244.31 221.475 1244.31 221.475H968.462C968.462 221.475 1008.96 166.466 1022.47 154.516C1035.97 142.566 1053.15 109.939 1058.78 108.115C1064.43 106.292 1112.11 160.929 1130.15 161.852C1148.2 162.777 1165.46 135.941 1174.48 138.7C1183.49 141.46 1190.18 131.279 1190.18 131.279Z" fill="#5A3550"/>
<path fill-rule="evenodd" clip-rule="evenodd" d="M1319.68 49.9936C1319.68 49.9936 1226.23 63.4159 1225.1 86.4025C1223.96 109.391 1202.81 152.425 1202.81 152.425C1202.81 152.425 1186.86 122.854 1183.48 120.095C1180.1 117.335 1146.93 102.382 1141.3 99.623C1135.65 96.863 1102.46 90.8159 1094.57 86.2212C1086.68 81.6256 1066.39 78.8603 1066.39 78.8603C1066.39 78.8603 1121.64 47.5936 1149.82 43.9163C1178 40.239 1264.47 31.383 1319.68 49.9936Z" fill="#D9C7AB"/>
<path fill-rule="evenodd" clip-rule="evenodd" d="M1034.97 76.7145C1034.97 76.7145 1071.74 74.3323 1094.29 83.5278C1116.84 92.7243 1171.21 126.635 1171.21 126.635C1171.21 126.635 1120.76 114.691 1102.66 112.23C1072.58 108.145 1047.5 112.837 1047.5 112.837C1047.5 112.837 1003.21 100.858 982.009 94.5545C975.529 92.6274 940.622 105.319 937.716 105.319C937.716 105.319 969.582 83.3154 978.249 80.7198C991.582 76.7198 1025.4 76.1554 1034.97 76.7145Z" fill="#D9C7AB"/>
<path fill-rule="evenodd" clip-rule="evenodd" d="M1357.17 46.0051C1357.17 46.0051 1320.76 51.6869 1300.76 65.5723C1280.76 79.4585 1235.08 124.394 1235.08 124.394C1235.08 124.394 1454.72 149.483 1289.08 112.034C1217.73 95.9047 1308.31 104.59 1308.31 104.59C1308.31 104.59 1319.48 79.7749 1412.75 51.886C1418.66 48.5927 1455.48 53.3794 1458.32 52.7465C1458.32 52.7465 1422.44 38.2087 1413.41 37.5634C1399.52 36.5643 1366.4 43.3749 1357.17 46.0051Z" fill="#5A3550"/>
<path fill-rule="evenodd" clip-rule="evenodd" d="M978.169 81.2605C978.169 81.2605 974.676 84.6223 1005.68 93.3627C1029.64 100.116 1052.85 109.828 1052.85 109.828C1037.42 120.314 985.165 178.337 984.285 184.804C982.756 141.448 993.253 135.388 993.253 135.388C993.253 135.388 939.369 156.012 903.333 162.174C881.315 162.174 845.807 169.9 842.902 169.9C842.902 169.9 939.733 89.9956 978.169 81.2605Z" fill="#D9C7AB"/>
<path fill-rule="evenodd" clip-rule="evenodd" d="M1112.37 147.774C1112.37 147.774 1141.55 141.756 1153.24 144.499C1164.92 147.243 1171.16 151.576 1171.16 151.576C1171.16 151.576 1218.39 162.898 1219.33 169.386C1192.07 165.031 1121.68 173.667 1121.68 173.667C1121.68 173.667 1066.82 179.07 1035.64 188.585C1035.64 188.585 1087.48 154.471 1112.37 147.774Z" fill="#5A3550"/>
</g>
</svg>
