<svg width="1440" height="170" viewBox="0 0 1440 170" preserveAspectRatio="none" xmlns="http://www.w3.org/2000/svg">
  <path fill="#5a3550" d="M0,40.00 C40.00,37.84 160.00,24.52 240.00,27.06 C320.00,29.59 400.00,53.88 480.00,55.22 C560.00,56.55 640.00,39.16 720.00,35.06 C800.00,30.95 880.00,27.10 960.00,30.60 C1040.00,34.09 1120.00,56.00 1200.00,56.00 C1280.00,56.00 1400.00,34.83 1440.00,30.60 L1440,170 L0,170 Z"/>
  <path fill="#d9c7ab" d="M0,95.82 C40.00,89.88 160.00,62.63 240.00,60.18 C320.00,57.73 400.00,75.79 480.00,81.12 C560.00,86.45 640.00,95.96 720.00,92.15 C800.00,88.34 880.00,59.09 960.00,58.25 C1040.00,57.40 1120.00,82.27 1200.00,87.07 C1280.00,91.88 1400.00,87.09 1440.00,87.09 L1440,170 L0,170 Z"/>
  <path fill="#eee9db" d="M0,138.41 C40.00,136.04 160.00,130.12 240.00,124.22 C320.00,118.31 400.00,100.00 480.00,102.99 C560.00,105.98 640.00,139.74 720.00,142.13 C800.00,144.52 880.00,123.14 960.00,117.34 C1040.00,111.55 1120.00,102.92 1200.00,107.34 C1280.00,111.77 1400.00,137.80 1440.00,143.89 L1440,170 L0,170 Z"/>
</svg>
